%TF.GenerationSoftware,KiCad,Pcbnew,9.0.6*%
%TF.CreationDate,2025-12-26T01:32:08+09:00*%
%TF.ProjectId,PicomniRover,5069636f-6d6e-4695-926f-7665722e6b69,rev?*%
%TF.SameCoordinates,Original*%
%TF.FileFunction,Copper,L2,Bot*%
%TF.FilePolarity,Positive*%
%FSLAX46Y46*%
G04 Gerber Fmt 4.6, Leading zero omitted, Abs format (unit mm)*
G04 Created by KiCad (PCBNEW 9.0.6) date 2025-12-26 01:32:08*
%MOMM*%
%LPD*%
G01*
G04 APERTURE LIST*
G04 Aperture macros list*
%AMRoundRect*
0 Rectangle with rounded corners*
0 $1 Rounding radius*
0 $2 $3 $4 $5 $6 $7 $8 $9 X,Y pos of 4 corners*
0 Add a 4 corners polygon primitive as box body*
4,1,4,$2,$3,$4,$5,$6,$7,$8,$9,$2,$3,0*
0 Add four circle primitives for the rounded corners*
1,1,$1+$1,$2,$3*
1,1,$1+$1,$4,$5*
1,1,$1+$1,$6,$7*
1,1,$1+$1,$8,$9*
0 Add four rect primitives between the rounded corners*
20,1,$1+$1,$2,$3,$4,$5,0*
20,1,$1+$1,$4,$5,$6,$7,0*
20,1,$1+$1,$6,$7,$8,$9,0*
20,1,$1+$1,$8,$9,$2,$3,0*%
G04 Aperture macros list end*
%TA.AperFunction,ComponentPad*%
%ADD10R,1.700000X1.700000*%
%TD*%
%TA.AperFunction,ComponentPad*%
%ADD11C,1.700000*%
%TD*%
%TA.AperFunction,ComponentPad*%
%ADD12R,1.500000X1.500000*%
%TD*%
%TA.AperFunction,ComponentPad*%
%ADD13C,1.500000*%
%TD*%
%TA.AperFunction,ComponentPad*%
%ADD14C,1.600000*%
%TD*%
%TA.AperFunction,ComponentPad*%
%ADD15R,1.462000X1.462000*%
%TD*%
%TA.AperFunction,ComponentPad*%
%ADD16C,1.462000*%
%TD*%
%TA.AperFunction,ComponentPad*%
%ADD17RoundRect,0.250000X-0.550000X0.550000X-0.550000X-0.550000X0.550000X-0.550000X0.550000X0.550000X0*%
%TD*%
%TA.AperFunction,ComponentPad*%
%ADD18C,1.400000*%
%TD*%
%TA.AperFunction,ComponentPad*%
%ADD19RoundRect,0.770000X-0.980000X0.980000X-0.980000X-0.980000X0.980000X-0.980000X0.980000X0.980000X0*%
%TD*%
%TA.AperFunction,ComponentPad*%
%ADD20C,3.500000*%
%TD*%
%TA.AperFunction,ViaPad*%
%ADD21C,0.600000*%
%TD*%
%TA.AperFunction,Conductor*%
%ADD22C,1.500000*%
%TD*%
%TA.AperFunction,Conductor*%
%ADD23C,1.000000*%
%TD*%
%TA.AperFunction,Conductor*%
%ADD24C,2.000000*%
%TD*%
G04 APERTURE END LIST*
D10*
%TO.P,J5,1,Pin_1*%
%TO.N,/GP27*%
X82615000Y-77460000D03*
D11*
%TO.P,J5,2,Pin_2*%
%TO.N,+BATT*%
X82615000Y-80000000D03*
%TO.P,J5,3,Pin_3*%
%TO.N,GND*%
X82615000Y-82540000D03*
%TD*%
D10*
%TO.P,J4,1,Pin_1*%
%TO.N,unconnected-(J4-Pin_1-Pad1)*%
X81280000Y-93980000D03*
D11*
%TO.P,J4,2,Pin_2*%
%TO.N,GND*%
X81280000Y-96520000D03*
%TO.P,J4,3,Pin_3*%
%TO.N,unconnected-(J4-Pin_3-Pad3)*%
X81280000Y-99060000D03*
%TO.P,J4,4,Pin_4*%
%TO.N,unconnected-(J4-Pin_4-Pad4)*%
X81280000Y-101600000D03*
%TD*%
D12*
%TO.P,Q1,1,S*%
%TO.N,/VSYS*%
X62230000Y-69490000D03*
D13*
%TO.P,Q1,2,D*%
%TO.N,+3.3V*%
X59690000Y-69490000D03*
%TO.P,Q1,3,G*%
%TO.N,/VBUS*%
X57150000Y-69490000D03*
%TD*%
D14*
%TO.P,R1,1*%
%TO.N,/SDA*%
X77470000Y-101600000D03*
%TO.P,R1,2*%
%TO.N,+3V3*%
X77470000Y-93980000D03*
%TD*%
%TO.P,R3,1*%
%TO.N,+3V3*%
X73660000Y-83820000D03*
%TO.P,R3,2*%
%TO.N,/GP27*%
X73660000Y-76200000D03*
%TD*%
D10*
%TO.P,J1,1,Pin_1*%
%TO.N,unconnected-(J1-Pin_1-Pad1)*%
X50800000Y-53340000D03*
D11*
%TO.P,J1,2,Pin_2*%
%TO.N,unconnected-(J1-Pin_2-Pad2)*%
X50800000Y-55880000D03*
%TO.P,J1,3,Pin_3*%
%TO.N,GND*%
X50800000Y-58420000D03*
%TO.P,J1,4,Pin_4*%
%TO.N,unconnected-(J1-Pin_4-Pad4)*%
X50800000Y-60960000D03*
%TO.P,J1,5,Pin_5*%
%TO.N,unconnected-(J1-Pin_5-Pad5)*%
X50800000Y-63500000D03*
%TO.P,J1,6,Pin_6*%
%TO.N,unconnected-(J1-Pin_6-Pad6)*%
X50800000Y-66040000D03*
%TO.P,J1,7,Pin_7*%
%TO.N,unconnected-(J1-Pin_7-Pad7)*%
X50800000Y-68580000D03*
%TO.P,J1,8,Pin_8*%
%TO.N,GND*%
X50800000Y-71120000D03*
%TO.P,J1,9,Pin_9*%
%TO.N,unconnected-(J1-Pin_9-Pad9)*%
X50800000Y-73660000D03*
%TO.P,J1,10,Pin_10*%
%TO.N,unconnected-(J1-Pin_10-Pad10)*%
X50800000Y-76200000D03*
%TO.P,J1,11,Pin_11*%
%TO.N,unconnected-(J1-Pin_11-Pad11)*%
X50800000Y-78740000D03*
%TO.P,J1,12,Pin_12*%
%TO.N,unconnected-(J1-Pin_12-Pad12)*%
X50800000Y-81280000D03*
%TO.P,J1,13,Pin_13*%
%TO.N,GND*%
X50800000Y-83820000D03*
%TO.P,J1,14,Pin_14*%
%TO.N,unconnected-(J1-Pin_14-Pad14)*%
X50800000Y-86360000D03*
%TO.P,J1,15,Pin_15*%
%TO.N,unconnected-(J1-Pin_15-Pad15)*%
X50800000Y-88900000D03*
%TO.P,J1,16,Pin_16*%
%TO.N,unconnected-(J1-Pin_16-Pad16)*%
X50800000Y-91440000D03*
%TO.P,J1,17,Pin_17*%
%TO.N,unconnected-(J1-Pin_17-Pad17)*%
X50800000Y-93980000D03*
%TO.P,J1,18,Pin_18*%
%TO.N,GND*%
X50800000Y-96520000D03*
%TO.P,J1,19,Pin_19*%
%TO.N,unconnected-(J1-Pin_19-Pad19)*%
X50800000Y-99060000D03*
%TO.P,J1,20,Pin_20*%
%TO.N,unconnected-(J1-Pin_20-Pad20)*%
X50800000Y-101600000D03*
%TD*%
D10*
%TO.P,J3,1,Pin_1*%
%TO.N,+3V3*%
X73660000Y-93980000D03*
D11*
%TO.P,J3,2,Pin_2*%
%TO.N,GND*%
X73660000Y-96520000D03*
%TO.P,J3,3,Pin_3*%
%TO.N,/SDA*%
X73660000Y-99060000D03*
%TO.P,J3,4,Pin_4*%
%TO.N,/SCL*%
X73660000Y-101600000D03*
%TD*%
D15*
%TO.P,PS1,1,+VIN*%
%TO.N,+BATT*%
X62230000Y-53975000D03*
D16*
%TO.P,PS1,2,GND*%
%TO.N,GND*%
X59690000Y-53975000D03*
%TO.P,PS1,3,+VOUT*%
%TO.N,+3.3V*%
X57150000Y-53975000D03*
%TD*%
D14*
%TO.P,C1,1*%
%TO.N,+3.3V*%
X57190000Y-63500000D03*
%TO.P,C1,2*%
%TO.N,GND*%
X62190000Y-63500000D03*
%TD*%
D10*
%TO.P,J2,1,Pin_1*%
%TO.N,/VBUS*%
X68580000Y-53340000D03*
D11*
%TO.P,J2,2,Pin_2*%
%TO.N,/VSYS*%
X68580000Y-55880000D03*
%TO.P,J2,3,Pin_3*%
%TO.N,GND*%
X68580000Y-58420000D03*
%TO.P,J2,4,Pin_4*%
%TO.N,unconnected-(J2-Pin_4-Pad4)*%
X68580000Y-60960000D03*
%TO.P,J2,5,Pin_5*%
%TO.N,+3V3*%
X68580000Y-63500000D03*
%TO.P,J2,6,Pin_6*%
%TO.N,unconnected-(J2-Pin_6-Pad6)*%
X68580000Y-66040000D03*
%TO.P,J2,7,Pin_7*%
%TO.N,unconnected-(J2-Pin_7-Pad7)*%
X68580000Y-68580000D03*
%TO.P,J2,8,Pin_8*%
%TO.N,GND*%
X68580000Y-71120000D03*
%TO.P,J2,9,Pin_9*%
%TO.N,/GP27*%
X68580000Y-73660000D03*
%TO.P,J2,10,Pin_10*%
%TO.N,unconnected-(J2-Pin_10-Pad10)*%
X68580000Y-76200000D03*
%TO.P,J2,11,Pin_11*%
%TO.N,unconnected-(J2-Pin_11-Pad11)*%
X68580000Y-78740000D03*
%TO.P,J2,12,Pin_12*%
%TO.N,unconnected-(J2-Pin_12-Pad12)*%
X68580000Y-81280000D03*
%TO.P,J2,13,Pin_13*%
%TO.N,GND*%
X68580000Y-83820000D03*
%TO.P,J2,14,Pin_14*%
%TO.N,unconnected-(J2-Pin_14-Pad14)*%
X68580000Y-86360000D03*
%TO.P,J2,15,Pin_15*%
%TO.N,unconnected-(J2-Pin_15-Pad15)*%
X68580000Y-88900000D03*
%TO.P,J2,16,Pin_16*%
%TO.N,unconnected-(J2-Pin_16-Pad16)*%
X68580000Y-91440000D03*
%TO.P,J2,17,Pin_17*%
%TO.N,unconnected-(J2-Pin_17-Pad17)*%
X68580000Y-93980000D03*
%TO.P,J2,18,Pin_18*%
%TO.N,GND*%
X68580000Y-96520000D03*
%TO.P,J2,19,Pin_19*%
%TO.N,/SCL*%
X68580000Y-99060000D03*
%TO.P,J2,20,Pin_20*%
%TO.N,/SDA*%
X68580000Y-101600000D03*
%TD*%
D17*
%TO.P,C2,1*%
%TO.N,+BATT*%
X76200000Y-49570000D03*
D14*
%TO.P,C2,2*%
%TO.N,GND*%
X76200000Y-52070000D03*
%TD*%
%TO.P,R2,1*%
%TO.N,/SCL*%
X85090000Y-101600000D03*
%TO.P,R2,2*%
%TO.N,+3V3*%
X85090000Y-93980000D03*
%TD*%
D18*
%TO.P,J6,*%
%TO.N,*%
X86500000Y-59270000D03*
X86500000Y-70270000D03*
D19*
%TO.P,J6,1,Pin_1*%
%TO.N,GND*%
X76500000Y-67270000D03*
D20*
%TO.P,J6,2,Pin_2*%
%TO.N,+BATT*%
X76500000Y-62270000D03*
%TD*%
D21*
%TO.N,GND*%
X66040000Y-91440000D03*
X76200000Y-55880000D03*
X66040000Y-45720000D03*
X60960000Y-86360000D03*
X55880000Y-45720000D03*
X60960000Y-101600000D03*
X76200000Y-91440000D03*
X81280000Y-106680000D03*
X76200000Y-106680000D03*
X81280000Y-86360000D03*
X60960000Y-76200000D03*
X60960000Y-45720000D03*
X76200000Y-81280000D03*
X71120000Y-55880000D03*
X60960000Y-81280000D03*
X66040000Y-81280000D03*
X86360000Y-55880000D03*
X60960000Y-91440000D03*
X86360000Y-50800000D03*
X86360000Y-86360000D03*
X66040000Y-76200000D03*
X55880000Y-91440000D03*
X71120000Y-106680000D03*
X55880000Y-96520000D03*
X76200000Y-45720000D03*
X66040000Y-96520000D03*
X86360000Y-91440000D03*
X66040000Y-106680000D03*
X76200000Y-86360000D03*
X55880000Y-101600000D03*
X55880000Y-106680000D03*
X55880000Y-86360000D03*
X71120000Y-45720000D03*
X60960000Y-96520000D03*
X66040000Y-101600000D03*
X55880000Y-81280000D03*
X55880000Y-76200000D03*
X66040000Y-86360000D03*
X81280000Y-45720000D03*
X60960000Y-106680000D03*
%TD*%
D22*
%TO.N,+3V3*%
X73660000Y-93980000D02*
X77470000Y-93980000D01*
X71909000Y-65626919D02*
X71909000Y-82069000D01*
X68580000Y-63500000D02*
X69782081Y-63500000D01*
X77470000Y-93980000D02*
X79271000Y-92179000D01*
X71909000Y-82069000D02*
X73660000Y-83820000D01*
X69782081Y-63500000D02*
X71909000Y-65626919D01*
X79271000Y-92179000D02*
X83289000Y-92179000D01*
X73660000Y-83820000D02*
X73660000Y-93980000D01*
X83289000Y-92179000D02*
X85090000Y-93980000D01*
D23*
%TO.N,/SCL*%
X75211000Y-103151000D02*
X83539000Y-103151000D01*
X68580000Y-99060000D02*
X71120000Y-99060000D01*
X83539000Y-103151000D02*
X85090000Y-101600000D01*
X71120000Y-99060000D02*
X73660000Y-101600000D01*
X73660000Y-101600000D02*
X75211000Y-103151000D01*
D22*
%TO.N,+3.3V*%
X57150000Y-53975000D02*
X57150000Y-66950000D01*
X57150000Y-66950000D02*
X59690000Y-69490000D01*
D24*
%TO.N,+BATT*%
X76200000Y-49570000D02*
X76529842Y-49570000D01*
X76529842Y-49570000D02*
X80010000Y-53050158D01*
X80010000Y-65780000D02*
X80010000Y-78994000D01*
X80047000Y-78994000D02*
X81053000Y-80000000D01*
X66635000Y-49570000D02*
X76200000Y-49570000D01*
X81053000Y-80000000D02*
X82615000Y-80000000D01*
X80010000Y-53050158D02*
X80010000Y-58760000D01*
X62230000Y-53975000D02*
X66635000Y-49570000D01*
X80010000Y-58760000D02*
X76500000Y-62270000D01*
X80010000Y-78994000D02*
X80047000Y-78994000D01*
X76500000Y-62270000D02*
X80010000Y-65780000D01*
D22*
%TO.N,/VSYS*%
X68072000Y-55880000D02*
X68580000Y-55880000D01*
X62230000Y-69490000D02*
X63941000Y-67779000D01*
X63941000Y-60011000D02*
X68072000Y-55880000D01*
X63941000Y-67779000D02*
X63941000Y-60011000D01*
%TD*%
%TA.AperFunction,Conductor*%
%TO.N,GND*%
G36*
X79848834Y-93472153D02*
G01*
X79904767Y-93514025D01*
X79929184Y-93579489D01*
X79929500Y-93588335D01*
X79929500Y-94877870D01*
X79929501Y-94877876D01*
X79935908Y-94937483D01*
X79986202Y-95072328D01*
X79986206Y-95072335D01*
X80072452Y-95187544D01*
X80072455Y-95187547D01*
X80187664Y-95273793D01*
X80187671Y-95273797D01*
X80205643Y-95280500D01*
X80322517Y-95324091D01*
X80382127Y-95330500D01*
X80392685Y-95330499D01*
X80459723Y-95350179D01*
X80480372Y-95366818D01*
X81150591Y-96037037D01*
X81087007Y-96054075D01*
X80972993Y-96119901D01*
X80879901Y-96212993D01*
X80814075Y-96327007D01*
X80797037Y-96390591D01*
X80164728Y-95758282D01*
X80164727Y-95758282D01*
X80125380Y-95812439D01*
X80028904Y-96001782D01*
X79963242Y-96203869D01*
X79963242Y-96203872D01*
X79930000Y-96413753D01*
X79930000Y-96626246D01*
X79963242Y-96836127D01*
X79963242Y-96836130D01*
X80028904Y-97038217D01*
X80125375Y-97227550D01*
X80164728Y-97281716D01*
X80797037Y-96649408D01*
X80814075Y-96712993D01*
X80879901Y-96827007D01*
X80972993Y-96920099D01*
X81087007Y-96985925D01*
X81150590Y-97002962D01*
X80518282Y-97635269D01*
X80518282Y-97635270D01*
X80572452Y-97674626D01*
X80572451Y-97674626D01*
X80581495Y-97679234D01*
X80632292Y-97727208D01*
X80649087Y-97795029D01*
X80626550Y-97861164D01*
X80581499Y-97900202D01*
X80572182Y-97904949D01*
X80400213Y-98029890D01*
X80249890Y-98180213D01*
X80124951Y-98352179D01*
X80028444Y-98541585D01*
X79962753Y-98743760D01*
X79929500Y-98953713D01*
X79929500Y-99166286D01*
X79962753Y-99376239D01*
X80028444Y-99578414D01*
X80124951Y-99767820D01*
X80249890Y-99939786D01*
X80400213Y-100090109D01*
X80572182Y-100215050D01*
X80580946Y-100219516D01*
X80631742Y-100267491D01*
X80648536Y-100335312D01*
X80625998Y-100401447D01*
X80580946Y-100440484D01*
X80572182Y-100444949D01*
X80400213Y-100569890D01*
X80249890Y-100720213D01*
X80124951Y-100892179D01*
X80028444Y-101081585D01*
X79962753Y-101283760D01*
X79960899Y-101295466D01*
X79929500Y-101493713D01*
X79929500Y-101706287D01*
X79962754Y-101916243D01*
X79986128Y-101988181D01*
X79986129Y-101988182D01*
X79988124Y-102058023D01*
X79952044Y-102117856D01*
X79889343Y-102148684D01*
X79868198Y-102150500D01*
X78829229Y-102150500D01*
X78762190Y-102130815D01*
X78716435Y-102078011D01*
X78706491Y-102008853D01*
X78711298Y-101988181D01*
X78734673Y-101916243D01*
X78738477Y-101904534D01*
X78770500Y-101702352D01*
X78770500Y-101497648D01*
X78738477Y-101295466D01*
X78734673Y-101283760D01*
X78675218Y-101100776D01*
X78641503Y-101034607D01*
X78582287Y-100918390D01*
X78574556Y-100907749D01*
X78461971Y-100752786D01*
X78317213Y-100608028D01*
X78151613Y-100487715D01*
X78151612Y-100487714D01*
X78151610Y-100487713D01*
X78067681Y-100444949D01*
X77969223Y-100394781D01*
X77774534Y-100331522D01*
X77599995Y-100303878D01*
X77572352Y-100299500D01*
X77367648Y-100299500D01*
X77343329Y-100303351D01*
X77165465Y-100331522D01*
X76970776Y-100394781D01*
X76788386Y-100487715D01*
X76622786Y-100608028D01*
X76478028Y-100752786D01*
X76357715Y-100918386D01*
X76264781Y-101100776D01*
X76201522Y-101295465D01*
X76169500Y-101497648D01*
X76169500Y-101702351D01*
X76201522Y-101904534D01*
X76228702Y-101988181D01*
X76230697Y-102058022D01*
X76194617Y-102117855D01*
X76131917Y-102148684D01*
X76110771Y-102150500D01*
X75676782Y-102150500D01*
X75609743Y-102130815D01*
X75589101Y-102114181D01*
X75046423Y-101571503D01*
X75012938Y-101510180D01*
X75010657Y-101494708D01*
X75010500Y-101493716D01*
X75010500Y-101493713D01*
X74977246Y-101283757D01*
X74911557Y-101081588D01*
X74815051Y-100892184D01*
X74815049Y-100892181D01*
X74815048Y-100892179D01*
X74690109Y-100720213D01*
X74539786Y-100569890D01*
X74367820Y-100444951D01*
X74367115Y-100444591D01*
X74359054Y-100440485D01*
X74308259Y-100392512D01*
X74291463Y-100324692D01*
X74313999Y-100258556D01*
X74359054Y-100219515D01*
X74367816Y-100215051D01*
X74530550Y-100096819D01*
X74539786Y-100090109D01*
X74539788Y-100090106D01*
X74539792Y-100090104D01*
X74690104Y-99939792D01*
X74690106Y-99939788D01*
X74690109Y-99939786D01*
X74815048Y-99767820D01*
X74815047Y-99767820D01*
X74815051Y-99767816D01*
X74911557Y-99578412D01*
X74977246Y-99376243D01*
X75010500Y-99166287D01*
X75010500Y-98953713D01*
X74977246Y-98743757D01*
X74911557Y-98541588D01*
X74815051Y-98352184D01*
X74815049Y-98352181D01*
X74815048Y-98352179D01*
X74690109Y-98180213D01*
X74539786Y-98029890D01*
X74367817Y-97904949D01*
X74358504Y-97900204D01*
X74307707Y-97852230D01*
X74290912Y-97784409D01*
X74313449Y-97718274D01*
X74358507Y-97679232D01*
X74367555Y-97674622D01*
X74421716Y-97635270D01*
X74421717Y-97635270D01*
X73789408Y-97002962D01*
X73852993Y-96985925D01*
X73967007Y-96920099D01*
X74060099Y-96827007D01*
X74125925Y-96712993D01*
X74142962Y-96649408D01*
X74775270Y-97281717D01*
X74775270Y-97281716D01*
X74814622Y-97227554D01*
X74911095Y-97038217D01*
X74976757Y-96836130D01*
X74976757Y-96836127D01*
X75010000Y-96626246D01*
X75010000Y-96413753D01*
X74976757Y-96203872D01*
X74976757Y-96203869D01*
X74911095Y-96001782D01*
X74814624Y-95812449D01*
X74775270Y-95758282D01*
X74775269Y-95758282D01*
X74142962Y-96390590D01*
X74125925Y-96327007D01*
X74060099Y-96212993D01*
X73967007Y-96119901D01*
X73852993Y-96054075D01*
X73789409Y-96037037D01*
X74459627Y-95366818D01*
X74520950Y-95333333D01*
X74547307Y-95330499D01*
X74557872Y-95330499D01*
X74617483Y-95324091D01*
X74752331Y-95273796D01*
X74777128Y-95255233D01*
X74842592Y-95230816D01*
X74851439Y-95230500D01*
X77090498Y-95230500D01*
X77128816Y-95236569D01*
X77142260Y-95240937D01*
X77165466Y-95248477D01*
X77367648Y-95280500D01*
X77367649Y-95280500D01*
X77572351Y-95280500D01*
X77572352Y-95280500D01*
X77774534Y-95248477D01*
X77969219Y-95185220D01*
X78151610Y-95092287D01*
X78264726Y-95010104D01*
X78317213Y-94971971D01*
X78317215Y-94971968D01*
X78317219Y-94971966D01*
X78461966Y-94827219D01*
X78582287Y-94661610D01*
X78599783Y-94627272D01*
X78622582Y-94595890D01*
X79717821Y-93500652D01*
X79779142Y-93467169D01*
X79848834Y-93472153D01*
G37*
%TD.AperFunction*%
%TA.AperFunction,Conductor*%
G36*
X70059346Y-65558615D02*
G01*
X70098762Y-65585155D01*
X70622181Y-66108574D01*
X70655666Y-66169897D01*
X70658500Y-66196255D01*
X70658500Y-82167422D01*
X70689290Y-82361826D01*
X70750117Y-82549030D01*
X70829450Y-82704728D01*
X70839476Y-82724405D01*
X70955172Y-82883646D01*
X70955174Y-82883648D01*
X72373181Y-84301655D01*
X72406666Y-84362978D01*
X72409500Y-84389336D01*
X72409500Y-92788561D01*
X72389815Y-92855600D01*
X72384767Y-92862872D01*
X72366204Y-92887668D01*
X72366202Y-92887671D01*
X72315908Y-93022517D01*
X72309501Y-93082116D01*
X72309500Y-93082135D01*
X72309500Y-94877870D01*
X72309501Y-94877876D01*
X72315908Y-94937483D01*
X72366202Y-95072328D01*
X72366206Y-95072335D01*
X72452452Y-95187544D01*
X72452455Y-95187547D01*
X72567664Y-95273793D01*
X72567671Y-95273797D01*
X72585643Y-95280500D01*
X72702517Y-95324091D01*
X72762127Y-95330500D01*
X72772685Y-95330499D01*
X72839723Y-95350179D01*
X72860372Y-95366818D01*
X73530591Y-96037037D01*
X73467007Y-96054075D01*
X73352993Y-96119901D01*
X73259901Y-96212993D01*
X73194075Y-96327007D01*
X73177037Y-96390591D01*
X72544728Y-95758282D01*
X72544727Y-95758282D01*
X72505380Y-95812439D01*
X72408904Y-96001782D01*
X72343242Y-96203869D01*
X72343242Y-96203872D01*
X72310000Y-96413753D01*
X72310000Y-96626246D01*
X72343242Y-96836127D01*
X72343242Y-96836130D01*
X72408904Y-97038217D01*
X72505375Y-97227550D01*
X72544728Y-97281716D01*
X73177037Y-96649408D01*
X73194075Y-96712993D01*
X73259901Y-96827007D01*
X73352993Y-96920099D01*
X73467007Y-96985925D01*
X73530590Y-97002962D01*
X72898282Y-97635269D01*
X72898282Y-97635270D01*
X72952452Y-97674626D01*
X72952451Y-97674626D01*
X72961495Y-97679234D01*
X73012292Y-97727208D01*
X73029087Y-97795029D01*
X73006550Y-97861164D01*
X72961499Y-97900202D01*
X72952182Y-97904949D01*
X72780213Y-98029890D01*
X72629890Y-98180213D01*
X72504951Y-98352179D01*
X72408444Y-98541583D01*
X72374855Y-98644960D01*
X72335417Y-98702635D01*
X72271058Y-98729833D01*
X72202212Y-98717918D01*
X72169243Y-98694322D01*
X71904209Y-98429289D01*
X71904206Y-98429285D01*
X71904206Y-98429286D01*
X71897139Y-98422219D01*
X71897139Y-98422218D01*
X71757782Y-98282861D01*
X71757781Y-98282860D01*
X71757780Y-98282859D01*
X71593920Y-98173371D01*
X71593911Y-98173366D01*
X71521315Y-98143296D01*
X71465165Y-98120038D01*
X71411836Y-98097949D01*
X71411832Y-98097948D01*
X71411828Y-98097946D01*
X71315188Y-98078724D01*
X71218544Y-98059500D01*
X71218541Y-98059500D01*
X69540200Y-98059500D01*
X69473161Y-98039815D01*
X69460634Y-98030506D01*
X69287817Y-97904949D01*
X69278504Y-97900204D01*
X69227707Y-97852230D01*
X69210912Y-97784409D01*
X69233449Y-97718274D01*
X69278507Y-97679232D01*
X69287555Y-97674622D01*
X69341716Y-97635270D01*
X69341717Y-97635270D01*
X68709408Y-97002962D01*
X68772993Y-96985925D01*
X68887007Y-96920099D01*
X68980099Y-96827007D01*
X69045925Y-96712993D01*
X69062962Y-96649408D01*
X69695270Y-97281717D01*
X69695270Y-97281716D01*
X69734622Y-97227554D01*
X69831095Y-97038217D01*
X69896757Y-96836130D01*
X69896757Y-96836127D01*
X69930000Y-96626246D01*
X69930000Y-96413753D01*
X69896757Y-96203872D01*
X69896757Y-96203869D01*
X69831095Y-96001782D01*
X69734624Y-95812449D01*
X69695270Y-95758282D01*
X69695269Y-95758282D01*
X69062962Y-96390590D01*
X69045925Y-96327007D01*
X68980099Y-96212993D01*
X68887007Y-96119901D01*
X68772993Y-96054075D01*
X68709409Y-96037037D01*
X69341716Y-95404728D01*
X69287547Y-95365373D01*
X69287547Y-95365372D01*
X69278500Y-95360763D01*
X69227706Y-95312788D01*
X69210912Y-95244966D01*
X69233451Y-95178832D01*
X69278508Y-95139793D01*
X69287816Y-95135051D01*
X69374147Y-95072328D01*
X69459786Y-95010109D01*
X69459788Y-95010106D01*
X69459792Y-95010104D01*
X69610104Y-94859792D01*
X69610106Y-94859788D01*
X69610109Y-94859786D01*
X69735048Y-94687820D01*
X69735047Y-94687820D01*
X69735051Y-94687816D01*
X69831557Y-94498412D01*
X69897246Y-94296243D01*
X69930500Y-94086287D01*
X69930500Y-93873713D01*
X69897246Y-93663757D01*
X69831557Y-93461588D01*
X69735051Y-93272184D01*
X69735049Y-93272181D01*
X69735048Y-93272179D01*
X69610109Y-93100213D01*
X69459786Y-92949890D01*
X69287820Y-92824951D01*
X69287115Y-92824591D01*
X69279054Y-92820485D01*
X69228259Y-92772512D01*
X69211463Y-92704692D01*
X69233999Y-92638556D01*
X69279054Y-92599515D01*
X69287816Y-92595051D01*
X69309789Y-92579086D01*
X69459786Y-92470109D01*
X69459788Y-92470106D01*
X69459792Y-92470104D01*
X69610104Y-92319792D01*
X69610106Y-92319788D01*
X69610109Y-92319786D01*
X69735048Y-92147820D01*
X69735047Y-92147820D01*
X69735051Y-92147816D01*
X69831557Y-91958412D01*
X69897246Y-91756243D01*
X69930500Y-91546287D01*
X69930500Y-91333713D01*
X69897246Y-91123757D01*
X69831557Y-90921588D01*
X69735051Y-90732184D01*
X69735049Y-90732181D01*
X69735048Y-90732179D01*
X69610109Y-90560213D01*
X69459786Y-90409890D01*
X69287820Y-90284951D01*
X69287115Y-90284591D01*
X69279054Y-90280485D01*
X69228259Y-90232512D01*
X69211463Y-90164692D01*
X69233999Y-90098556D01*
X69279054Y-90059515D01*
X69287816Y-90055051D01*
X69309789Y-90039086D01*
X69459786Y-89930109D01*
X69459788Y-89930106D01*
X69459792Y-89930104D01*
X69610104Y-89779792D01*
X69610106Y-89779788D01*
X69610109Y-89779786D01*
X69735048Y-89607820D01*
X69735047Y-89607820D01*
X69735051Y-89607816D01*
X69831557Y-89418412D01*
X69897246Y-89216243D01*
X69930500Y-89006287D01*
X69930500Y-88793713D01*
X69897246Y-88583757D01*
X69831557Y-88381588D01*
X69735051Y-88192184D01*
X69735049Y-88192181D01*
X69735048Y-88192179D01*
X69610109Y-88020213D01*
X69459786Y-87869890D01*
X69287820Y-87744951D01*
X69287115Y-87744591D01*
X69279054Y-87740485D01*
X69228259Y-87692512D01*
X69211463Y-87624692D01*
X69233999Y-87558556D01*
X69279054Y-87519515D01*
X69287816Y-87515051D01*
X69309789Y-87499086D01*
X69459786Y-87390109D01*
X69459788Y-87390106D01*
X69459792Y-87390104D01*
X69610104Y-87239792D01*
X69610106Y-87239788D01*
X69610109Y-87239786D01*
X69735048Y-87067820D01*
X69735047Y-87067820D01*
X69735051Y-87067816D01*
X69831557Y-86878412D01*
X69897246Y-86676243D01*
X69930500Y-86466287D01*
X69930500Y-86253713D01*
X69897246Y-86043757D01*
X69831557Y-85841588D01*
X69735051Y-85652184D01*
X69735049Y-85652181D01*
X69735048Y-85652179D01*
X69610109Y-85480213D01*
X69459786Y-85329890D01*
X69287817Y-85204949D01*
X69278504Y-85200204D01*
X69227707Y-85152230D01*
X69210912Y-85084409D01*
X69233449Y-85018274D01*
X69278507Y-84979232D01*
X69287555Y-84974622D01*
X69341716Y-84935270D01*
X69341717Y-84935270D01*
X68709408Y-84302962D01*
X68772993Y-84285925D01*
X68887007Y-84220099D01*
X68980099Y-84127007D01*
X69045925Y-84012993D01*
X69062962Y-83949408D01*
X69695270Y-84581717D01*
X69695270Y-84581716D01*
X69734622Y-84527554D01*
X69831095Y-84338217D01*
X69896757Y-84136130D01*
X69896757Y-84136127D01*
X69930000Y-83926246D01*
X69930000Y-83713753D01*
X69896757Y-83503872D01*
X69896757Y-83503869D01*
X69831095Y-83301782D01*
X69734624Y-83112449D01*
X69695270Y-83058282D01*
X69695269Y-83058282D01*
X69062962Y-83690590D01*
X69045925Y-83627007D01*
X68980099Y-83512993D01*
X68887007Y-83419901D01*
X68772993Y-83354075D01*
X68709409Y-83337037D01*
X69341716Y-82704728D01*
X69287547Y-82665373D01*
X69287547Y-82665372D01*
X69278500Y-82660763D01*
X69227706Y-82612788D01*
X69210912Y-82544966D01*
X69233451Y-82478832D01*
X69278508Y-82439793D01*
X69287816Y-82435051D01*
X69367007Y-82377515D01*
X69459786Y-82310109D01*
X69459788Y-82310106D01*
X69459792Y-82310104D01*
X69610104Y-82159792D01*
X69610106Y-82159788D01*
X69610109Y-82159786D01*
X69735048Y-81987820D01*
X69735047Y-81987820D01*
X69735051Y-81987816D01*
X69831557Y-81798412D01*
X69897246Y-81596243D01*
X69930500Y-81386287D01*
X69930500Y-81173713D01*
X69897246Y-80963757D01*
X69831557Y-80761588D01*
X69735051Y-80572184D01*
X69735049Y-80572181D01*
X69735048Y-80572179D01*
X69610109Y-80400213D01*
X69459786Y-80249890D01*
X69287820Y-80124951D01*
X69287115Y-80124591D01*
X69279054Y-80120485D01*
X69228259Y-80072512D01*
X69211463Y-80004692D01*
X69233999Y-79938556D01*
X69279054Y-79899515D01*
X69287816Y-79895051D01*
X69309789Y-79879086D01*
X69459786Y-79770109D01*
X69459788Y-79770106D01*
X69459792Y-79770104D01*
X69610104Y-79619792D01*
X69610106Y-79619788D01*
X69610109Y-79619786D01*
X69735048Y-79447820D01*
X69735047Y-79447820D01*
X69735051Y-79447816D01*
X69831557Y-79258412D01*
X69897246Y-79056243D01*
X69930500Y-78846287D01*
X69930500Y-78633713D01*
X69897246Y-78423757D01*
X69831557Y-78221588D01*
X69735051Y-78032184D01*
X69735049Y-78032181D01*
X69735048Y-78032179D01*
X69610109Y-77860213D01*
X69459786Y-77709890D01*
X69287820Y-77584951D01*
X69287115Y-77584591D01*
X69279054Y-77580485D01*
X69228259Y-77532512D01*
X69211463Y-77464692D01*
X69233999Y-77398556D01*
X69279054Y-77359515D01*
X69287816Y-77355051D01*
X69346680Y-77312284D01*
X69459786Y-77230109D01*
X69459788Y-77230106D01*
X69459792Y-77230104D01*
X69610104Y-77079792D01*
X69610106Y-77079788D01*
X69610109Y-77079786D01*
X69735048Y-76907820D01*
X69735047Y-76907820D01*
X69735051Y-76907816D01*
X69831557Y-76718412D01*
X69897246Y-76516243D01*
X69930500Y-76306287D01*
X69930500Y-76093713D01*
X69897246Y-75883757D01*
X69831557Y-75681588D01*
X69735051Y-75492184D01*
X69735049Y-75492181D01*
X69735048Y-75492179D01*
X69610109Y-75320213D01*
X69459786Y-75169890D01*
X69287820Y-75044951D01*
X69287115Y-75044591D01*
X69279054Y-75040485D01*
X69228259Y-74992512D01*
X69211463Y-74924692D01*
X69233999Y-74858556D01*
X69279054Y-74819515D01*
X69287816Y-74815051D01*
X69309789Y-74799086D01*
X69459786Y-74690109D01*
X69459788Y-74690106D01*
X69459792Y-74690104D01*
X69610104Y-74539792D01*
X69610106Y-74539788D01*
X69610109Y-74539786D01*
X69735048Y-74367820D01*
X69735047Y-74367820D01*
X69735051Y-74367816D01*
X69831557Y-74178412D01*
X69897246Y-73976243D01*
X69930500Y-73766287D01*
X69930500Y-73553713D01*
X69897246Y-73343757D01*
X69831557Y-73141588D01*
X69735051Y-72952184D01*
X69735049Y-72952181D01*
X69735048Y-72952179D01*
X69610109Y-72780213D01*
X69459786Y-72629890D01*
X69287817Y-72504949D01*
X69278504Y-72500204D01*
X69227707Y-72452230D01*
X69210912Y-72384409D01*
X69233449Y-72318274D01*
X69278507Y-72279232D01*
X69287555Y-72274622D01*
X69341716Y-72235270D01*
X69341717Y-72235270D01*
X68709408Y-71602962D01*
X68772993Y-71585925D01*
X68887007Y-71520099D01*
X68980099Y-71427007D01*
X69045925Y-71312993D01*
X69062962Y-71249408D01*
X69695270Y-71881717D01*
X69695270Y-71881716D01*
X69734622Y-71827554D01*
X69831095Y-71638217D01*
X69896757Y-71436130D01*
X69896757Y-71436127D01*
X69930000Y-71226246D01*
X69930000Y-71013753D01*
X69896757Y-70803872D01*
X69896757Y-70803869D01*
X69831095Y-70601782D01*
X69734624Y-70412449D01*
X69695270Y-70358282D01*
X69695269Y-70358282D01*
X69062962Y-70990590D01*
X69045925Y-70927007D01*
X68980099Y-70812993D01*
X68887007Y-70719901D01*
X68772993Y-70654075D01*
X68709409Y-70637037D01*
X69341716Y-70004728D01*
X69287547Y-69965373D01*
X69287547Y-69965372D01*
X69278500Y-69960763D01*
X69227706Y-69912788D01*
X69210912Y-69844966D01*
X69233451Y-69778832D01*
X69278508Y-69739793D01*
X69287816Y-69735051D01*
X69417541Y-69640801D01*
X69459786Y-69610109D01*
X69459788Y-69610106D01*
X69459792Y-69610104D01*
X69610104Y-69459792D01*
X69610106Y-69459788D01*
X69610109Y-69459786D01*
X69735048Y-69287820D01*
X69735047Y-69287820D01*
X69735051Y-69287816D01*
X69831557Y-69098412D01*
X69897246Y-68896243D01*
X69930500Y-68686287D01*
X69930500Y-68473713D01*
X69897246Y-68263757D01*
X69831557Y-68061588D01*
X69735051Y-67872184D01*
X69735049Y-67872181D01*
X69735048Y-67872179D01*
X69610109Y-67700213D01*
X69459786Y-67549890D01*
X69287820Y-67424951D01*
X69287115Y-67424591D01*
X69279054Y-67420485D01*
X69228259Y-67372512D01*
X69211463Y-67304692D01*
X69233999Y-67238556D01*
X69279054Y-67199515D01*
X69287816Y-67195051D01*
X69313442Y-67176433D01*
X69459786Y-67070109D01*
X69459788Y-67070106D01*
X69459792Y-67070104D01*
X69610104Y-66919792D01*
X69610106Y-66919788D01*
X69610109Y-66919786D01*
X69735048Y-66747820D01*
X69735047Y-66747820D01*
X69735051Y-66747816D01*
X69831557Y-66558412D01*
X69897246Y-66356243D01*
X69930500Y-66146287D01*
X69930500Y-65933713D01*
X69897246Y-65723757D01*
X69893150Y-65711153D01*
X69891154Y-65641317D01*
X69927232Y-65581483D01*
X69989932Y-65550653D01*
X70059346Y-65558615D01*
G37*
%TD.AperFunction*%
%TA.AperFunction,Conductor*%
G36*
X86003032Y-43000648D02*
G01*
X86336929Y-43017052D01*
X86349037Y-43018245D01*
X86452146Y-43033539D01*
X86676699Y-43066849D01*
X86688617Y-43069219D01*
X87009951Y-43149709D01*
X87021588Y-43153240D01*
X87092806Y-43178722D01*
X87333467Y-43264832D01*
X87344688Y-43269479D01*
X87644163Y-43411120D01*
X87654871Y-43416844D01*
X87938988Y-43587137D01*
X87949106Y-43593897D01*
X88215170Y-43791224D01*
X88224576Y-43798944D01*
X88470013Y-44021395D01*
X88478604Y-44029986D01*
X88665755Y-44236475D01*
X88701055Y-44275423D01*
X88708775Y-44284829D01*
X88906102Y-44550893D01*
X88912862Y-44561011D01*
X89078149Y-44836777D01*
X89083148Y-44845116D01*
X89088883Y-44855844D01*
X89137229Y-44958064D01*
X89230514Y-45155297D01*
X89235170Y-45166540D01*
X89346759Y-45478411D01*
X89350292Y-45490055D01*
X89430777Y-45811369D01*
X89433151Y-45823305D01*
X89481754Y-46150962D01*
X89482947Y-46163071D01*
X89499351Y-46496966D01*
X89499500Y-46503051D01*
X89499500Y-108496948D01*
X89499351Y-108503033D01*
X89482947Y-108836928D01*
X89481754Y-108849037D01*
X89433151Y-109176694D01*
X89430777Y-109188630D01*
X89350292Y-109509944D01*
X89346759Y-109521588D01*
X89235170Y-109833459D01*
X89230514Y-109844702D01*
X89088885Y-110144151D01*
X89083148Y-110154883D01*
X88912862Y-110438988D01*
X88906102Y-110449106D01*
X88708775Y-110715170D01*
X88701055Y-110724576D01*
X88478611Y-110970006D01*
X88470006Y-110978611D01*
X88224576Y-111201055D01*
X88215170Y-111208775D01*
X87949106Y-111406102D01*
X87938988Y-111412862D01*
X87654883Y-111583148D01*
X87644151Y-111588885D01*
X87344702Y-111730514D01*
X87333459Y-111735170D01*
X87021588Y-111846759D01*
X87009944Y-111850292D01*
X86688630Y-111930777D01*
X86676694Y-111933151D01*
X86349037Y-111981754D01*
X86336928Y-111982947D01*
X86021989Y-111998419D01*
X86003031Y-111999351D01*
X85996949Y-111999500D01*
X51503051Y-111999500D01*
X51496968Y-111999351D01*
X51476900Y-111998365D01*
X51163071Y-111982947D01*
X51150962Y-111981754D01*
X50823305Y-111933151D01*
X50811369Y-111930777D01*
X50490055Y-111850292D01*
X50478411Y-111846759D01*
X50166540Y-111735170D01*
X50155301Y-111730515D01*
X49855844Y-111588883D01*
X49845121Y-111583150D01*
X49561011Y-111412862D01*
X49550893Y-111406102D01*
X49284829Y-111208775D01*
X49275423Y-111201055D01*
X49236475Y-111165755D01*
X49029986Y-110978604D01*
X49021395Y-110970013D01*
X48798944Y-110724576D01*
X48791224Y-110715170D01*
X48593897Y-110449106D01*
X48587137Y-110438988D01*
X48416844Y-110154871D01*
X48411120Y-110144163D01*
X48269479Y-109844688D01*
X48264829Y-109833459D01*
X48225212Y-109722738D01*
X48192902Y-109632438D01*
X48153240Y-109521588D01*
X48149707Y-109509944D01*
X48140958Y-109475015D01*
X48069219Y-109188617D01*
X48066848Y-109176694D01*
X48018245Y-108849037D01*
X48017052Y-108836927D01*
X48000649Y-108503032D01*
X48000500Y-108496948D01*
X48000500Y-108378711D01*
X49649500Y-108378711D01*
X49649500Y-108621288D01*
X49681161Y-108861785D01*
X49743947Y-109096104D01*
X49782273Y-109188630D01*
X49836776Y-109320212D01*
X49958064Y-109530289D01*
X49958066Y-109530292D01*
X49958067Y-109530293D01*
X50105733Y-109722736D01*
X50105739Y-109722743D01*
X50277256Y-109894260D01*
X50277262Y-109894265D01*
X50469711Y-110041936D01*
X50679788Y-110163224D01*
X50903900Y-110256054D01*
X51138211Y-110318838D01*
X51318586Y-110342584D01*
X51378711Y-110350500D01*
X51378712Y-110350500D01*
X51621289Y-110350500D01*
X51669388Y-110344167D01*
X51861789Y-110318838D01*
X52096100Y-110256054D01*
X52320212Y-110163224D01*
X52530289Y-110041936D01*
X52722738Y-109894265D01*
X52894265Y-109722738D01*
X53041936Y-109530289D01*
X53163224Y-109320212D01*
X53256054Y-109096100D01*
X53318838Y-108861789D01*
X53350500Y-108621288D01*
X53350500Y-108378712D01*
X53350500Y-108378711D01*
X84149500Y-108378711D01*
X84149500Y-108621288D01*
X84181161Y-108861785D01*
X84243947Y-109096104D01*
X84282273Y-109188630D01*
X84336776Y-109320212D01*
X84458064Y-109530289D01*
X84458066Y-109530292D01*
X84458067Y-109530293D01*
X84605733Y-109722736D01*
X84605739Y-109722743D01*
X84777256Y-109894260D01*
X84777262Y-109894265D01*
X84969711Y-110041936D01*
X85179788Y-110163224D01*
X85403900Y-110256054D01*
X85638211Y-110318838D01*
X85818586Y-110342584D01*
X85878711Y-110350500D01*
X85878712Y-110350500D01*
X86121289Y-110350500D01*
X86169388Y-110344167D01*
X86361789Y-110318838D01*
X86596100Y-110256054D01*
X86820212Y-110163224D01*
X87030289Y-110041936D01*
X87222738Y-109894265D01*
X87394265Y-109722738D01*
X87541936Y-109530289D01*
X87663224Y-109320212D01*
X87756054Y-109096100D01*
X87818838Y-108861789D01*
X87850500Y-108621288D01*
X87850500Y-108378712D01*
X87818838Y-108138211D01*
X87756054Y-107903900D01*
X87663224Y-107679788D01*
X87541936Y-107469711D01*
X87394265Y-107277262D01*
X87394260Y-107277256D01*
X87222743Y-107105739D01*
X87222736Y-107105733D01*
X87030293Y-106958067D01*
X87030292Y-106958066D01*
X87030289Y-106958064D01*
X86820212Y-106836776D01*
X86820205Y-106836773D01*
X86596104Y-106743947D01*
X86361785Y-106681161D01*
X86121289Y-106649500D01*
X86121288Y-106649500D01*
X85878712Y-106649500D01*
X85878711Y-106649500D01*
X85638214Y-106681161D01*
X85403895Y-106743947D01*
X85179794Y-106836773D01*
X85179785Y-106836777D01*
X84969706Y-106958067D01*
X84777263Y-107105733D01*
X84777256Y-107105739D01*
X84605739Y-107277256D01*
X84605733Y-107277263D01*
X84458067Y-107469706D01*
X84336777Y-107679785D01*
X84336773Y-107679794D01*
X84243947Y-107903895D01*
X84181161Y-108138214D01*
X84149500Y-108378711D01*
X53350500Y-108378711D01*
X53318838Y-108138211D01*
X53256054Y-107903900D01*
X53163224Y-107679788D01*
X53041936Y-107469711D01*
X52894265Y-107277262D01*
X52894260Y-107277256D01*
X52722743Y-107105739D01*
X52722736Y-107105733D01*
X52530293Y-106958067D01*
X52530292Y-106958066D01*
X52530289Y-106958064D01*
X52320212Y-106836776D01*
X52320205Y-106836773D01*
X52096104Y-106743947D01*
X51861785Y-106681161D01*
X51621289Y-106649500D01*
X51621288Y-106649500D01*
X51378712Y-106649500D01*
X51378711Y-106649500D01*
X51138214Y-106681161D01*
X50903895Y-106743947D01*
X50679794Y-106836773D01*
X50679785Y-106836777D01*
X50469706Y-106958067D01*
X50277263Y-107105733D01*
X50277256Y-107105739D01*
X50105739Y-107277256D01*
X50105733Y-107277263D01*
X49958067Y-107469706D01*
X49836777Y-107679785D01*
X49836773Y-107679794D01*
X49743947Y-107903895D01*
X49681161Y-108138214D01*
X49649500Y-108378711D01*
X48000500Y-108378711D01*
X48000500Y-52442135D01*
X49449500Y-52442135D01*
X49449500Y-54237870D01*
X49449501Y-54237876D01*
X49455908Y-54297483D01*
X49506202Y-54432328D01*
X49506206Y-54432335D01*
X49592452Y-54547544D01*
X49592455Y-54547547D01*
X49707664Y-54633793D01*
X49707671Y-54633797D01*
X49839082Y-54682810D01*
X49895016Y-54724681D01*
X49919433Y-54790145D01*
X49904582Y-54858418D01*
X49883431Y-54886673D01*
X49769889Y-55000215D01*
X49644951Y-55172179D01*
X49548444Y-55361585D01*
X49482753Y-55563760D01*
X49449500Y-55773713D01*
X49449500Y-55986286D01*
X49482753Y-56196239D01*
X49548444Y-56398414D01*
X49644951Y-56587820D01*
X49769890Y-56759786D01*
X49920213Y-56910109D01*
X50092179Y-57035048D01*
X50092181Y-57035049D01*
X50092184Y-57035051D01*
X50101493Y-57039794D01*
X50152290Y-57087766D01*
X50169087Y-57155587D01*
X50146552Y-57221722D01*
X50101505Y-57260760D01*
X50092446Y-57265376D01*
X50092440Y-57265380D01*
X50038282Y-57304727D01*
X50038282Y-57304728D01*
X50670591Y-57937037D01*
X50607007Y-57954075D01*
X50492993Y-58019901D01*
X50399901Y-58112993D01*
X50334075Y-58227007D01*
X50317037Y-58290591D01*
X49684728Y-57658282D01*
X49684727Y-57658282D01*
X49645380Y-57712439D01*
X49548904Y-57901782D01*
X49483242Y-58103869D01*
X49483242Y-58103872D01*
X49450000Y-58313753D01*
X49450000Y-58526246D01*
X49483242Y-58736127D01*
X49483242Y-58736130D01*
X49548904Y-58938217D01*
X49645375Y-59127550D01*
X49684728Y-59181716D01*
X50317037Y-58549408D01*
X50334075Y-58612993D01*
X50399901Y-58727007D01*
X50492993Y-58820099D01*
X50607007Y-58885925D01*
X50670590Y-58902962D01*
X50038282Y-59535269D01*
X50038282Y-59535270D01*
X50092452Y-59574626D01*
X50092451Y-59574626D01*
X50101495Y-59579234D01*
X50152292Y-59627208D01*
X50169087Y-59695029D01*
X50146550Y-59761164D01*
X50101499Y-59800202D01*
X50092182Y-59804949D01*
X49920213Y-59929890D01*
X49769890Y-60080213D01*
X49644951Y-60252179D01*
X49548444Y-60441585D01*
X49482753Y-60643760D01*
X49449500Y-60853713D01*
X49449500Y-61066286D01*
X49482753Y-61276239D01*
X49548444Y-61478414D01*
X49644951Y-61667820D01*
X49769890Y-61839786D01*
X49920213Y-61990109D01*
X50092182Y-62115050D01*
X50100946Y-62119516D01*
X50151742Y-62167491D01*
X50168536Y-62235312D01*
X50145998Y-62301447D01*
X50100946Y-62340484D01*
X50092182Y-62344949D01*
X49920213Y-62469890D01*
X49769890Y-62620213D01*
X49644951Y-62792179D01*
X49548444Y-62981585D01*
X49482753Y-63183760D01*
X49449500Y-63393713D01*
X49449500Y-63606286D01*
X49480898Y-63804530D01*
X49482754Y-63816243D01*
X49536926Y-63982968D01*
X49548444Y-64018414D01*
X49644951Y-64207820D01*
X49769890Y-64379786D01*
X49920213Y-64530109D01*
X50092182Y-64655050D01*
X50100946Y-64659516D01*
X50151742Y-64707491D01*
X50168536Y-64775312D01*
X50145998Y-64841447D01*
X50100946Y-64880484D01*
X50092182Y-64884949D01*
X49920213Y-65009890D01*
X49769890Y-65160213D01*
X49644951Y-65332179D01*
X49548444Y-65521585D01*
X49548443Y-65521587D01*
X49548443Y-65521588D01*
X49538999Y-65550653D01*
X49482753Y-65723760D01*
X49482753Y-65723762D01*
X49449500Y-65933713D01*
X49449500Y-66146287D01*
X49457414Y-66196255D01*
X49477013Y-66320000D01*
X49482754Y-66356243D01*
X49539889Y-66532087D01*
X49548444Y-66558414D01*
X49644951Y-66747820D01*
X49769890Y-66919786D01*
X49920213Y-67070109D01*
X50092182Y-67195050D01*
X50100946Y-67199516D01*
X50151742Y-67247491D01*
X50168536Y-67315312D01*
X50145998Y-67381447D01*
X50100946Y-67420484D01*
X50092182Y-67424949D01*
X49920213Y-67549890D01*
X49769890Y-67700213D01*
X49644951Y-67872179D01*
X49548444Y-68061585D01*
X49482753Y-68263760D01*
X49449500Y-68473713D01*
X49449500Y-68686286D01*
X49472989Y-68834594D01*
X49482754Y-68896243D01*
X49519706Y-69009970D01*
X49548444Y-69098414D01*
X49644951Y-69287820D01*
X49769890Y-69459786D01*
X49920213Y-69610109D01*
X50092179Y-69735048D01*
X50092181Y-69735049D01*
X50092184Y-69735051D01*
X50101493Y-69739794D01*
X50152290Y-69787766D01*
X50169087Y-69855587D01*
X50146552Y-69921722D01*
X50101505Y-69960760D01*
X50092446Y-69965376D01*
X50092440Y-69965380D01*
X50038282Y-70004727D01*
X50038282Y-70004728D01*
X50670591Y-70637037D01*
X50607007Y-70654075D01*
X50492993Y-70719901D01*
X50399901Y-70812993D01*
X50334075Y-70927007D01*
X50317037Y-70990591D01*
X49684728Y-70358282D01*
X49684727Y-70358282D01*
X49645380Y-70412439D01*
X49548904Y-70601782D01*
X49483242Y-70803869D01*
X49483242Y-70803872D01*
X49450000Y-71013753D01*
X49450000Y-71226246D01*
X49483242Y-71436127D01*
X49483242Y-71436130D01*
X49548904Y-71638217D01*
X49645375Y-71827550D01*
X49684728Y-71881716D01*
X50317037Y-71249408D01*
X50334075Y-71312993D01*
X50399901Y-71427007D01*
X50492993Y-71520099D01*
X50607007Y-71585925D01*
X50670590Y-71602962D01*
X50038282Y-72235269D01*
X50038282Y-72235270D01*
X50092452Y-72274626D01*
X50092451Y-72274626D01*
X50101495Y-72279234D01*
X50152292Y-72327208D01*
X50169087Y-72395029D01*
X50146550Y-72461164D01*
X50101499Y-72500202D01*
X50092182Y-72504949D01*
X49920213Y-72629890D01*
X49769890Y-72780213D01*
X49644951Y-72952179D01*
X49548444Y-73141585D01*
X49482753Y-73343760D01*
X49449500Y-73553713D01*
X49449500Y-73766286D01*
X49482753Y-73976239D01*
X49548444Y-74178414D01*
X49644951Y-74367820D01*
X49769890Y-74539786D01*
X49920213Y-74690109D01*
X50092182Y-74815050D01*
X50100946Y-74819516D01*
X50151742Y-74867491D01*
X50168536Y-74935312D01*
X50145998Y-75001447D01*
X50100946Y-75040484D01*
X50092182Y-75044949D01*
X49920213Y-75169890D01*
X49769890Y-75320213D01*
X49644951Y-75492179D01*
X49548444Y-75681585D01*
X49482753Y-75883760D01*
X49480899Y-75895466D01*
X49449500Y-76093713D01*
X49449500Y-76306287D01*
X49482754Y-76516243D01*
X49497663Y-76562129D01*
X49548444Y-76718414D01*
X49644951Y-76907820D01*
X49769890Y-77079786D01*
X49920213Y-77230109D01*
X50092182Y-77355050D01*
X50100946Y-77359516D01*
X50151742Y-77407491D01*
X50168536Y-77475312D01*
X50145998Y-77541447D01*
X50100946Y-77580484D01*
X50092182Y-77584949D01*
X49920213Y-77709890D01*
X49769890Y-77860213D01*
X49644951Y-78032179D01*
X49548444Y-78221585D01*
X49482753Y-78423760D01*
X49449500Y-78633713D01*
X49449500Y-78846286D01*
X49482753Y-79056239D01*
X49548444Y-79258414D01*
X49644951Y-79447820D01*
X49769890Y-79619786D01*
X49920213Y-79770109D01*
X50092182Y-79895050D01*
X50100946Y-79899516D01*
X50151742Y-79947491D01*
X50168536Y-80015312D01*
X50145998Y-80081447D01*
X50100946Y-80120484D01*
X50092182Y-80124949D01*
X49920213Y-80249890D01*
X49769890Y-80400213D01*
X49644951Y-80572179D01*
X49548444Y-80761585D01*
X49482753Y-80963760D01*
X49480575Y-80977512D01*
X49449500Y-81173713D01*
X49449500Y-81386287D01*
X49459534Y-81449644D01*
X49481344Y-81587345D01*
X49482754Y-81596243D01*
X49541902Y-81778282D01*
X49548444Y-81798414D01*
X49644951Y-81987820D01*
X49769890Y-82159786D01*
X49920213Y-82310109D01*
X50092179Y-82435048D01*
X50092181Y-82435049D01*
X50092184Y-82435051D01*
X50101493Y-82439794D01*
X50152290Y-82487766D01*
X50169087Y-82555587D01*
X50146552Y-82621722D01*
X50101505Y-82660760D01*
X50092446Y-82665376D01*
X50092440Y-82665380D01*
X50038282Y-82704727D01*
X50038282Y-82704728D01*
X50670591Y-83337037D01*
X50607007Y-83354075D01*
X50492993Y-83419901D01*
X50399901Y-83512993D01*
X50334075Y-83627007D01*
X50317037Y-83690591D01*
X49684728Y-83058282D01*
X49684727Y-83058282D01*
X49645380Y-83112439D01*
X49548904Y-83301782D01*
X49483242Y-83503869D01*
X49483242Y-83503872D01*
X49450000Y-83713753D01*
X49450000Y-83926246D01*
X49483242Y-84136127D01*
X49483242Y-84136130D01*
X49548904Y-84338217D01*
X49645375Y-84527550D01*
X49684728Y-84581716D01*
X50317037Y-83949408D01*
X50334075Y-84012993D01*
X50399901Y-84127007D01*
X50492993Y-84220099D01*
X50607007Y-84285925D01*
X50670590Y-84302962D01*
X50038282Y-84935269D01*
X50038282Y-84935270D01*
X50092452Y-84974626D01*
X50092451Y-84974626D01*
X50101495Y-84979234D01*
X50152292Y-85027208D01*
X50169087Y-85095029D01*
X50146550Y-85161164D01*
X50101499Y-85200202D01*
X50092182Y-85204949D01*
X49920213Y-85329890D01*
X49769890Y-85480213D01*
X49644951Y-85652179D01*
X49548444Y-85841585D01*
X49482753Y-86043760D01*
X49449500Y-86253713D01*
X49449500Y-86466286D01*
X49482753Y-86676239D01*
X49548444Y-86878414D01*
X49644951Y-87067820D01*
X49769890Y-87239786D01*
X49920213Y-87390109D01*
X50092182Y-87515050D01*
X50100946Y-87519516D01*
X50151742Y-87567491D01*
X50168536Y-87635312D01*
X50145998Y-87701447D01*
X50100946Y-87740484D01*
X50092182Y-87744949D01*
X49920213Y-87869890D01*
X49769890Y-88020213D01*
X49644951Y-88192179D01*
X49548444Y-88381585D01*
X49482753Y-88583760D01*
X49449500Y-88793713D01*
X49449500Y-89006286D01*
X49482753Y-89216239D01*
X49548444Y-89418414D01*
X49644951Y-89607820D01*
X49769890Y-89779786D01*
X49920213Y-89930109D01*
X50092182Y-90055050D01*
X50100946Y-90059516D01*
X50151742Y-90107491D01*
X50168536Y-90175312D01*
X50145998Y-90241447D01*
X50100946Y-90280484D01*
X50092182Y-90284949D01*
X49920213Y-90409890D01*
X49769890Y-90560213D01*
X49644951Y-90732179D01*
X49548444Y-90921585D01*
X49548443Y-90921587D01*
X49548443Y-90921588D01*
X49516429Y-91020116D01*
X49482753Y-91123760D01*
X49449500Y-91333713D01*
X49449500Y-91546286D01*
X49482753Y-91756239D01*
X49548444Y-91958414D01*
X49644951Y-92147820D01*
X49769890Y-92319786D01*
X49920213Y-92470109D01*
X50092182Y-92595050D01*
X50100946Y-92599516D01*
X50151742Y-92647491D01*
X50168536Y-92715312D01*
X50145998Y-92781447D01*
X50100946Y-92820484D01*
X50092182Y-92824949D01*
X49920213Y-92949890D01*
X49769890Y-93100213D01*
X49644951Y-93272179D01*
X49548444Y-93461585D01*
X49482753Y-93663760D01*
X49449500Y-93873713D01*
X49449500Y-94086286D01*
X49482753Y-94296239D01*
X49548444Y-94498414D01*
X49644951Y-94687820D01*
X49769890Y-94859786D01*
X49920213Y-95010109D01*
X50092179Y-95135048D01*
X50092181Y-95135049D01*
X50092184Y-95135051D01*
X50101493Y-95139794D01*
X50152290Y-95187766D01*
X50169087Y-95255587D01*
X50146552Y-95321722D01*
X50101505Y-95360760D01*
X50092446Y-95365376D01*
X50092440Y-95365380D01*
X50038282Y-95404727D01*
X50038282Y-95404728D01*
X50670591Y-96037037D01*
X50607007Y-96054075D01*
X50492993Y-96119901D01*
X50399901Y-96212993D01*
X50334075Y-96327007D01*
X50317037Y-96390591D01*
X49684728Y-95758282D01*
X49684727Y-95758282D01*
X49645380Y-95812439D01*
X49548904Y-96001782D01*
X49483242Y-96203869D01*
X49483242Y-96203872D01*
X49450000Y-96413753D01*
X49450000Y-96626246D01*
X49483242Y-96836127D01*
X49483242Y-96836130D01*
X49548904Y-97038217D01*
X49645375Y-97227550D01*
X49684728Y-97281716D01*
X50317037Y-96649408D01*
X50334075Y-96712993D01*
X50399901Y-96827007D01*
X50492993Y-96920099D01*
X50607007Y-96985925D01*
X50670590Y-97002962D01*
X50038282Y-97635269D01*
X50038282Y-97635270D01*
X50092452Y-97674626D01*
X50092451Y-97674626D01*
X50101495Y-97679234D01*
X50152292Y-97727208D01*
X50169087Y-97795029D01*
X50146550Y-97861164D01*
X50101499Y-97900202D01*
X50092182Y-97904949D01*
X49920213Y-98029890D01*
X49769890Y-98180213D01*
X49644951Y-98352179D01*
X49548444Y-98541585D01*
X49482753Y-98743760D01*
X49449500Y-98953713D01*
X49449500Y-99166286D01*
X49482753Y-99376239D01*
X49548444Y-99578414D01*
X49644951Y-99767820D01*
X49769890Y-99939786D01*
X49920213Y-100090109D01*
X50092182Y-100215050D01*
X50100946Y-100219516D01*
X50151742Y-100267491D01*
X50168536Y-100335312D01*
X50145998Y-100401447D01*
X50100946Y-100440484D01*
X50092182Y-100444949D01*
X49920213Y-100569890D01*
X49769890Y-100720213D01*
X49644951Y-100892179D01*
X49548444Y-101081585D01*
X49482753Y-101283760D01*
X49480899Y-101295466D01*
X49449500Y-101493713D01*
X49449500Y-101706287D01*
X49482754Y-101916243D01*
X49548262Y-102117856D01*
X49548444Y-102118414D01*
X49644951Y-102307820D01*
X49769890Y-102479786D01*
X49920213Y-102630109D01*
X50092179Y-102755048D01*
X50092181Y-102755049D01*
X50092184Y-102755051D01*
X50281588Y-102851557D01*
X50483757Y-102917246D01*
X50693713Y-102950500D01*
X50693714Y-102950500D01*
X50906286Y-102950500D01*
X50906287Y-102950500D01*
X51116243Y-102917246D01*
X51318412Y-102851557D01*
X51507816Y-102755051D01*
X51566680Y-102712284D01*
X51679786Y-102630109D01*
X51679788Y-102630106D01*
X51679792Y-102630104D01*
X51830104Y-102479792D01*
X51830106Y-102479788D01*
X51830109Y-102479786D01*
X51955048Y-102307820D01*
X51955047Y-102307820D01*
X51955051Y-102307816D01*
X52051557Y-102118412D01*
X52117246Y-101916243D01*
X52150500Y-101706287D01*
X52150500Y-101493713D01*
X52117246Y-101283757D01*
X52051557Y-101081588D01*
X51955051Y-100892184D01*
X51955049Y-100892181D01*
X51955048Y-100892179D01*
X51830109Y-100720213D01*
X51679786Y-100569890D01*
X51507820Y-100444951D01*
X51507115Y-100444591D01*
X51499054Y-100440485D01*
X51448259Y-100392512D01*
X51431463Y-100324692D01*
X51453999Y-100258556D01*
X51499054Y-100219515D01*
X51507816Y-100215051D01*
X51670550Y-100096819D01*
X51679786Y-100090109D01*
X51679788Y-100090106D01*
X51679792Y-100090104D01*
X51830104Y-99939792D01*
X51830106Y-99939788D01*
X51830109Y-99939786D01*
X51955048Y-99767820D01*
X51955047Y-99767820D01*
X51955051Y-99767816D01*
X52051557Y-99578412D01*
X52117246Y-99376243D01*
X52150500Y-99166287D01*
X52150500Y-98953713D01*
X52117246Y-98743757D01*
X52051557Y-98541588D01*
X51955051Y-98352184D01*
X51955049Y-98352181D01*
X51955048Y-98352179D01*
X51830109Y-98180213D01*
X51679786Y-98029890D01*
X51507817Y-97904949D01*
X51498504Y-97900204D01*
X51447707Y-97852230D01*
X51430912Y-97784409D01*
X51453449Y-97718274D01*
X51498507Y-97679232D01*
X51507555Y-97674622D01*
X51561716Y-97635270D01*
X51561717Y-97635270D01*
X50929408Y-97002962D01*
X50992993Y-96985925D01*
X51107007Y-96920099D01*
X51200099Y-96827007D01*
X51265925Y-96712993D01*
X51282962Y-96649408D01*
X51915270Y-97281717D01*
X51915270Y-97281716D01*
X51954622Y-97227554D01*
X52051095Y-97038217D01*
X52116757Y-96836130D01*
X52116757Y-96836127D01*
X52150000Y-96626246D01*
X52150000Y-96413753D01*
X52116757Y-96203872D01*
X52116757Y-96203869D01*
X52051095Y-96001782D01*
X51954624Y-95812449D01*
X51915270Y-95758282D01*
X51915269Y-95758282D01*
X51282962Y-96390590D01*
X51265925Y-96327007D01*
X51200099Y-96212993D01*
X51107007Y-96119901D01*
X50992993Y-96054075D01*
X50929409Y-96037037D01*
X51561716Y-95404728D01*
X51507547Y-95365373D01*
X51507547Y-95365372D01*
X51498500Y-95360763D01*
X51447706Y-95312788D01*
X51430912Y-95244966D01*
X51453451Y-95178832D01*
X51498508Y-95139793D01*
X51507816Y-95135051D01*
X51594147Y-95072328D01*
X51679786Y-95010109D01*
X51679788Y-95010106D01*
X51679792Y-95010104D01*
X51830104Y-94859792D01*
X51830106Y-94859788D01*
X51830109Y-94859786D01*
X51955048Y-94687820D01*
X51955047Y-94687820D01*
X51955051Y-94687816D01*
X52051557Y-94498412D01*
X52117246Y-94296243D01*
X52150500Y-94086287D01*
X52150500Y-93873713D01*
X52117246Y-93663757D01*
X52051557Y-93461588D01*
X51955051Y-93272184D01*
X51955049Y-93272181D01*
X51955048Y-93272179D01*
X51830109Y-93100213D01*
X51679786Y-92949890D01*
X51507820Y-92824951D01*
X51507115Y-92824591D01*
X51499054Y-92820485D01*
X51448259Y-92772512D01*
X51431463Y-92704692D01*
X51453999Y-92638556D01*
X51499054Y-92599515D01*
X51507816Y-92595051D01*
X51529789Y-92579086D01*
X51679786Y-92470109D01*
X51679788Y-92470106D01*
X51679792Y-92470104D01*
X51830104Y-92319792D01*
X51830106Y-92319788D01*
X51830109Y-92319786D01*
X51955048Y-92147820D01*
X51955047Y-92147820D01*
X51955051Y-92147816D01*
X52051557Y-91958412D01*
X52117246Y-91756243D01*
X52150500Y-91546287D01*
X52150500Y-91333713D01*
X52117246Y-91123757D01*
X52051557Y-90921588D01*
X51955051Y-90732184D01*
X51955049Y-90732181D01*
X51955048Y-90732179D01*
X51830109Y-90560213D01*
X51679786Y-90409890D01*
X51507820Y-90284951D01*
X51507115Y-90284591D01*
X51499054Y-90280485D01*
X51448259Y-90232512D01*
X51431463Y-90164692D01*
X51453999Y-90098556D01*
X51499054Y-90059515D01*
X51507816Y-90055051D01*
X51529789Y-90039086D01*
X51679786Y-89930109D01*
X51679788Y-89930106D01*
X51679792Y-89930104D01*
X51830104Y-89779792D01*
X51830106Y-89779788D01*
X51830109Y-89779786D01*
X51955048Y-89607820D01*
X51955047Y-89607820D01*
X51955051Y-89607816D01*
X52051557Y-89418412D01*
X52117246Y-89216243D01*
X52150500Y-89006287D01*
X52150500Y-88793713D01*
X52117246Y-88583757D01*
X52051557Y-88381588D01*
X51955051Y-88192184D01*
X51955049Y-88192181D01*
X51955048Y-88192179D01*
X51830109Y-88020213D01*
X51679786Y-87869890D01*
X51507820Y-87744951D01*
X51507115Y-87744591D01*
X51499054Y-87740485D01*
X51448259Y-87692512D01*
X51431463Y-87624692D01*
X51453999Y-87558556D01*
X51499054Y-87519515D01*
X51507816Y-87515051D01*
X51529789Y-87499086D01*
X51679786Y-87390109D01*
X51679788Y-87390106D01*
X51679792Y-87390104D01*
X51830104Y-87239792D01*
X51830106Y-87239788D01*
X51830109Y-87239786D01*
X51955048Y-87067820D01*
X51955047Y-87067820D01*
X51955051Y-87067816D01*
X52051557Y-86878412D01*
X52117246Y-86676243D01*
X52150500Y-86466287D01*
X52150500Y-86253713D01*
X52117246Y-86043757D01*
X52051557Y-85841588D01*
X51955051Y-85652184D01*
X51955049Y-85652181D01*
X51955048Y-85652179D01*
X51830109Y-85480213D01*
X51679786Y-85329890D01*
X51507817Y-85204949D01*
X51498504Y-85200204D01*
X51447707Y-85152230D01*
X51430912Y-85084409D01*
X51453449Y-85018274D01*
X51498507Y-84979232D01*
X51507555Y-84974622D01*
X51561716Y-84935270D01*
X51561717Y-84935270D01*
X50929408Y-84302962D01*
X50992993Y-84285925D01*
X51107007Y-84220099D01*
X51200099Y-84127007D01*
X51265925Y-84012993D01*
X51282962Y-83949408D01*
X51915270Y-84581717D01*
X51915270Y-84581716D01*
X51954622Y-84527554D01*
X52051095Y-84338217D01*
X52116757Y-84136130D01*
X52116757Y-84136127D01*
X52150000Y-83926246D01*
X52150000Y-83713753D01*
X52116757Y-83503872D01*
X52116757Y-83503869D01*
X52051095Y-83301782D01*
X51954624Y-83112449D01*
X51915270Y-83058282D01*
X51915269Y-83058282D01*
X51282962Y-83690590D01*
X51265925Y-83627007D01*
X51200099Y-83512993D01*
X51107007Y-83419901D01*
X50992993Y-83354075D01*
X50929409Y-83337037D01*
X51561716Y-82704728D01*
X51507547Y-82665373D01*
X51507547Y-82665372D01*
X51498500Y-82660763D01*
X51447706Y-82612788D01*
X51430912Y-82544966D01*
X51453451Y-82478832D01*
X51498508Y-82439793D01*
X51507816Y-82435051D01*
X51587007Y-82377515D01*
X51679786Y-82310109D01*
X51679788Y-82310106D01*
X51679792Y-82310104D01*
X51830104Y-82159792D01*
X51830106Y-82159788D01*
X51830109Y-82159786D01*
X51955048Y-81987820D01*
X51955047Y-81987820D01*
X51955051Y-81987816D01*
X52051557Y-81798412D01*
X52117246Y-81596243D01*
X52150500Y-81386287D01*
X52150500Y-81173713D01*
X52117246Y-80963757D01*
X52051557Y-80761588D01*
X51955051Y-80572184D01*
X51955049Y-80572181D01*
X51955048Y-80572179D01*
X51830109Y-80400213D01*
X51679786Y-80249890D01*
X51507820Y-80124951D01*
X51507115Y-80124591D01*
X51499054Y-80120485D01*
X51448259Y-80072512D01*
X51431463Y-80004692D01*
X51453999Y-79938556D01*
X51499054Y-79899515D01*
X51507816Y-79895051D01*
X51529789Y-79879086D01*
X51679786Y-79770109D01*
X51679788Y-79770106D01*
X51679792Y-79770104D01*
X51830104Y-79619792D01*
X51830106Y-79619788D01*
X51830109Y-79619786D01*
X51955048Y-79447820D01*
X51955047Y-79447820D01*
X51955051Y-79447816D01*
X52051557Y-79258412D01*
X52117246Y-79056243D01*
X52150500Y-78846287D01*
X52150500Y-78633713D01*
X52117246Y-78423757D01*
X52051557Y-78221588D01*
X51955051Y-78032184D01*
X51955049Y-78032181D01*
X51955048Y-78032179D01*
X51830109Y-77860213D01*
X51679786Y-77709890D01*
X51507820Y-77584951D01*
X51507115Y-77584591D01*
X51499054Y-77580485D01*
X51448259Y-77532512D01*
X51431463Y-77464692D01*
X51453999Y-77398556D01*
X51499054Y-77359515D01*
X51507816Y-77355051D01*
X51566680Y-77312284D01*
X51679786Y-77230109D01*
X51679788Y-77230106D01*
X51679792Y-77230104D01*
X51830104Y-77079792D01*
X51830106Y-77079788D01*
X51830109Y-77079786D01*
X51955048Y-76907820D01*
X51955047Y-76907820D01*
X51955051Y-76907816D01*
X52051557Y-76718412D01*
X52117246Y-76516243D01*
X52150500Y-76306287D01*
X52150500Y-76093713D01*
X52117246Y-75883757D01*
X52051557Y-75681588D01*
X51955051Y-75492184D01*
X51955049Y-75492181D01*
X51955048Y-75492179D01*
X51830109Y-75320213D01*
X51679786Y-75169890D01*
X51507820Y-75044951D01*
X51507115Y-75044591D01*
X51499054Y-75040485D01*
X51448259Y-74992512D01*
X51431463Y-74924692D01*
X51453999Y-74858556D01*
X51499054Y-74819515D01*
X51507816Y-74815051D01*
X51529789Y-74799086D01*
X51679786Y-74690109D01*
X51679788Y-74690106D01*
X51679792Y-74690104D01*
X51830104Y-74539792D01*
X51830106Y-74539788D01*
X51830109Y-74539786D01*
X51955048Y-74367820D01*
X51955047Y-74367820D01*
X51955051Y-74367816D01*
X52051557Y-74178412D01*
X52117246Y-73976243D01*
X52150500Y-73766287D01*
X52150500Y-73553713D01*
X52117246Y-73343757D01*
X52051557Y-73141588D01*
X51955051Y-72952184D01*
X51955049Y-72952181D01*
X51955048Y-72952179D01*
X51830109Y-72780213D01*
X51679786Y-72629890D01*
X51507817Y-72504949D01*
X51498504Y-72500204D01*
X51447707Y-72452230D01*
X51430912Y-72384409D01*
X51453449Y-72318274D01*
X51498507Y-72279232D01*
X51507555Y-72274622D01*
X51561716Y-72235270D01*
X51561717Y-72235270D01*
X50929408Y-71602962D01*
X50992993Y-71585925D01*
X51107007Y-71520099D01*
X51200099Y-71427007D01*
X51265925Y-71312993D01*
X51282962Y-71249408D01*
X51915270Y-71881717D01*
X51915270Y-71881716D01*
X51954622Y-71827554D01*
X52051095Y-71638217D01*
X52116757Y-71436130D01*
X52116757Y-71436127D01*
X52150000Y-71226246D01*
X52150000Y-71013753D01*
X52116757Y-70803872D01*
X52116757Y-70803869D01*
X52051095Y-70601782D01*
X51954624Y-70412449D01*
X51915270Y-70358282D01*
X51915269Y-70358282D01*
X51282962Y-70990590D01*
X51265925Y-70927007D01*
X51200099Y-70812993D01*
X51107007Y-70719901D01*
X50992993Y-70654075D01*
X50929409Y-70637037D01*
X51561716Y-70004728D01*
X51507547Y-69965373D01*
X51507547Y-69965372D01*
X51498500Y-69960763D01*
X51447706Y-69912788D01*
X51430912Y-69844966D01*
X51453451Y-69778832D01*
X51498508Y-69739793D01*
X51507816Y-69735051D01*
X51637541Y-69640801D01*
X51679786Y-69610109D01*
X51679788Y-69610106D01*
X51679792Y-69610104D01*
X51830104Y-69459792D01*
X51830106Y-69459788D01*
X51830109Y-69459786D01*
X51955048Y-69287820D01*
X51955047Y-69287820D01*
X51955051Y-69287816D01*
X52051557Y-69098412D01*
X52117246Y-68896243D01*
X52150500Y-68686287D01*
X52150500Y-68473713D01*
X52117246Y-68263757D01*
X52051557Y-68061588D01*
X51955051Y-67872184D01*
X51955049Y-67872181D01*
X51955048Y-67872179D01*
X51830109Y-67700213D01*
X51679786Y-67549890D01*
X51507820Y-67424951D01*
X51507115Y-67424591D01*
X51499054Y-67420485D01*
X51448259Y-67372512D01*
X51431463Y-67304692D01*
X51453999Y-67238556D01*
X51499054Y-67199515D01*
X51507816Y-67195051D01*
X51533442Y-67176433D01*
X51679786Y-67070109D01*
X51679788Y-67070106D01*
X51679792Y-67070104D01*
X51830104Y-66919792D01*
X51830106Y-66919788D01*
X51830109Y-66919786D01*
X51955048Y-66747820D01*
X51955047Y-66747820D01*
X51955051Y-66747816D01*
X52051557Y-66558412D01*
X52117246Y-66356243D01*
X52150500Y-66146287D01*
X52150500Y-65933713D01*
X52117246Y-65723757D01*
X52051557Y-65521588D01*
X51955051Y-65332184D01*
X51955049Y-65332181D01*
X51955048Y-65332179D01*
X51830109Y-65160213D01*
X51679786Y-65009890D01*
X51507820Y-64884951D01*
X51507115Y-64884591D01*
X51499054Y-64880485D01*
X51448259Y-64832512D01*
X51431463Y-64764692D01*
X51453999Y-64698556D01*
X51499054Y-64659515D01*
X51507816Y-64655051D01*
X51665917Y-64540185D01*
X51679786Y-64530109D01*
X51679788Y-64530106D01*
X51679792Y-64530104D01*
X51830104Y-64379792D01*
X51830106Y-64379788D01*
X51830109Y-64379786D01*
X51955048Y-64207820D01*
X51955047Y-64207820D01*
X51955051Y-64207816D01*
X52051557Y-64018412D01*
X52117246Y-63816243D01*
X52150500Y-63606287D01*
X52150500Y-63397648D01*
X55889500Y-63397648D01*
X55889500Y-63602352D01*
X55897113Y-63650418D01*
X55897973Y-63655846D01*
X55899500Y-63675244D01*
X55899500Y-67048422D01*
X55930290Y-67242826D01*
X55991117Y-67430030D01*
X56080476Y-67605405D01*
X56196172Y-67764646D01*
X56196174Y-67764648D01*
X56610679Y-68179153D01*
X56644164Y-68240476D01*
X56639180Y-68310168D01*
X56597308Y-68366101D01*
X56579294Y-68377318D01*
X56494597Y-68420474D01*
X56475423Y-68434405D01*
X56335354Y-68536172D01*
X56335352Y-68536174D01*
X56335351Y-68536174D01*
X56196174Y-68675351D01*
X56196174Y-68675352D01*
X56196172Y-68675354D01*
X56188229Y-68686287D01*
X56080476Y-68834594D01*
X55991117Y-69009970D01*
X55930290Y-69197173D01*
X55899500Y-69391577D01*
X55899500Y-69588422D01*
X55930290Y-69782826D01*
X55991117Y-69970029D01*
X56061781Y-70108714D01*
X56080476Y-70145405D01*
X56196172Y-70304646D01*
X56335354Y-70443828D01*
X56494595Y-70559524D01*
X56569214Y-70597544D01*
X56669970Y-70648882D01*
X56669972Y-70648882D01*
X56669975Y-70648884D01*
X56770317Y-70681487D01*
X56857173Y-70709709D01*
X57051578Y-70740500D01*
X57051583Y-70740500D01*
X57248422Y-70740500D01*
X57442826Y-70709709D01*
X57630025Y-70648884D01*
X57805405Y-70559524D01*
X57964646Y-70443828D01*
X58103828Y-70304646D01*
X58219524Y-70145405D01*
X58262681Y-70060703D01*
X58310652Y-70009910D01*
X58378473Y-69993114D01*
X58444608Y-70015650D01*
X58460845Y-70029319D01*
X58736171Y-70304645D01*
X58736172Y-70304646D01*
X58875354Y-70443828D01*
X59034595Y-70559524D01*
X59109218Y-70597546D01*
X59209979Y-70648886D01*
X59294223Y-70676258D01*
X59336346Y-70689944D01*
X59336347Y-70689945D01*
X59336348Y-70689945D01*
X59397173Y-70709709D01*
X59461524Y-70719901D01*
X59591578Y-70740500D01*
X59591583Y-70740500D01*
X59788422Y-70740500D01*
X59982826Y-70709709D01*
X60170025Y-70648884D01*
X60345405Y-70559524D01*
X60504646Y-70443828D01*
X60643828Y-70304646D01*
X60755184Y-70151378D01*
X60810512Y-70108714D01*
X60880125Y-70102735D01*
X60941920Y-70135341D01*
X60976277Y-70196179D01*
X60979500Y-70224263D01*
X60979500Y-70287869D01*
X60979501Y-70287876D01*
X60985908Y-70347483D01*
X61036202Y-70482328D01*
X61036206Y-70482335D01*
X61122452Y-70597544D01*
X61122455Y-70597547D01*
X61237664Y-70683793D01*
X61237671Y-70683797D01*
X61254155Y-70689945D01*
X61372517Y-70734091D01*
X61432127Y-70740500D01*
X62131580Y-70740499D01*
X62131583Y-70740500D01*
X62328417Y-70740500D01*
X62328420Y-70740499D01*
X63027872Y-70740499D01*
X63087483Y-70734091D01*
X63222331Y-70683796D01*
X63337546Y-70597546D01*
X63423796Y-70482331D01*
X63474091Y-70347483D01*
X63480500Y-70287873D01*
X63480499Y-70059335D01*
X63500183Y-69992296D01*
X63516813Y-69971659D01*
X64894828Y-68593646D01*
X64897828Y-68589515D01*
X64897844Y-68589503D01*
X64897840Y-68589500D01*
X64964558Y-68497671D01*
X65010524Y-68434405D01*
X65099884Y-68259025D01*
X65160709Y-68071826D01*
X65170832Y-68007913D01*
X65191500Y-67877422D01*
X65191500Y-60580336D01*
X65211185Y-60513297D01*
X65227819Y-60492655D01*
X66110974Y-59609500D01*
X67053027Y-58667446D01*
X67114348Y-58633963D01*
X67184040Y-58638947D01*
X67239973Y-58680819D01*
X67261419Y-58731563D01*
X67262107Y-58731398D01*
X67263102Y-58735544D01*
X67263178Y-58735724D01*
X67263241Y-58736125D01*
X67263242Y-58736130D01*
X67328904Y-58938217D01*
X67425375Y-59127550D01*
X67464728Y-59181716D01*
X68097037Y-58549408D01*
X68114075Y-58612993D01*
X68179901Y-58727007D01*
X68272993Y-58820099D01*
X68387007Y-58885925D01*
X68450590Y-58902962D01*
X67818282Y-59535269D01*
X67818282Y-59535270D01*
X67872452Y-59574626D01*
X67872451Y-59574626D01*
X67881495Y-59579234D01*
X67932292Y-59627208D01*
X67949087Y-59695029D01*
X67926550Y-59761164D01*
X67881499Y-59800202D01*
X67872182Y-59804949D01*
X67700213Y-59929890D01*
X67549890Y-60080213D01*
X67424951Y-60252179D01*
X67328444Y-60441585D01*
X67262753Y-60643760D01*
X67229500Y-60853713D01*
X67229500Y-61066286D01*
X67262753Y-61276239D01*
X67328444Y-61478414D01*
X67424951Y-61667820D01*
X67549890Y-61839786D01*
X67700213Y-61990109D01*
X67872182Y-62115050D01*
X67880946Y-62119516D01*
X67931742Y-62167491D01*
X67948536Y-62235312D01*
X67925998Y-62301447D01*
X67880946Y-62340484D01*
X67872182Y-62344949D01*
X67700213Y-62469890D01*
X67549890Y-62620213D01*
X67424951Y-62792179D01*
X67328444Y-62981585D01*
X67262753Y-63183760D01*
X67229500Y-63393713D01*
X67229500Y-63606286D01*
X67260898Y-63804530D01*
X67262754Y-63816243D01*
X67316926Y-63982968D01*
X67328444Y-64018414D01*
X67424951Y-64207820D01*
X67549890Y-64379786D01*
X67700213Y-64530109D01*
X67872182Y-64655050D01*
X67880946Y-64659516D01*
X67931742Y-64707491D01*
X67948536Y-64775312D01*
X67925998Y-64841447D01*
X67880946Y-64880484D01*
X67872182Y-64884949D01*
X67700213Y-65009890D01*
X67549890Y-65160213D01*
X67424951Y-65332179D01*
X67328444Y-65521585D01*
X67328443Y-65521587D01*
X67328443Y-65521588D01*
X67318999Y-65550653D01*
X67262753Y-65723760D01*
X67262753Y-65723762D01*
X67229500Y-65933713D01*
X67229500Y-66146287D01*
X67237414Y-66196255D01*
X67257013Y-66320000D01*
X67262754Y-66356243D01*
X67319889Y-66532087D01*
X67328444Y-66558414D01*
X67424951Y-66747820D01*
X67549890Y-66919786D01*
X67700213Y-67070109D01*
X67872182Y-67195050D01*
X67880946Y-67199516D01*
X67931742Y-67247491D01*
X67948536Y-67315312D01*
X67925998Y-67381447D01*
X67880946Y-67420484D01*
X67872182Y-67424949D01*
X67700213Y-67549890D01*
X67549890Y-67700213D01*
X67424951Y-67872179D01*
X67328444Y-68061585D01*
X67262753Y-68263760D01*
X67229500Y-68473713D01*
X67229500Y-68686286D01*
X67252989Y-68834594D01*
X67262754Y-68896243D01*
X67299706Y-69009970D01*
X67328444Y-69098414D01*
X67424951Y-69287820D01*
X67549890Y-69459786D01*
X67700213Y-69610109D01*
X67872179Y-69735048D01*
X67872181Y-69735049D01*
X67872184Y-69735051D01*
X67881493Y-69739794D01*
X67932290Y-69787766D01*
X67949087Y-69855587D01*
X67926552Y-69921722D01*
X67881505Y-69960760D01*
X67872446Y-69965376D01*
X67872440Y-69965380D01*
X67818282Y-70004727D01*
X67818282Y-70004728D01*
X68450591Y-70637037D01*
X68387007Y-70654075D01*
X68272993Y-70719901D01*
X68179901Y-70812993D01*
X68114075Y-70927007D01*
X68097037Y-70990591D01*
X67464728Y-70358282D01*
X67464727Y-70358282D01*
X67425380Y-70412439D01*
X67328904Y-70601782D01*
X67263242Y-70803869D01*
X67263242Y-70803872D01*
X67230000Y-71013753D01*
X67230000Y-71226246D01*
X67263242Y-71436127D01*
X67263242Y-71436130D01*
X67328904Y-71638217D01*
X67425375Y-71827550D01*
X67464728Y-71881716D01*
X68097037Y-71249408D01*
X68114075Y-71312993D01*
X68179901Y-71427007D01*
X68272993Y-71520099D01*
X68387007Y-71585925D01*
X68450590Y-71602962D01*
X67818282Y-72235269D01*
X67818282Y-72235270D01*
X67872452Y-72274626D01*
X67872451Y-72274626D01*
X67881495Y-72279234D01*
X67932292Y-72327208D01*
X67949087Y-72395029D01*
X67926550Y-72461164D01*
X67881499Y-72500202D01*
X67872182Y-72504949D01*
X67700213Y-72629890D01*
X67549890Y-72780213D01*
X67424951Y-72952179D01*
X67328444Y-73141585D01*
X67262753Y-73343760D01*
X67229500Y-73553713D01*
X67229500Y-73766286D01*
X67262753Y-73976239D01*
X67328444Y-74178414D01*
X67424951Y-74367820D01*
X67549890Y-74539786D01*
X67700213Y-74690109D01*
X67872182Y-74815050D01*
X67880946Y-74819516D01*
X67931742Y-74867491D01*
X67948536Y-74935312D01*
X67925998Y-75001447D01*
X67880946Y-75040484D01*
X67872182Y-75044949D01*
X67700213Y-75169890D01*
X67549890Y-75320213D01*
X67424951Y-75492179D01*
X67328444Y-75681585D01*
X67262753Y-75883760D01*
X67260899Y-75895466D01*
X67229500Y-76093713D01*
X67229500Y-76306287D01*
X67262754Y-76516243D01*
X67277663Y-76562129D01*
X67328444Y-76718414D01*
X67424951Y-76907820D01*
X67549890Y-77079786D01*
X67700213Y-77230109D01*
X67872182Y-77355050D01*
X67880946Y-77359516D01*
X67931742Y-77407491D01*
X67948536Y-77475312D01*
X67925998Y-77541447D01*
X67880946Y-77580484D01*
X67872182Y-77584949D01*
X67700213Y-77709890D01*
X67549890Y-77860213D01*
X67424951Y-78032179D01*
X67328444Y-78221585D01*
X67262753Y-78423760D01*
X67229500Y-78633713D01*
X67229500Y-78846286D01*
X67262753Y-79056239D01*
X67328444Y-79258414D01*
X67424951Y-79447820D01*
X67549890Y-79619786D01*
X67700213Y-79770109D01*
X67872182Y-79895050D01*
X67880946Y-79899516D01*
X67931742Y-79947491D01*
X67948536Y-80015312D01*
X67925998Y-80081447D01*
X67880946Y-80120484D01*
X67872182Y-80124949D01*
X67700213Y-80249890D01*
X67549890Y-80400213D01*
X67424951Y-80572179D01*
X67328444Y-80761585D01*
X67262753Y-80963760D01*
X67260575Y-80977512D01*
X67229500Y-81173713D01*
X67229500Y-81386287D01*
X67239534Y-81449644D01*
X67261344Y-81587345D01*
X67262754Y-81596243D01*
X67321902Y-81778282D01*
X67328444Y-81798414D01*
X67424951Y-81987820D01*
X67549890Y-82159786D01*
X67700213Y-82310109D01*
X67872179Y-82435048D01*
X67872181Y-82435049D01*
X67872184Y-82435051D01*
X67881493Y-82439794D01*
X67932290Y-82487766D01*
X67949087Y-82555587D01*
X67926552Y-82621722D01*
X67881505Y-82660760D01*
X67872446Y-82665376D01*
X67872440Y-82665380D01*
X67818282Y-82704727D01*
X67818282Y-82704728D01*
X68450591Y-83337037D01*
X68387007Y-83354075D01*
X68272993Y-83419901D01*
X68179901Y-83512993D01*
X68114075Y-83627007D01*
X68097037Y-83690591D01*
X67464728Y-83058282D01*
X67464727Y-83058282D01*
X67425380Y-83112439D01*
X67328904Y-83301782D01*
X67263242Y-83503869D01*
X67263242Y-83503872D01*
X67230000Y-83713753D01*
X67230000Y-83926246D01*
X67263242Y-84136127D01*
X67263242Y-84136130D01*
X67328904Y-84338217D01*
X67425375Y-84527550D01*
X67464728Y-84581716D01*
X68097037Y-83949408D01*
X68114075Y-84012993D01*
X68179901Y-84127007D01*
X68272993Y-84220099D01*
X68387007Y-84285925D01*
X68450590Y-84302962D01*
X67818282Y-84935269D01*
X67818282Y-84935270D01*
X67872452Y-84974626D01*
X67872451Y-84974626D01*
X67881495Y-84979234D01*
X67932292Y-85027208D01*
X67949087Y-85095029D01*
X67926550Y-85161164D01*
X67881499Y-85200202D01*
X67872182Y-85204949D01*
X67700213Y-85329890D01*
X67549890Y-85480213D01*
X67424951Y-85652179D01*
X67328444Y-85841585D01*
X67262753Y-86043760D01*
X67229500Y-86253713D01*
X67229500Y-86466286D01*
X67262753Y-86676239D01*
X67328444Y-86878414D01*
X67424951Y-87067820D01*
X67549890Y-87239786D01*
X67700213Y-87390109D01*
X67872182Y-87515050D01*
X67880946Y-87519516D01*
X67931742Y-87567491D01*
X67948536Y-87635312D01*
X67925998Y-87701447D01*
X67880946Y-87740484D01*
X67872182Y-87744949D01*
X67700213Y-87869890D01*
X67549890Y-88020213D01*
X67424951Y-88192179D01*
X67328444Y-88381585D01*
X67262753Y-88583760D01*
X67229500Y-88793713D01*
X67229500Y-89006286D01*
X67262753Y-89216239D01*
X67328444Y-89418414D01*
X67424951Y-89607820D01*
X67549890Y-89779786D01*
X67700213Y-89930109D01*
X67872182Y-90055050D01*
X67880946Y-90059516D01*
X67931742Y-90107491D01*
X67948536Y-90175312D01*
X67925998Y-90241447D01*
X67880946Y-90280484D01*
X67872182Y-90284949D01*
X67700213Y-90409890D01*
X67549890Y-90560213D01*
X67424951Y-90732179D01*
X67328444Y-90921585D01*
X67328443Y-90921587D01*
X67328443Y-90921588D01*
X67296429Y-91020116D01*
X67262753Y-91123760D01*
X67229500Y-91333713D01*
X67229500Y-91546286D01*
X67262753Y-91756239D01*
X67328444Y-91958414D01*
X67424951Y-92147820D01*
X67549890Y-92319786D01*
X67700213Y-92470109D01*
X67872182Y-92595050D01*
X67880946Y-92599516D01*
X67931742Y-92647491D01*
X67948536Y-92715312D01*
X67925998Y-92781447D01*
X67880946Y-92820484D01*
X67872182Y-92824949D01*
X67700213Y-92949890D01*
X67549890Y-93100213D01*
X67424951Y-93272179D01*
X67328444Y-93461585D01*
X67262753Y-93663760D01*
X67229500Y-93873713D01*
X67229500Y-94086286D01*
X67262753Y-94296239D01*
X67328444Y-94498414D01*
X67424951Y-94687820D01*
X67549890Y-94859786D01*
X67700213Y-95010109D01*
X67872179Y-95135048D01*
X67872181Y-95135049D01*
X67872184Y-95135051D01*
X67881493Y-95139794D01*
X67932290Y-95187766D01*
X67949087Y-95255587D01*
X67926552Y-95321722D01*
X67881505Y-95360760D01*
X67872446Y-95365376D01*
X67872440Y-95365380D01*
X67818282Y-95404727D01*
X67818282Y-95404728D01*
X68450591Y-96037037D01*
X68387007Y-96054075D01*
X68272993Y-96119901D01*
X68179901Y-96212993D01*
X68114075Y-96327007D01*
X68097037Y-96390591D01*
X67464728Y-95758282D01*
X67464727Y-95758282D01*
X67425380Y-95812439D01*
X67328904Y-96001782D01*
X67263242Y-96203869D01*
X67263242Y-96203872D01*
X67230000Y-96413753D01*
X67230000Y-96626246D01*
X67263242Y-96836127D01*
X67263242Y-96836130D01*
X67328904Y-97038217D01*
X67425375Y-97227550D01*
X67464728Y-97281716D01*
X68097037Y-96649408D01*
X68114075Y-96712993D01*
X68179901Y-96827007D01*
X68272993Y-96920099D01*
X68387007Y-96985925D01*
X68450590Y-97002962D01*
X67818282Y-97635269D01*
X67818282Y-97635270D01*
X67872452Y-97674626D01*
X67872451Y-97674626D01*
X67881495Y-97679234D01*
X67932292Y-97727208D01*
X67949087Y-97795029D01*
X67926550Y-97861164D01*
X67881499Y-97900202D01*
X67872182Y-97904949D01*
X67700213Y-98029890D01*
X67549890Y-98180213D01*
X67424951Y-98352179D01*
X67328444Y-98541585D01*
X67262753Y-98743760D01*
X67229500Y-98953713D01*
X67229500Y-99166286D01*
X67262753Y-99376239D01*
X67328444Y-99578414D01*
X67424951Y-99767820D01*
X67549890Y-99939786D01*
X67700213Y-100090109D01*
X67872182Y-100215050D01*
X67880946Y-100219516D01*
X67931742Y-100267491D01*
X67948536Y-100335312D01*
X67925998Y-100401447D01*
X67880946Y-100440484D01*
X67872182Y-100444949D01*
X67700213Y-100569890D01*
X67549890Y-100720213D01*
X67424951Y-100892179D01*
X67328444Y-101081585D01*
X67262753Y-101283760D01*
X67260899Y-101295466D01*
X67229500Y-101493713D01*
X67229500Y-101706287D01*
X67262754Y-101916243D01*
X67328262Y-102117856D01*
X67328444Y-102118414D01*
X67424951Y-102307820D01*
X67549890Y-102479786D01*
X67700213Y-102630109D01*
X67872179Y-102755048D01*
X67872181Y-102755049D01*
X67872184Y-102755051D01*
X68061588Y-102851557D01*
X68263757Y-102917246D01*
X68473713Y-102950500D01*
X68473714Y-102950500D01*
X68686286Y-102950500D01*
X68686287Y-102950500D01*
X68896243Y-102917246D01*
X69098412Y-102851557D01*
X69287816Y-102755051D01*
X69346680Y-102712284D01*
X69459786Y-102630109D01*
X69459788Y-102630106D01*
X69459792Y-102630104D01*
X69610104Y-102479792D01*
X69610106Y-102479788D01*
X69610109Y-102479786D01*
X69735048Y-102307820D01*
X69735047Y-102307820D01*
X69735051Y-102307816D01*
X69831557Y-102118412D01*
X69897246Y-101916243D01*
X69930500Y-101706287D01*
X69930500Y-101493713D01*
X69897246Y-101283757D01*
X69831557Y-101081588D01*
X69735051Y-100892184D01*
X69735049Y-100892181D01*
X69735048Y-100892179D01*
X69610109Y-100720213D01*
X69459786Y-100569890D01*
X69287820Y-100444951D01*
X69287115Y-100444591D01*
X69279054Y-100440485D01*
X69228259Y-100392512D01*
X69211463Y-100324692D01*
X69233999Y-100258556D01*
X69279054Y-100219515D01*
X69287816Y-100215051D01*
X69302769Y-100204186D01*
X69463734Y-100087241D01*
X69464364Y-100088108D01*
X69523419Y-100061641D01*
X69540200Y-100060500D01*
X70654218Y-100060500D01*
X70721257Y-100080185D01*
X70741899Y-100096819D01*
X72273576Y-101628496D01*
X72307061Y-101689819D01*
X72309350Y-101705344D01*
X72340899Y-101904534D01*
X72342754Y-101916243D01*
X72408262Y-102117856D01*
X72408444Y-102118414D01*
X72504951Y-102307820D01*
X72629890Y-102479786D01*
X72780213Y-102630109D01*
X72952179Y-102755048D01*
X72952181Y-102755049D01*
X72952184Y-102755051D01*
X73141588Y-102851557D01*
X73343757Y-102917246D01*
X73553713Y-102950500D01*
X73553714Y-102950500D01*
X73558525Y-102951262D01*
X73558357Y-102952321D01*
X73618829Y-102975362D01*
X73631503Y-102986423D01*
X74430735Y-103785655D01*
X74430764Y-103785686D01*
X74573214Y-103928136D01*
X74573218Y-103928139D01*
X74737079Y-104037628D01*
X74737092Y-104037635D01*
X74865833Y-104090961D01*
X74908744Y-104108735D01*
X74919164Y-104113051D01*
X75015812Y-104132275D01*
X75064135Y-104141887D01*
X75112458Y-104151500D01*
X75112459Y-104151500D01*
X83637542Y-104151500D01*
X83668566Y-104145328D01*
X83734188Y-104132275D01*
X83830836Y-104113051D01*
X83884165Y-104090961D01*
X84012914Y-104037632D01*
X84176782Y-103928139D01*
X84316139Y-103788782D01*
X84316140Y-103788779D01*
X84323206Y-103781714D01*
X84323209Y-103781710D01*
X85178203Y-102926715D01*
X85239524Y-102893232D01*
X85246473Y-102891927D01*
X85394534Y-102868477D01*
X85589219Y-102805220D01*
X85771610Y-102712287D01*
X85884726Y-102630104D01*
X85937213Y-102591971D01*
X85937215Y-102591968D01*
X85937219Y-102591966D01*
X86081966Y-102447219D01*
X86081968Y-102447215D01*
X86081971Y-102447213D01*
X86183247Y-102307816D01*
X86202287Y-102281610D01*
X86295220Y-102099219D01*
X86358477Y-101904534D01*
X86390500Y-101702352D01*
X86390500Y-101497648D01*
X86358477Y-101295466D01*
X86354673Y-101283760D01*
X86295218Y-101100776D01*
X86261503Y-101034607D01*
X86202287Y-100918390D01*
X86194556Y-100907749D01*
X86081971Y-100752786D01*
X85937213Y-100608028D01*
X85771613Y-100487715D01*
X85771612Y-100487714D01*
X85771610Y-100487713D01*
X85687681Y-100444949D01*
X85589223Y-100394781D01*
X85394534Y-100331522D01*
X85219995Y-100303878D01*
X85192352Y-100299500D01*
X84987648Y-100299500D01*
X84963329Y-100303351D01*
X84785465Y-100331522D01*
X84590776Y-100394781D01*
X84408386Y-100487715D01*
X84242786Y-100608028D01*
X84098028Y-100752786D01*
X83977715Y-100918386D01*
X83884781Y-101100778D01*
X83821522Y-101295468D01*
X83798073Y-101443515D01*
X83768143Y-101506649D01*
X83763281Y-101511797D01*
X83160899Y-102114181D01*
X83099576Y-102147666D01*
X83073218Y-102150500D01*
X82691802Y-102150500D01*
X82624763Y-102130815D01*
X82579008Y-102078011D01*
X82569064Y-102008853D01*
X82573871Y-101988182D01*
X82597246Y-101916243D01*
X82630500Y-101706287D01*
X82630500Y-101493713D01*
X82597246Y-101283757D01*
X82531557Y-101081588D01*
X82435051Y-100892184D01*
X82435049Y-100892181D01*
X82435048Y-100892179D01*
X82310109Y-100720213D01*
X82159786Y-100569890D01*
X81987820Y-100444951D01*
X81987115Y-100444591D01*
X81979054Y-100440485D01*
X81928259Y-100392512D01*
X81911463Y-100324692D01*
X81933999Y-100258556D01*
X81979054Y-100219515D01*
X81987816Y-100215051D01*
X82150550Y-100096819D01*
X82159786Y-100090109D01*
X82159788Y-100090106D01*
X82159792Y-100090104D01*
X82310104Y-99939792D01*
X82310106Y-99939788D01*
X82310109Y-99939786D01*
X82435048Y-99767820D01*
X82435047Y-99767820D01*
X82435051Y-99767816D01*
X82531557Y-99578412D01*
X82597246Y-99376243D01*
X82630500Y-99166287D01*
X82630500Y-98953713D01*
X82597246Y-98743757D01*
X82531557Y-98541588D01*
X82435051Y-98352184D01*
X82435049Y-98352181D01*
X82435048Y-98352179D01*
X82310109Y-98180213D01*
X82159786Y-98029890D01*
X81987817Y-97904949D01*
X81978504Y-97900204D01*
X81927707Y-97852230D01*
X81910912Y-97784409D01*
X81933449Y-97718274D01*
X81978507Y-97679232D01*
X81987555Y-97674622D01*
X82041716Y-97635270D01*
X82041717Y-97635270D01*
X81409408Y-97002962D01*
X81472993Y-96985925D01*
X81587007Y-96920099D01*
X81680099Y-96827007D01*
X81745925Y-96712993D01*
X81762962Y-96649408D01*
X82395270Y-97281717D01*
X82395270Y-97281716D01*
X82434622Y-97227554D01*
X82531095Y-97038217D01*
X82596757Y-96836130D01*
X82596757Y-96836127D01*
X82630000Y-96626246D01*
X82630000Y-96413753D01*
X82596757Y-96203872D01*
X82596757Y-96203869D01*
X82531095Y-96001782D01*
X82434624Y-95812449D01*
X82395270Y-95758282D01*
X82395269Y-95758282D01*
X81762962Y-96390590D01*
X81745925Y-96327007D01*
X81680099Y-96212993D01*
X81587007Y-96119901D01*
X81472993Y-96054075D01*
X81409409Y-96037037D01*
X82079627Y-95366818D01*
X82140950Y-95333333D01*
X82167307Y-95330499D01*
X82177872Y-95330499D01*
X82237483Y-95324091D01*
X82372331Y-95273796D01*
X82487546Y-95187546D01*
X82573796Y-95072331D01*
X82624091Y-94937483D01*
X82630500Y-94877873D01*
X82630499Y-93588334D01*
X82650184Y-93521296D01*
X82702987Y-93475541D01*
X82772146Y-93465597D01*
X82835702Y-93494622D01*
X82842180Y-93500654D01*
X83937413Y-94595887D01*
X83960216Y-94627272D01*
X83977713Y-94661611D01*
X84098028Y-94827213D01*
X84242786Y-94971971D01*
X84380928Y-95072335D01*
X84408390Y-95092287D01*
X84492319Y-95135051D01*
X84590776Y-95185218D01*
X84590778Y-95185218D01*
X84590781Y-95185220D01*
X84695137Y-95219127D01*
X84785465Y-95248477D01*
X84886557Y-95264488D01*
X84987648Y-95280500D01*
X84987649Y-95280500D01*
X85192351Y-95280500D01*
X85192352Y-95280500D01*
X85394534Y-95248477D01*
X85589219Y-95185220D01*
X85771610Y-95092287D01*
X85884726Y-95010104D01*
X85937213Y-94971971D01*
X85937215Y-94971968D01*
X85937219Y-94971966D01*
X86081966Y-94827219D01*
X86081968Y-94827215D01*
X86081971Y-94827213D01*
X86183247Y-94687816D01*
X86202287Y-94661610D01*
X86295220Y-94479219D01*
X86358477Y-94284534D01*
X86390500Y-94082352D01*
X86390500Y-93877648D01*
X86358477Y-93675466D01*
X86354673Y-93663760D01*
X86308384Y-93521296D01*
X86295220Y-93480781D01*
X86295218Y-93480778D01*
X86295218Y-93480776D01*
X86261503Y-93414607D01*
X86202287Y-93298390D01*
X86194556Y-93287749D01*
X86081971Y-93132786D01*
X85937213Y-92988028D01*
X85771611Y-92867713D01*
X85737272Y-92850216D01*
X85705887Y-92827413D01*
X84103648Y-91225174D01*
X84103647Y-91225173D01*
X84103646Y-91225172D01*
X83944405Y-91109476D01*
X83769030Y-91020117D01*
X83581826Y-90959290D01*
X83387422Y-90928500D01*
X83387417Y-90928500D01*
X79172583Y-90928500D01*
X79172578Y-90928500D01*
X78978173Y-90959290D01*
X78790969Y-91020117D01*
X78615594Y-91109476D01*
X78524742Y-91175484D01*
X78456355Y-91225171D01*
X78456353Y-91225173D01*
X78456352Y-91225173D01*
X76988345Y-92693181D01*
X76927022Y-92726666D01*
X76900664Y-92729500D01*
X75034500Y-92729500D01*
X74967461Y-92709815D01*
X74921706Y-92657011D01*
X74910500Y-92605500D01*
X74910500Y-84199500D01*
X74916569Y-84161182D01*
X74928477Y-84124534D01*
X74960500Y-83922352D01*
X74960500Y-83717648D01*
X74928477Y-83515466D01*
X74865220Y-83320781D01*
X74865218Y-83320778D01*
X74865218Y-83320776D01*
X74827907Y-83247550D01*
X74772287Y-83138390D01*
X74714086Y-83058282D01*
X74651971Y-82972786D01*
X74507213Y-82828028D01*
X74341611Y-82707713D01*
X74307272Y-82690216D01*
X74275887Y-82667413D01*
X73195819Y-81587345D01*
X73162334Y-81526022D01*
X73159500Y-81499664D01*
X73159500Y-77575475D01*
X73179185Y-77508436D01*
X73231989Y-77462681D01*
X73301147Y-77452737D01*
X73321820Y-77457545D01*
X73355458Y-77468475D01*
X73355461Y-77468475D01*
X73355466Y-77468477D01*
X73557648Y-77500500D01*
X73557649Y-77500500D01*
X73762351Y-77500500D01*
X73762352Y-77500500D01*
X73964534Y-77468477D01*
X74159219Y-77405220D01*
X74341610Y-77312287D01*
X74454726Y-77230104D01*
X74507213Y-77191971D01*
X74507215Y-77191968D01*
X74507219Y-77191966D01*
X74651966Y-77047219D01*
X74651968Y-77047215D01*
X74651971Y-77047213D01*
X74753247Y-76907816D01*
X74772287Y-76881610D01*
X74865220Y-76699219D01*
X74928477Y-76504534D01*
X74960500Y-76302352D01*
X74960500Y-76097648D01*
X74959877Y-76093713D01*
X74928477Y-75895465D01*
X74865218Y-75700776D01*
X74831503Y-75634607D01*
X74772287Y-75518390D01*
X74764556Y-75507749D01*
X74651971Y-75352786D01*
X74507213Y-75208028D01*
X74341613Y-75087715D01*
X74341612Y-75087714D01*
X74341610Y-75087713D01*
X74257681Y-75044949D01*
X74159223Y-74994781D01*
X73964534Y-74931522D01*
X73789995Y-74903878D01*
X73762352Y-74899500D01*
X73557648Y-74899500D01*
X73501652Y-74908369D01*
X73355464Y-74931523D01*
X73355457Y-74931524D01*
X73321817Y-74942455D01*
X73251976Y-74944450D01*
X73192144Y-74908369D01*
X73161316Y-74845668D01*
X73159500Y-74824524D01*
X73159500Y-65528496D01*
X73141586Y-65415402D01*
X73128709Y-65334093D01*
X73128708Y-65334089D01*
X73128708Y-65334088D01*
X73069391Y-65151531D01*
X73068329Y-65147766D01*
X73003068Y-65019684D01*
X72978524Y-64971514D01*
X72862829Y-64812274D01*
X70596727Y-62546172D01*
X70437486Y-62430476D01*
X70412031Y-62417506D01*
X70262111Y-62341117D01*
X70074907Y-62280290D01*
X69880503Y-62249500D01*
X69880498Y-62249500D01*
X69484397Y-62249500D01*
X69417358Y-62229815D01*
X69371603Y-62177011D01*
X69361659Y-62107853D01*
X69390684Y-62044297D01*
X69411512Y-62025181D01*
X69459792Y-61990104D01*
X69610104Y-61839792D01*
X69610106Y-61839788D01*
X69610109Y-61839786D01*
X69735048Y-61667820D01*
X69735047Y-61667820D01*
X69735051Y-61667816D01*
X69831557Y-61478412D01*
X69897246Y-61276243D01*
X69930500Y-61066287D01*
X69930500Y-60853713D01*
X69897246Y-60643757D01*
X69831557Y-60441588D01*
X69735051Y-60252184D01*
X69735049Y-60252181D01*
X69735048Y-60252179D01*
X69610109Y-60080213D01*
X69459786Y-59929890D01*
X69287817Y-59804949D01*
X69278504Y-59800204D01*
X69227707Y-59752230D01*
X69210912Y-59684409D01*
X69233449Y-59618274D01*
X69278507Y-59579232D01*
X69287555Y-59574622D01*
X69341716Y-59535270D01*
X69341717Y-59535270D01*
X68709408Y-58902962D01*
X68772993Y-58885925D01*
X68887007Y-58820099D01*
X68980099Y-58727007D01*
X69045925Y-58612993D01*
X69062962Y-58549408D01*
X69695270Y-59181717D01*
X69695270Y-59181716D01*
X69734622Y-59127554D01*
X69831095Y-58938217D01*
X69896757Y-58736130D01*
X69896757Y-58736127D01*
X69930000Y-58526246D01*
X69930000Y-58313753D01*
X69896757Y-58103872D01*
X69896757Y-58103869D01*
X69831095Y-57901782D01*
X69734624Y-57712449D01*
X69695270Y-57658282D01*
X69695269Y-57658282D01*
X69062962Y-58290590D01*
X69045925Y-58227007D01*
X68980099Y-58112993D01*
X68887007Y-58019901D01*
X68772993Y-57954075D01*
X68709408Y-57937037D01*
X69341716Y-57304728D01*
X69287547Y-57265373D01*
X69287547Y-57265372D01*
X69278500Y-57260763D01*
X69227706Y-57212788D01*
X69210912Y-57144966D01*
X69233451Y-57078832D01*
X69278508Y-57039793D01*
X69287816Y-57035051D01*
X69367007Y-56977515D01*
X69459786Y-56910109D01*
X69459788Y-56910106D01*
X69459792Y-56910104D01*
X69610104Y-56759792D01*
X69610106Y-56759788D01*
X69610109Y-56759786D01*
X69735048Y-56587820D01*
X69735047Y-56587820D01*
X69735051Y-56587816D01*
X69831557Y-56398412D01*
X69897246Y-56196243D01*
X69930500Y-55986287D01*
X69930500Y-55773713D01*
X69897246Y-55563757D01*
X69831557Y-55361588D01*
X69735051Y-55172184D01*
X69735049Y-55172181D01*
X69735048Y-55172179D01*
X69610109Y-55000213D01*
X69496569Y-54886673D01*
X69463084Y-54825350D01*
X69468068Y-54755658D01*
X69509940Y-54699725D01*
X69540915Y-54682810D01*
X69672331Y-54633796D01*
X69787546Y-54547546D01*
X69873796Y-54432331D01*
X69924091Y-54297483D01*
X69930500Y-54237873D01*
X69930499Y-52442128D01*
X69924091Y-52382517D01*
X69879784Y-52263725D01*
X69873797Y-52247671D01*
X69873793Y-52247664D01*
X69787546Y-52132454D01*
X69787544Y-52132452D01*
X69672335Y-52046206D01*
X69672328Y-52046202D01*
X69537482Y-51995908D01*
X69537483Y-51995908D01*
X69477883Y-51989501D01*
X69477881Y-51989500D01*
X69477873Y-51989500D01*
X69477864Y-51989500D01*
X67682129Y-51989500D01*
X67682123Y-51989501D01*
X67622516Y-51995908D01*
X67487671Y-52046202D01*
X67487664Y-52046206D01*
X67372455Y-52132452D01*
X67372454Y-52132454D01*
X67286206Y-52247664D01*
X67286202Y-52247671D01*
X67235908Y-52382517D01*
X67231497Y-52423553D01*
X67229501Y-52442123D01*
X67229500Y-52442135D01*
X67229500Y-54237870D01*
X67229501Y-54237876D01*
X67235908Y-54297483D01*
X67286202Y-54432328D01*
X67286206Y-54432335D01*
X67355358Y-54524709D01*
X67372454Y-54547546D01*
X67439895Y-54598032D01*
X67481765Y-54653965D01*
X67486749Y-54723657D01*
X67453264Y-54784980D01*
X67421890Y-54807777D01*
X67416596Y-54810474D01*
X67311719Y-54886673D01*
X67257354Y-54926172D01*
X67257352Y-54926174D01*
X67257351Y-54926174D01*
X62987174Y-59196351D01*
X62987174Y-59196352D01*
X62987172Y-59196354D01*
X62937485Y-59264741D01*
X62871476Y-59355594D01*
X62782113Y-59530978D01*
X62732262Y-59684409D01*
X62724453Y-59708443D01*
X62722397Y-59714769D01*
X62721290Y-59718176D01*
X62721290Y-59718179D01*
X62690500Y-59912577D01*
X62690500Y-62125049D01*
X62670815Y-62192088D01*
X62618011Y-62237843D01*
X62548853Y-62247787D01*
X62528183Y-62242980D01*
X62494425Y-62232011D01*
X62494418Y-62232010D01*
X62292317Y-62200000D01*
X62087683Y-62200000D01*
X61885582Y-62232009D01*
X61690968Y-62295244D01*
X61508644Y-62388143D01*
X61464077Y-62420523D01*
X61464077Y-62420524D01*
X62143553Y-63100000D01*
X62137339Y-63100000D01*
X62035606Y-63127259D01*
X61944394Y-63179920D01*
X61869920Y-63254394D01*
X61817259Y-63345606D01*
X61790000Y-63447339D01*
X61790000Y-63453553D01*
X61110524Y-62774077D01*
X61110523Y-62774077D01*
X61078143Y-62818644D01*
X60985244Y-63000968D01*
X60922009Y-63195582D01*
X60890000Y-63397682D01*
X60890000Y-63602317D01*
X60922009Y-63804417D01*
X60985244Y-63999031D01*
X61078141Y-64181350D01*
X61078147Y-64181359D01*
X61110523Y-64225921D01*
X61110524Y-64225922D01*
X61790000Y-63546446D01*
X61790000Y-63552661D01*
X61817259Y-63654394D01*
X61869920Y-63745606D01*
X61944394Y-63820080D01*
X62035606Y-63872741D01*
X62137339Y-63900000D01*
X62143552Y-63900000D01*
X61464076Y-64579474D01*
X61508650Y-64611859D01*
X61690968Y-64704755D01*
X61885582Y-64767990D01*
X62087683Y-64800000D01*
X62292317Y-64800000D01*
X62494418Y-64767989D01*
X62494424Y-64767988D01*
X62528180Y-64757020D01*
X62598021Y-64755023D01*
X62657854Y-64791103D01*
X62688684Y-64853803D01*
X62690500Y-64874950D01*
X62690500Y-67209663D01*
X62670815Y-67276702D01*
X62654181Y-67297344D01*
X61748343Y-68203181D01*
X61687020Y-68236666D01*
X61660663Y-68239500D01*
X61432130Y-68239500D01*
X61432123Y-68239501D01*
X61372516Y-68245908D01*
X61237671Y-68296202D01*
X61237664Y-68296206D01*
X61122455Y-68382452D01*
X61122452Y-68382455D01*
X61036206Y-68497664D01*
X61036202Y-68497671D01*
X60985908Y-68632517D01*
X60979501Y-68692116D01*
X60979500Y-68692135D01*
X60979500Y-68755732D01*
X60959815Y-68822771D01*
X60907011Y-68868526D01*
X60837853Y-68878470D01*
X60774297Y-68849445D01*
X60755182Y-68828618D01*
X60651771Y-68686287D01*
X60643828Y-68675354D01*
X60504646Y-68536172D01*
X58436819Y-66468345D01*
X58403334Y-66407022D01*
X58400500Y-66380664D01*
X58400500Y-64002607D01*
X58406569Y-63964289D01*
X58458477Y-63804534D01*
X58490500Y-63602352D01*
X58490500Y-63397648D01*
X58458477Y-63195466D01*
X58458476Y-63195462D01*
X58458476Y-63195461D01*
X58406569Y-63035709D01*
X58400500Y-62997391D01*
X58400500Y-54672219D01*
X58420185Y-54605180D01*
X58472989Y-54559425D01*
X58542147Y-54549481D01*
X58605703Y-54578506D01*
X58634987Y-54615929D01*
X58637152Y-54620178D01*
X58659923Y-54651521D01*
X59231531Y-54079914D01*
X59252029Y-54156413D01*
X59313906Y-54263587D01*
X59401413Y-54351094D01*
X59508587Y-54412971D01*
X59585084Y-54433468D01*
X59013476Y-55005075D01*
X59013477Y-55005076D01*
X59044812Y-55027842D01*
X59217455Y-55115810D01*
X59401739Y-55175688D01*
X59593119Y-55206000D01*
X59786881Y-55206000D01*
X59978260Y-55175688D01*
X60162544Y-55115810D01*
X60335184Y-55027844D01*
X60366521Y-55005075D01*
X60366522Y-55005074D01*
X59794915Y-54433467D01*
X59871413Y-54412971D01*
X59978587Y-54351094D01*
X60066094Y-54263587D01*
X60127971Y-54156413D01*
X60148468Y-54079915D01*
X60720074Y-54651522D01*
X60735323Y-54650321D01*
X60750843Y-54637027D01*
X60754113Y-54636575D01*
X60756727Y-54634560D01*
X60788488Y-54631831D01*
X60820057Y-54627474D01*
X60823050Y-54628861D01*
X60826340Y-54628579D01*
X60854532Y-54643453D01*
X60883448Y-54656856D01*
X60885894Y-54660000D01*
X60888136Y-54661183D01*
X60906410Y-54683660D01*
X60909550Y-54688607D01*
X60946657Y-54761434D01*
X61018800Y-54860730D01*
X61020891Y-54864024D01*
X61021951Y-54867712D01*
X61032380Y-54887139D01*
X61055204Y-54948333D01*
X61055205Y-54948334D01*
X61141452Y-55063544D01*
X61141455Y-55063547D01*
X61256666Y-55149794D01*
X61256667Y-55149794D01*
X61256669Y-55149796D01*
X61317861Y-55172619D01*
X61347407Y-55188479D01*
X61443566Y-55258343D01*
X61542992Y-55309003D01*
X61654003Y-55365566D01*
X61654005Y-55365566D01*
X61654008Y-55365568D01*
X61774412Y-55404689D01*
X61878631Y-55438553D01*
X62111903Y-55475500D01*
X62111908Y-55475500D01*
X62348097Y-55475500D01*
X62581368Y-55438553D01*
X62805992Y-55365568D01*
X63016434Y-55258343D01*
X63112592Y-55188478D01*
X63142133Y-55172620D01*
X63203331Y-55149796D01*
X63318546Y-55063546D01*
X63404796Y-54948331D01*
X63410894Y-54931978D01*
X63439393Y-54887632D01*
X67220209Y-51106819D01*
X67281532Y-51073334D01*
X67307890Y-51070500D01*
X75075927Y-51070500D01*
X75142966Y-51090185D01*
X75188721Y-51142989D01*
X75198665Y-51212147D01*
X75176245Y-51267386D01*
X75088140Y-51388650D01*
X74995244Y-51570968D01*
X74932009Y-51765582D01*
X74900000Y-51967682D01*
X74900000Y-52172317D01*
X74932009Y-52374417D01*
X74995244Y-52569031D01*
X75088141Y-52751350D01*
X75088147Y-52751359D01*
X75120523Y-52795921D01*
X75120524Y-52795922D01*
X75800000Y-52116446D01*
X75800000Y-52122661D01*
X75827259Y-52224394D01*
X75879920Y-52315606D01*
X75954394Y-52390080D01*
X76045606Y-52442741D01*
X76147339Y-52470000D01*
X76153553Y-52470000D01*
X75474076Y-53149474D01*
X75518650Y-53181859D01*
X75700968Y-53274755D01*
X75895582Y-53337990D01*
X76097683Y-53370000D01*
X76302317Y-53370000D01*
X76504417Y-53337990D01*
X76699031Y-53274755D01*
X76881349Y-53181859D01*
X76925921Y-53149474D01*
X76246447Y-52470000D01*
X76252661Y-52470000D01*
X76354394Y-52442741D01*
X76445606Y-52390080D01*
X76520080Y-52315606D01*
X76572741Y-52224394D01*
X76600000Y-52122661D01*
X76600000Y-52116447D01*
X77279474Y-52795921D01*
X77311859Y-52751349D01*
X77327975Y-52719718D01*
X77375948Y-52668921D01*
X77443768Y-52652123D01*
X77509904Y-52674658D01*
X77526143Y-52688328D01*
X78473181Y-53635366D01*
X78506666Y-53696689D01*
X78509500Y-53723047D01*
X78509500Y-58087110D01*
X78489815Y-58154149D01*
X78473181Y-58174791D01*
X76664792Y-59983181D01*
X76603469Y-60016666D01*
X76577111Y-60019500D01*
X76352486Y-60019500D01*
X76074085Y-60056153D01*
X76060007Y-60058007D01*
X75977133Y-60080213D01*
X75775048Y-60134361D01*
X75775038Y-60134364D01*
X75502499Y-60247254D01*
X75502489Y-60247258D01*
X75247006Y-60394761D01*
X75012959Y-60574352D01*
X75012952Y-60574358D01*
X74804358Y-60782952D01*
X74804352Y-60782959D01*
X74624761Y-61017006D01*
X74477258Y-61272489D01*
X74477254Y-61272499D01*
X74364364Y-61545038D01*
X74364361Y-61545048D01*
X74288008Y-61830004D01*
X74288006Y-61830015D01*
X74249500Y-62122486D01*
X74249500Y-62417513D01*
X74276186Y-62620208D01*
X74288007Y-62709993D01*
X74360780Y-62981588D01*
X74364361Y-62994951D01*
X74364364Y-62994961D01*
X74477254Y-63267500D01*
X74477258Y-63267510D01*
X74624761Y-63522993D01*
X74804352Y-63757040D01*
X74804358Y-63757047D01*
X75012952Y-63965641D01*
X75012959Y-63965647D01*
X75247006Y-64145238D01*
X75502489Y-64292741D01*
X75502490Y-64292741D01*
X75502493Y-64292743D01*
X75775048Y-64405639D01*
X76060007Y-64481993D01*
X76352494Y-64520500D01*
X76577111Y-64520500D01*
X76644150Y-64540185D01*
X76664792Y-64556819D01*
X76916292Y-64808319D01*
X76949777Y-64869642D01*
X76944793Y-64939334D01*
X76902921Y-64995267D01*
X76837457Y-65019684D01*
X76828611Y-65020000D01*
X76750000Y-65020000D01*
X76750000Y-66351116D01*
X76593567Y-66320000D01*
X76406433Y-66320000D01*
X76250000Y-66351116D01*
X76250000Y-65020000D01*
X75454787Y-65020000D01*
X75454772Y-65020001D01*
X75320525Y-65030566D01*
X75098847Y-65086423D01*
X74890712Y-65180962D01*
X74890703Y-65180967D01*
X74702796Y-65311151D01*
X74541151Y-65472796D01*
X74410967Y-65660703D01*
X74410962Y-65660712D01*
X74316423Y-65868847D01*
X74260566Y-66090525D01*
X74250000Y-66224773D01*
X74250000Y-67020000D01*
X75581116Y-67020000D01*
X75550000Y-67176433D01*
X75550000Y-67363567D01*
X75581116Y-67520000D01*
X74250001Y-67520000D01*
X74250001Y-68315227D01*
X74260566Y-68449474D01*
X74316423Y-68671152D01*
X74410962Y-68879287D01*
X74410967Y-68879296D01*
X74541151Y-69067203D01*
X74702796Y-69228848D01*
X74890703Y-69359032D01*
X74890712Y-69359037D01*
X75098847Y-69453576D01*
X75320525Y-69509433D01*
X75454780Y-69519999D01*
X76249999Y-69519999D01*
X76250000Y-69519998D01*
X76250000Y-68188883D01*
X76406433Y-68220000D01*
X76593567Y-68220000D01*
X76750000Y-68188883D01*
X76750000Y-69519999D01*
X77545212Y-69519999D01*
X77545227Y-69519998D01*
X77679474Y-69509433D01*
X77901152Y-69453576D01*
X78109287Y-69359037D01*
X78109296Y-69359032D01*
X78297197Y-69228853D01*
X78297809Y-69228241D01*
X78298162Y-69228047D01*
X78301478Y-69225280D01*
X78302026Y-69225937D01*
X78359129Y-69194750D01*
X78428821Y-69199726D01*
X78484759Y-69241592D01*
X78509183Y-69307053D01*
X78509500Y-69315913D01*
X78509500Y-79112097D01*
X78546446Y-79345368D01*
X78619433Y-79569996D01*
X78721394Y-79770104D01*
X78726657Y-79780433D01*
X78865483Y-79971510D01*
X79032490Y-80138517D01*
X79032493Y-80138519D01*
X79159899Y-80231085D01*
X79174695Y-80243722D01*
X79908483Y-80977510D01*
X80075490Y-81144517D01*
X80266567Y-81283343D01*
X80365991Y-81334002D01*
X80477003Y-81390566D01*
X80477005Y-81390566D01*
X80477008Y-81390568D01*
X80582141Y-81424728D01*
X80701631Y-81463553D01*
X80934903Y-81500500D01*
X81458185Y-81500500D01*
X81525224Y-81520185D01*
X81570979Y-81572989D01*
X81580923Y-81642147D01*
X81558503Y-81697385D01*
X81460379Y-81832442D01*
X81363904Y-82021782D01*
X81298242Y-82223869D01*
X81298242Y-82223872D01*
X81265000Y-82433753D01*
X81265000Y-82646246D01*
X81298242Y-82856127D01*
X81298242Y-82856130D01*
X81363904Y-83058217D01*
X81460375Y-83247550D01*
X81499728Y-83301716D01*
X82132037Y-82669408D01*
X82149075Y-82732993D01*
X82214901Y-82847007D01*
X82307993Y-82940099D01*
X82422007Y-83005925D01*
X82485590Y-83022962D01*
X81853282Y-83655269D01*
X81853282Y-83655270D01*
X81907449Y-83694624D01*
X82096782Y-83791095D01*
X82298870Y-83856757D01*
X82508754Y-83890000D01*
X82721246Y-83890000D01*
X82931127Y-83856757D01*
X82931130Y-83856757D01*
X83133217Y-83791095D01*
X83322554Y-83694622D01*
X83376716Y-83655270D01*
X83376717Y-83655270D01*
X82744408Y-83022962D01*
X82807993Y-83005925D01*
X82922007Y-82940099D01*
X83015099Y-82847007D01*
X83080925Y-82732993D01*
X83097962Y-82669409D01*
X83730270Y-83301717D01*
X83730270Y-83301716D01*
X83769622Y-83247554D01*
X83866095Y-83058217D01*
X83931757Y-82856130D01*
X83931757Y-82856127D01*
X83965000Y-82646246D01*
X83965000Y-82433753D01*
X83931757Y-82223872D01*
X83931757Y-82223869D01*
X83866095Y-82021782D01*
X83769624Y-81832449D01*
X83730270Y-81778282D01*
X83730269Y-81778282D01*
X83097962Y-82410590D01*
X83080925Y-82347007D01*
X83015099Y-82232993D01*
X82922007Y-82139901D01*
X82807993Y-82074075D01*
X82744408Y-82057037D01*
X83376716Y-81424728D01*
X83372976Y-81377206D01*
X83387340Y-81308829D01*
X83423707Y-81267159D01*
X83592510Y-81144517D01*
X83759517Y-80977510D01*
X83898343Y-80786433D01*
X84005568Y-80575992D01*
X84078553Y-80351368D01*
X84115500Y-80118097D01*
X84115500Y-79881902D01*
X84078553Y-79648631D01*
X84013305Y-79447820D01*
X84005568Y-79424008D01*
X84005566Y-79424005D01*
X84005566Y-79424003D01*
X83949002Y-79312991D01*
X83898343Y-79213567D01*
X83759517Y-79022490D01*
X83684419Y-78947392D01*
X83650934Y-78886069D01*
X83655918Y-78816377D01*
X83697790Y-78760444D01*
X83702461Y-78757442D01*
X83749109Y-78722520D01*
X83822546Y-78667546D01*
X83908796Y-78552331D01*
X83959091Y-78417483D01*
X83965500Y-78357873D01*
X83965499Y-76562128D01*
X83959091Y-76502517D01*
X83908796Y-76367669D01*
X83908795Y-76367668D01*
X83908793Y-76367664D01*
X83822547Y-76252455D01*
X83822544Y-76252452D01*
X83707335Y-76166206D01*
X83707328Y-76166202D01*
X83572482Y-76115908D01*
X83572483Y-76115908D01*
X83512883Y-76109501D01*
X83512881Y-76109500D01*
X83512873Y-76109500D01*
X83512864Y-76109500D01*
X81717129Y-76109500D01*
X81717123Y-76109501D01*
X81649804Y-76116738D01*
X81649497Y-76113890D01*
X81593211Y-76110856D01*
X81536552Y-76069972D01*
X81510990Y-76004946D01*
X81510500Y-75993932D01*
X81510500Y-70175513D01*
X85299500Y-70175513D01*
X85299500Y-70364486D01*
X85329059Y-70551118D01*
X85387454Y-70730836D01*
X85473240Y-70899199D01*
X85584310Y-71052073D01*
X85717927Y-71185690D01*
X85870801Y-71296760D01*
X85950347Y-71337290D01*
X86039163Y-71382545D01*
X86039165Y-71382545D01*
X86039168Y-71382547D01*
X86135497Y-71413846D01*
X86218881Y-71440940D01*
X86405514Y-71470500D01*
X86405519Y-71470500D01*
X86594486Y-71470500D01*
X86781118Y-71440940D01*
X86960832Y-71382547D01*
X87129199Y-71296760D01*
X87282073Y-71185690D01*
X87415690Y-71052073D01*
X87526760Y-70899199D01*
X87612547Y-70730832D01*
X87670940Y-70551118D01*
X87687933Y-70443828D01*
X87700500Y-70364486D01*
X87700500Y-70175513D01*
X87670940Y-69988881D01*
X87641165Y-69897246D01*
X87612547Y-69809168D01*
X87612545Y-69809165D01*
X87612545Y-69809163D01*
X87526759Y-69640800D01*
X87415690Y-69487927D01*
X87282073Y-69354310D01*
X87129199Y-69243240D01*
X87095240Y-69225937D01*
X86960836Y-69157454D01*
X86781118Y-69099059D01*
X86594486Y-69069500D01*
X86594481Y-69069500D01*
X86405519Y-69069500D01*
X86405514Y-69069500D01*
X86218881Y-69099059D01*
X86039163Y-69157454D01*
X85870800Y-69243240D01*
X85809442Y-69287820D01*
X85717927Y-69354310D01*
X85717925Y-69354312D01*
X85717924Y-69354312D01*
X85584312Y-69487924D01*
X85584312Y-69487925D01*
X85584310Y-69487927D01*
X85568685Y-69509433D01*
X85473240Y-69640800D01*
X85387454Y-69809163D01*
X85329059Y-69988881D01*
X85299500Y-70175513D01*
X81510500Y-70175513D01*
X81510500Y-65661902D01*
X81473553Y-65428631D01*
X81400566Y-65204003D01*
X81312195Y-65030566D01*
X81293343Y-64993567D01*
X81277321Y-64971514D01*
X81277319Y-64971511D01*
X81277319Y-64971510D01*
X81211185Y-64880486D01*
X81154518Y-64802490D01*
X78786819Y-62434791D01*
X78772115Y-62407863D01*
X78755523Y-62382045D01*
X78754631Y-62375844D01*
X78753334Y-62373468D01*
X78750500Y-62347110D01*
X78750500Y-62192889D01*
X78770185Y-62125850D01*
X78786819Y-62105208D01*
X79875021Y-61017006D01*
X81154518Y-59737510D01*
X81293343Y-59546433D01*
X81400568Y-59335992D01*
X81450695Y-59181717D01*
X81452711Y-59175513D01*
X85299500Y-59175513D01*
X85299500Y-59364486D01*
X85329059Y-59551118D01*
X85387454Y-59730836D01*
X85425217Y-59804949D01*
X85473240Y-59899199D01*
X85584310Y-60052073D01*
X85717927Y-60185690D01*
X85870801Y-60296760D01*
X85950347Y-60337290D01*
X86039163Y-60382545D01*
X86039165Y-60382545D01*
X86039168Y-60382547D01*
X86076759Y-60394761D01*
X86218881Y-60440940D01*
X86405514Y-60470500D01*
X86405519Y-60470500D01*
X86594486Y-60470500D01*
X86781118Y-60440940D01*
X86960832Y-60382547D01*
X87129199Y-60296760D01*
X87282073Y-60185690D01*
X87415690Y-60052073D01*
X87526760Y-59899199D01*
X87612547Y-59730832D01*
X87670940Y-59551118D01*
X87674130Y-59530978D01*
X87700500Y-59364486D01*
X87700500Y-59175513D01*
X87670940Y-58988881D01*
X87637487Y-58885925D01*
X87612547Y-58809168D01*
X87612545Y-58809165D01*
X87612545Y-58809163D01*
X87526759Y-58640800D01*
X87506556Y-58612993D01*
X87415690Y-58487927D01*
X87282073Y-58354310D01*
X87129199Y-58243240D01*
X87097340Y-58227007D01*
X86960836Y-58157454D01*
X86781118Y-58099059D01*
X86594486Y-58069500D01*
X86594481Y-58069500D01*
X86405519Y-58069500D01*
X86405514Y-58069500D01*
X86218881Y-58099059D01*
X86039163Y-58157454D01*
X85870800Y-58243240D01*
X85818888Y-58280957D01*
X85717927Y-58354310D01*
X85717925Y-58354312D01*
X85717924Y-58354312D01*
X85584312Y-58487924D01*
X85584312Y-58487925D01*
X85584310Y-58487927D01*
X85536610Y-58553579D01*
X85473240Y-58640800D01*
X85387454Y-58809163D01*
X85329059Y-58988881D01*
X85299500Y-59175513D01*
X81452711Y-59175513D01*
X81466743Y-59132328D01*
X81466743Y-59132327D01*
X81473552Y-59111372D01*
X81473552Y-59111371D01*
X81473553Y-59111368D01*
X81492953Y-58988881D01*
X81510500Y-58878097D01*
X81510500Y-52932060D01*
X81473553Y-52698789D01*
X81400566Y-52474161D01*
X81344002Y-52363149D01*
X81293343Y-52263725D01*
X81197969Y-52132454D01*
X81197968Y-52132452D01*
X81197967Y-52132450D01*
X81154521Y-52072652D01*
X81154516Y-52072646D01*
X77507354Y-48425485D01*
X77507353Y-48425484D01*
X77507350Y-48425482D01*
X77316276Y-48286657D01*
X77105838Y-48179433D01*
X76881210Y-48106446D01*
X76647939Y-48069500D01*
X76647934Y-48069500D01*
X76318092Y-48069500D01*
X66753092Y-48069500D01*
X66516908Y-48069500D01*
X66516903Y-48069500D01*
X66283631Y-48106446D01*
X66059003Y-48179433D01*
X65848563Y-48286659D01*
X65657496Y-48425476D01*
X65657491Y-48425480D01*
X61317367Y-52765604D01*
X61273023Y-52794103D01*
X61256675Y-52800200D01*
X61256668Y-52800204D01*
X61211271Y-52834189D01*
X61141454Y-52886454D01*
X61141453Y-52886455D01*
X61141452Y-52886456D01*
X61055205Y-53001665D01*
X61032379Y-53062863D01*
X61020890Y-53085977D01*
X61018801Y-53089266D01*
X60946657Y-53188566D01*
X60909553Y-53261385D01*
X60906411Y-53266337D01*
X60884362Y-53285660D01*
X60864228Y-53306979D01*
X60858387Y-53308425D01*
X60853865Y-53312389D01*
X60824871Y-53316724D01*
X60796407Y-53323773D01*
X60790712Y-53321832D01*
X60784764Y-53322722D01*
X60758029Y-53310694D01*
X60730272Y-53301235D01*
X60728116Y-53299109D01*
X60720075Y-53298476D01*
X60148467Y-53870083D01*
X60127971Y-53793587D01*
X60066094Y-53686413D01*
X59978587Y-53598906D01*
X59871413Y-53537029D01*
X59794914Y-53516531D01*
X60366521Y-52944923D01*
X60335180Y-52922153D01*
X60162544Y-52834189D01*
X59978260Y-52774311D01*
X59786881Y-52744000D01*
X59593119Y-52744000D01*
X59401739Y-52774311D01*
X59217450Y-52834191D01*
X59044818Y-52922153D01*
X59013477Y-52944922D01*
X59013477Y-52944923D01*
X59585085Y-53516531D01*
X59508587Y-53537029D01*
X59401413Y-53598906D01*
X59313906Y-53686413D01*
X59252029Y-53793587D01*
X59231531Y-53870085D01*
X58659923Y-53298477D01*
X58659922Y-53298477D01*
X58637153Y-53329818D01*
X58549191Y-53502451D01*
X58549187Y-53502459D01*
X58548181Y-53505558D01*
X58547480Y-53506582D01*
X58547327Y-53506953D01*
X58547249Y-53506920D01*
X58508742Y-53563232D01*
X58444382Y-53590427D01*
X58375536Y-53578510D01*
X58324062Y-53531264D01*
X58312322Y-53505555D01*
X58308884Y-53494974D01*
X58245206Y-53370000D01*
X58219524Y-53319595D01*
X58103828Y-53160354D01*
X57964646Y-53021172D01*
X57805405Y-52905476D01*
X57768072Y-52886454D01*
X57630029Y-52816117D01*
X57442826Y-52755290D01*
X57248422Y-52724500D01*
X57248417Y-52724500D01*
X57051583Y-52724500D01*
X57051578Y-52724500D01*
X56857173Y-52755290D01*
X56669970Y-52816117D01*
X56494594Y-52905476D01*
X56440301Y-52944923D01*
X56335354Y-53021172D01*
X56335352Y-53021174D01*
X56335351Y-53021174D01*
X56196174Y-53160351D01*
X56196174Y-53160352D01*
X56196172Y-53160354D01*
X56180548Y-53181859D01*
X56080476Y-53319594D01*
X55991117Y-53494970D01*
X55930290Y-53682173D01*
X55899500Y-53876577D01*
X55899500Y-63324754D01*
X55898185Y-63341455D01*
X55898181Y-63342790D01*
X55898081Y-63343469D01*
X55889500Y-63397648D01*
X52150500Y-63397648D01*
X52150500Y-63393713D01*
X52117246Y-63183757D01*
X52051557Y-62981588D01*
X51955051Y-62792184D01*
X51955049Y-62792181D01*
X51955048Y-62792179D01*
X51830109Y-62620213D01*
X51679786Y-62469890D01*
X51507820Y-62344951D01*
X51500293Y-62341116D01*
X51499054Y-62340485D01*
X51448259Y-62292512D01*
X51431463Y-62224692D01*
X51453999Y-62158556D01*
X51499054Y-62119515D01*
X51507816Y-62115051D01*
X51529789Y-62099086D01*
X51679786Y-61990109D01*
X51679788Y-61990106D01*
X51679792Y-61990104D01*
X51830104Y-61839792D01*
X51830106Y-61839788D01*
X51830109Y-61839786D01*
X51955048Y-61667820D01*
X51955047Y-61667820D01*
X51955051Y-61667816D01*
X52051557Y-61478412D01*
X52117246Y-61276243D01*
X52150500Y-61066287D01*
X52150500Y-60853713D01*
X52117246Y-60643757D01*
X52051557Y-60441588D01*
X51955051Y-60252184D01*
X51955049Y-60252181D01*
X51955048Y-60252179D01*
X51830109Y-60080213D01*
X51679786Y-59929890D01*
X51507817Y-59804949D01*
X51498504Y-59800204D01*
X51447707Y-59752230D01*
X51430912Y-59684409D01*
X51453449Y-59618274D01*
X51498507Y-59579232D01*
X51507555Y-59574622D01*
X51561716Y-59535270D01*
X51561717Y-59535270D01*
X50929408Y-58902962D01*
X50992993Y-58885925D01*
X51107007Y-58820099D01*
X51200099Y-58727007D01*
X51265925Y-58612993D01*
X51282962Y-58549408D01*
X51915270Y-59181717D01*
X51915270Y-59181716D01*
X51954622Y-59127554D01*
X52051095Y-58938217D01*
X52116757Y-58736130D01*
X52116757Y-58736127D01*
X52150000Y-58526246D01*
X52150000Y-58313753D01*
X52116757Y-58103872D01*
X52116757Y-58103869D01*
X52051095Y-57901782D01*
X51954624Y-57712449D01*
X51915270Y-57658282D01*
X51915269Y-57658282D01*
X51282962Y-58290590D01*
X51265925Y-58227007D01*
X51200099Y-58112993D01*
X51107007Y-58019901D01*
X50992993Y-57954075D01*
X50929409Y-57937037D01*
X51561716Y-57304728D01*
X51507547Y-57265373D01*
X51507547Y-57265372D01*
X51498500Y-57260763D01*
X51447706Y-57212788D01*
X51430912Y-57144966D01*
X51453451Y-57078832D01*
X51498508Y-57039793D01*
X51507816Y-57035051D01*
X51587007Y-56977515D01*
X51679786Y-56910109D01*
X51679788Y-56910106D01*
X51679792Y-56910104D01*
X51830104Y-56759792D01*
X51830106Y-56759788D01*
X51830109Y-56759786D01*
X51955048Y-56587820D01*
X51955047Y-56587820D01*
X51955051Y-56587816D01*
X52051557Y-56398412D01*
X52117246Y-56196243D01*
X52150500Y-55986287D01*
X52150500Y-55773713D01*
X52117246Y-55563757D01*
X52051557Y-55361588D01*
X51955051Y-55172184D01*
X51955049Y-55172181D01*
X51955048Y-55172179D01*
X51830109Y-55000213D01*
X51716569Y-54886673D01*
X51683084Y-54825350D01*
X51688068Y-54755658D01*
X51729940Y-54699725D01*
X51760915Y-54682810D01*
X51892331Y-54633796D01*
X52007546Y-54547546D01*
X52093796Y-54432331D01*
X52144091Y-54297483D01*
X52150500Y-54237873D01*
X52150499Y-52442128D01*
X52144091Y-52382517D01*
X52099784Y-52263725D01*
X52093797Y-52247671D01*
X52093793Y-52247664D01*
X52007546Y-52132454D01*
X52007544Y-52132452D01*
X51892335Y-52046206D01*
X51892328Y-52046202D01*
X51757482Y-51995908D01*
X51757483Y-51995908D01*
X51697883Y-51989501D01*
X51697881Y-51989500D01*
X51697873Y-51989500D01*
X51697864Y-51989500D01*
X49902129Y-51989500D01*
X49902123Y-51989501D01*
X49842516Y-51995908D01*
X49707671Y-52046202D01*
X49707664Y-52046206D01*
X49592455Y-52132452D01*
X49592454Y-52132454D01*
X49506206Y-52247664D01*
X49506202Y-52247671D01*
X49455908Y-52382517D01*
X49451497Y-52423553D01*
X49449501Y-52442123D01*
X49449500Y-52442135D01*
X48000500Y-52442135D01*
X48000500Y-46503051D01*
X48000649Y-46496966D01*
X48006459Y-46378711D01*
X49649500Y-46378711D01*
X49649500Y-46621288D01*
X49681161Y-46861785D01*
X49743947Y-47096104D01*
X49836773Y-47320205D01*
X49836776Y-47320212D01*
X49958064Y-47530289D01*
X49958066Y-47530292D01*
X49958067Y-47530293D01*
X50105733Y-47722736D01*
X50105739Y-47722743D01*
X50277256Y-47894260D01*
X50277262Y-47894265D01*
X50469711Y-48041936D01*
X50679788Y-48163224D01*
X50903900Y-48256054D01*
X51138211Y-48318838D01*
X51318586Y-48342584D01*
X51378711Y-48350500D01*
X51378712Y-48350500D01*
X51621289Y-48350500D01*
X51669388Y-48344167D01*
X51861789Y-48318838D01*
X52096100Y-48256054D01*
X52320212Y-48163224D01*
X52530289Y-48041936D01*
X52722738Y-47894265D01*
X52894265Y-47722738D01*
X53041936Y-47530289D01*
X53163224Y-47320212D01*
X53256054Y-47096100D01*
X53318838Y-46861789D01*
X53350500Y-46621288D01*
X53350500Y-46378712D01*
X53350500Y-46378711D01*
X84149500Y-46378711D01*
X84149500Y-46621288D01*
X84181161Y-46861785D01*
X84243947Y-47096104D01*
X84336773Y-47320205D01*
X84336776Y-47320212D01*
X84458064Y-47530289D01*
X84458066Y-47530292D01*
X84458067Y-47530293D01*
X84605733Y-47722736D01*
X84605739Y-47722743D01*
X84777256Y-47894260D01*
X84777262Y-47894265D01*
X84969711Y-48041936D01*
X85179788Y-48163224D01*
X85403900Y-48256054D01*
X85638211Y-48318838D01*
X85818586Y-48342584D01*
X85878711Y-48350500D01*
X85878712Y-48350500D01*
X86121289Y-48350500D01*
X86169388Y-48344167D01*
X86361789Y-48318838D01*
X86596100Y-48256054D01*
X86820212Y-48163224D01*
X87030289Y-48041936D01*
X87222738Y-47894265D01*
X87394265Y-47722738D01*
X87541936Y-47530289D01*
X87663224Y-47320212D01*
X87756054Y-47096100D01*
X87818838Y-46861789D01*
X87850500Y-46621288D01*
X87850500Y-46378712D01*
X87849164Y-46368567D01*
X87822111Y-46163072D01*
X87818838Y-46138211D01*
X87756054Y-45903900D01*
X87663224Y-45679788D01*
X87541936Y-45469711D01*
X87394265Y-45277262D01*
X87394260Y-45277256D01*
X87222743Y-45105739D01*
X87222736Y-45105733D01*
X87030293Y-44958067D01*
X87030292Y-44958066D01*
X87030289Y-44958064D01*
X86820212Y-44836776D01*
X86820205Y-44836773D01*
X86596104Y-44743947D01*
X86361785Y-44681161D01*
X86121289Y-44649500D01*
X86121288Y-44649500D01*
X85878712Y-44649500D01*
X85878711Y-44649500D01*
X85638214Y-44681161D01*
X85403895Y-44743947D01*
X85179794Y-44836773D01*
X85179785Y-44836777D01*
X84969706Y-44958067D01*
X84777263Y-45105733D01*
X84777256Y-45105739D01*
X84605739Y-45277256D01*
X84605733Y-45277263D01*
X84458067Y-45469706D01*
X84336777Y-45679785D01*
X84336773Y-45679794D01*
X84243947Y-45903895D01*
X84181161Y-46138214D01*
X84149500Y-46378711D01*
X53350500Y-46378711D01*
X53349164Y-46368567D01*
X53322111Y-46163072D01*
X53318838Y-46138211D01*
X53256054Y-45903900D01*
X53163224Y-45679788D01*
X53041936Y-45469711D01*
X52894265Y-45277262D01*
X52894260Y-45277256D01*
X52722743Y-45105739D01*
X52722736Y-45105733D01*
X52530293Y-44958067D01*
X52530292Y-44958066D01*
X52530289Y-44958064D01*
X52320212Y-44836776D01*
X52320205Y-44836773D01*
X52096104Y-44743947D01*
X51861785Y-44681161D01*
X51621289Y-44649500D01*
X51621288Y-44649500D01*
X51378712Y-44649500D01*
X51378711Y-44649500D01*
X51138214Y-44681161D01*
X50903895Y-44743947D01*
X50679794Y-44836773D01*
X50679785Y-44836777D01*
X50469706Y-44958067D01*
X50277263Y-45105733D01*
X50277256Y-45105739D01*
X50105739Y-45277256D01*
X50105733Y-45277263D01*
X49958067Y-45469706D01*
X49836777Y-45679785D01*
X49836773Y-45679794D01*
X49743947Y-45903895D01*
X49681161Y-46138214D01*
X49649500Y-46378711D01*
X48006459Y-46378711D01*
X48006957Y-46368568D01*
X48006957Y-46368567D01*
X48017052Y-46163072D01*
X48018245Y-46150962D01*
X48020136Y-46138211D01*
X48066849Y-45823296D01*
X48069218Y-45811385D01*
X48149710Y-45490043D01*
X48153240Y-45478411D01*
X48225212Y-45277263D01*
X48264835Y-45166525D01*
X48269476Y-45155318D01*
X48411124Y-44855828D01*
X48416840Y-44845136D01*
X48587145Y-44560998D01*
X48593888Y-44550905D01*
X48791232Y-44284818D01*
X48798935Y-44275433D01*
X49021405Y-44029975D01*
X49029975Y-44021405D01*
X49275433Y-43798935D01*
X49284818Y-43791232D01*
X49550905Y-43593888D01*
X49560998Y-43587145D01*
X49845136Y-43416840D01*
X49855828Y-43411124D01*
X50155318Y-43269476D01*
X50166525Y-43264835D01*
X50478412Y-43153239D01*
X50490043Y-43149710D01*
X50811385Y-43069218D01*
X50823296Y-43066849D01*
X51150962Y-43018244D01*
X51163068Y-43017052D01*
X51496967Y-43000648D01*
X51503051Y-43000500D01*
X51565892Y-43000500D01*
X85934108Y-43000500D01*
X85996949Y-43000500D01*
X86003032Y-43000648D01*
G37*
%TD.AperFunction*%
%TD*%
M02*
