%TF.GenerationSoftware,KiCad,Pcbnew,9.0.6*%
%TF.CreationDate,2025-12-26T01:32:08+09:00*%
%TF.ProjectId,PicomniRover,5069636f-6d6e-4695-926f-7665722e6b69,rev?*%
%TF.SameCoordinates,Original*%
%TF.FileFunction,Legend,Top*%
%TF.FilePolarity,Positive*%
%FSLAX46Y46*%
G04 Gerber Fmt 4.6, Leading zero omitted, Abs format (unit mm)*
G04 Created by KiCad (PCBNEW 9.0.6) date 2025-12-26 01:32:08*
%MOMM*%
%LPD*%
G01*
G04 APERTURE LIST*
G04 Aperture macros list*
%AMRoundRect*
0 Rectangle with rounded corners*
0 $1 Rounding radius*
0 $2 $3 $4 $5 $6 $7 $8 $9 X,Y pos of 4 corners*
0 Add a 4 corners polygon primitive as box body*
4,1,4,$2,$3,$4,$5,$6,$7,$8,$9,$2,$3,0*
0 Add four circle primitives for the rounded corners*
1,1,$1+$1,$2,$3*
1,1,$1+$1,$4,$5*
1,1,$1+$1,$6,$7*
1,1,$1+$1,$8,$9*
0 Add four rect primitives between the rounded corners*
20,1,$1+$1,$2,$3,$4,$5,0*
20,1,$1+$1,$4,$5,$6,$7,0*
20,1,$1+$1,$6,$7,$8,$9,0*
20,1,$1+$1,$8,$9,$2,$3,0*%
G04 Aperture macros list end*
%ADD10C,0.150000*%
%ADD11C,0.254000*%
%ADD12C,0.120000*%
%ADD13C,0.200000*%
%ADD14C,0.100000*%
%ADD15R,1.700000X1.700000*%
%ADD16C,1.700000*%
%ADD17C,3.200000*%
%ADD18R,1.500000X1.500000*%
%ADD19C,1.500000*%
%ADD20C,1.600000*%
%ADD21R,1.462000X1.462000*%
%ADD22C,1.462000*%
%ADD23RoundRect,0.250000X-0.550000X0.550000X-0.550000X-0.550000X0.550000X-0.550000X0.550000X0.550000X0*%
%ADD24C,1.400000*%
%ADD25RoundRect,0.770000X-0.980000X0.980000X-0.980000X-0.980000X0.980000X-0.980000X0.980000X0.980000X0*%
%ADD26C,3.500000*%
G04 APERTURE END LIST*
D10*
X61095237Y-108954819D02*
X61095237Y-107954819D01*
X61095237Y-107954819D02*
X61333332Y-107954819D01*
X61333332Y-107954819D02*
X61476189Y-108002438D01*
X61476189Y-108002438D02*
X61571427Y-108097676D01*
X61571427Y-108097676D02*
X61619046Y-108192914D01*
X61619046Y-108192914D02*
X61666665Y-108383390D01*
X61666665Y-108383390D02*
X61666665Y-108526247D01*
X61666665Y-108526247D02*
X61619046Y-108716723D01*
X61619046Y-108716723D02*
X61571427Y-108811961D01*
X61571427Y-108811961D02*
X61476189Y-108907200D01*
X61476189Y-108907200D02*
X61333332Y-108954819D01*
X61333332Y-108954819D02*
X61095237Y-108954819D01*
X62476189Y-108907200D02*
X62380951Y-108954819D01*
X62380951Y-108954819D02*
X62190475Y-108954819D01*
X62190475Y-108954819D02*
X62095237Y-108907200D01*
X62095237Y-108907200D02*
X62047618Y-108811961D01*
X62047618Y-108811961D02*
X62047618Y-108431009D01*
X62047618Y-108431009D02*
X62095237Y-108335771D01*
X62095237Y-108335771D02*
X62190475Y-108288152D01*
X62190475Y-108288152D02*
X62380951Y-108288152D01*
X62380951Y-108288152D02*
X62476189Y-108335771D01*
X62476189Y-108335771D02*
X62523808Y-108431009D01*
X62523808Y-108431009D02*
X62523808Y-108526247D01*
X62523808Y-108526247D02*
X62047618Y-108621485D01*
X62904761Y-108907200D02*
X62999999Y-108954819D01*
X62999999Y-108954819D02*
X63190475Y-108954819D01*
X63190475Y-108954819D02*
X63285713Y-108907200D01*
X63285713Y-108907200D02*
X63333332Y-108811961D01*
X63333332Y-108811961D02*
X63333332Y-108764342D01*
X63333332Y-108764342D02*
X63285713Y-108669104D01*
X63285713Y-108669104D02*
X63190475Y-108621485D01*
X63190475Y-108621485D02*
X63047618Y-108621485D01*
X63047618Y-108621485D02*
X62952380Y-108573866D01*
X62952380Y-108573866D02*
X62904761Y-108478628D01*
X62904761Y-108478628D02*
X62904761Y-108431009D01*
X62904761Y-108431009D02*
X62952380Y-108335771D01*
X62952380Y-108335771D02*
X63047618Y-108288152D01*
X63047618Y-108288152D02*
X63190475Y-108288152D01*
X63190475Y-108288152D02*
X63285713Y-108335771D01*
X63761904Y-108954819D02*
X63761904Y-108288152D01*
X63761904Y-107954819D02*
X63714285Y-108002438D01*
X63714285Y-108002438D02*
X63761904Y-108050057D01*
X63761904Y-108050057D02*
X63809523Y-108002438D01*
X63809523Y-108002438D02*
X63761904Y-107954819D01*
X63761904Y-107954819D02*
X63761904Y-108050057D01*
X64666665Y-108288152D02*
X64666665Y-109097676D01*
X64666665Y-109097676D02*
X64619046Y-109192914D01*
X64619046Y-109192914D02*
X64571427Y-109240533D01*
X64571427Y-109240533D02*
X64476189Y-109288152D01*
X64476189Y-109288152D02*
X64333332Y-109288152D01*
X64333332Y-109288152D02*
X64238094Y-109240533D01*
X64666665Y-108907200D02*
X64571427Y-108954819D01*
X64571427Y-108954819D02*
X64380951Y-108954819D01*
X64380951Y-108954819D02*
X64285713Y-108907200D01*
X64285713Y-108907200D02*
X64238094Y-108859580D01*
X64238094Y-108859580D02*
X64190475Y-108764342D01*
X64190475Y-108764342D02*
X64190475Y-108478628D01*
X64190475Y-108478628D02*
X64238094Y-108383390D01*
X64238094Y-108383390D02*
X64285713Y-108335771D01*
X64285713Y-108335771D02*
X64380951Y-108288152D01*
X64380951Y-108288152D02*
X64571427Y-108288152D01*
X64571427Y-108288152D02*
X64666665Y-108335771D01*
X65142856Y-108288152D02*
X65142856Y-108954819D01*
X65142856Y-108383390D02*
X65190475Y-108335771D01*
X65190475Y-108335771D02*
X65285713Y-108288152D01*
X65285713Y-108288152D02*
X65428570Y-108288152D01*
X65428570Y-108288152D02*
X65523808Y-108335771D01*
X65523808Y-108335771D02*
X65571427Y-108431009D01*
X65571427Y-108431009D02*
X65571427Y-108954819D01*
X66428570Y-108907200D02*
X66333332Y-108954819D01*
X66333332Y-108954819D02*
X66142856Y-108954819D01*
X66142856Y-108954819D02*
X66047618Y-108907200D01*
X66047618Y-108907200D02*
X65999999Y-108811961D01*
X65999999Y-108811961D02*
X65999999Y-108431009D01*
X65999999Y-108431009D02*
X66047618Y-108335771D01*
X66047618Y-108335771D02*
X66142856Y-108288152D01*
X66142856Y-108288152D02*
X66333332Y-108288152D01*
X66333332Y-108288152D02*
X66428570Y-108335771D01*
X66428570Y-108335771D02*
X66476189Y-108431009D01*
X66476189Y-108431009D02*
X66476189Y-108526247D01*
X66476189Y-108526247D02*
X65999999Y-108621485D01*
X67333332Y-108954819D02*
X67333332Y-107954819D01*
X67333332Y-108907200D02*
X67238094Y-108954819D01*
X67238094Y-108954819D02*
X67047618Y-108954819D01*
X67047618Y-108954819D02*
X66952380Y-108907200D01*
X66952380Y-108907200D02*
X66904761Y-108859580D01*
X66904761Y-108859580D02*
X66857142Y-108764342D01*
X66857142Y-108764342D02*
X66857142Y-108478628D01*
X66857142Y-108478628D02*
X66904761Y-108383390D01*
X66904761Y-108383390D02*
X66952380Y-108335771D01*
X66952380Y-108335771D02*
X67047618Y-108288152D01*
X67047618Y-108288152D02*
X67238094Y-108288152D01*
X67238094Y-108288152D02*
X67333332Y-108335771D01*
X68571428Y-108954819D02*
X68571428Y-107954819D01*
X68571428Y-108335771D02*
X68666666Y-108288152D01*
X68666666Y-108288152D02*
X68857142Y-108288152D01*
X68857142Y-108288152D02*
X68952380Y-108335771D01*
X68952380Y-108335771D02*
X68999999Y-108383390D01*
X68999999Y-108383390D02*
X69047618Y-108478628D01*
X69047618Y-108478628D02*
X69047618Y-108764342D01*
X69047618Y-108764342D02*
X68999999Y-108859580D01*
X68999999Y-108859580D02*
X68952380Y-108907200D01*
X68952380Y-108907200D02*
X68857142Y-108954819D01*
X68857142Y-108954819D02*
X68666666Y-108954819D01*
X68666666Y-108954819D02*
X68571428Y-108907200D01*
X69380952Y-108288152D02*
X69619047Y-108954819D01*
X69857142Y-108288152D02*
X69619047Y-108954819D01*
X69619047Y-108954819D02*
X69523809Y-109192914D01*
X69523809Y-109192914D02*
X69476190Y-109240533D01*
X69476190Y-109240533D02*
X69380952Y-109288152D01*
X71619047Y-108478628D02*
X71571428Y-108431009D01*
X71571428Y-108431009D02*
X71476190Y-108383390D01*
X71476190Y-108383390D02*
X71380952Y-108383390D01*
X71380952Y-108383390D02*
X71285714Y-108431009D01*
X71285714Y-108431009D02*
X71238095Y-108478628D01*
X71238095Y-108478628D02*
X71190476Y-108573866D01*
X71190476Y-108573866D02*
X71190476Y-108669104D01*
X71190476Y-108669104D02*
X71238095Y-108764342D01*
X71238095Y-108764342D02*
X71285714Y-108811961D01*
X71285714Y-108811961D02*
X71380952Y-108859580D01*
X71380952Y-108859580D02*
X71476190Y-108859580D01*
X71476190Y-108859580D02*
X71571428Y-108811961D01*
X71571428Y-108811961D02*
X71619047Y-108764342D01*
X71619047Y-108383390D02*
X71619047Y-108764342D01*
X71619047Y-108764342D02*
X71666666Y-108811961D01*
X71666666Y-108811961D02*
X71714285Y-108811961D01*
X71714285Y-108811961D02*
X71809524Y-108764342D01*
X71809524Y-108764342D02*
X71857143Y-108669104D01*
X71857143Y-108669104D02*
X71857143Y-108431009D01*
X71857143Y-108431009D02*
X71761905Y-108288152D01*
X71761905Y-108288152D02*
X71619047Y-108192914D01*
X71619047Y-108192914D02*
X71428571Y-108145295D01*
X71428571Y-108145295D02*
X71238095Y-108192914D01*
X71238095Y-108192914D02*
X71095238Y-108288152D01*
X71095238Y-108288152D02*
X71000000Y-108431009D01*
X71000000Y-108431009D02*
X70952381Y-108621485D01*
X70952381Y-108621485D02*
X71000000Y-108811961D01*
X71000000Y-108811961D02*
X71095238Y-108954819D01*
X71095238Y-108954819D02*
X71238095Y-109050057D01*
X71238095Y-109050057D02*
X71428571Y-109097676D01*
X71428571Y-109097676D02*
X71619047Y-109050057D01*
X71619047Y-109050057D02*
X71761905Y-108954819D01*
X72666666Y-108907200D02*
X72571428Y-108954819D01*
X72571428Y-108954819D02*
X72380952Y-108954819D01*
X72380952Y-108954819D02*
X72285714Y-108907200D01*
X72285714Y-108907200D02*
X72238095Y-108811961D01*
X72238095Y-108811961D02*
X72238095Y-108431009D01*
X72238095Y-108431009D02*
X72285714Y-108335771D01*
X72285714Y-108335771D02*
X72380952Y-108288152D01*
X72380952Y-108288152D02*
X72571428Y-108288152D01*
X72571428Y-108288152D02*
X72666666Y-108335771D01*
X72666666Y-108335771D02*
X72714285Y-108431009D01*
X72714285Y-108431009D02*
X72714285Y-108526247D01*
X72714285Y-108526247D02*
X72238095Y-108621485D01*
X73047619Y-108288152D02*
X73285714Y-108954819D01*
X73523809Y-108288152D02*
X73285714Y-108954819D01*
X73285714Y-108954819D02*
X73190476Y-109192914D01*
X73190476Y-109192914D02*
X73142857Y-109240533D01*
X73142857Y-109240533D02*
X73047619Y-109288152D01*
X73904762Y-108954819D02*
X73904762Y-108288152D01*
X73904762Y-108478628D02*
X73952381Y-108383390D01*
X73952381Y-108383390D02*
X74000000Y-108335771D01*
X74000000Y-108335771D02*
X74095238Y-108288152D01*
X74095238Y-108288152D02*
X74190476Y-108288152D01*
X75047619Y-108954819D02*
X74476191Y-108954819D01*
X74761905Y-108954819D02*
X74761905Y-107954819D01*
X74761905Y-107954819D02*
X74666667Y-108097676D01*
X74666667Y-108097676D02*
X74571429Y-108192914D01*
X74571429Y-108192914D02*
X74476191Y-108240533D01*
X75476191Y-108288152D02*
X75476191Y-108954819D01*
X75476191Y-108383390D02*
X75523810Y-108335771D01*
X75523810Y-108335771D02*
X75619048Y-108288152D01*
X75619048Y-108288152D02*
X75761905Y-108288152D01*
X75761905Y-108288152D02*
X75857143Y-108335771D01*
X75857143Y-108335771D02*
X75904762Y-108431009D01*
X75904762Y-108431009D02*
X75904762Y-108954819D01*
X58428095Y-48984819D02*
X58428095Y-49794342D01*
X58428095Y-49794342D02*
X58475714Y-49889580D01*
X58475714Y-49889580D02*
X58523333Y-49937200D01*
X58523333Y-49937200D02*
X58618571Y-49984819D01*
X58618571Y-49984819D02*
X58809047Y-49984819D01*
X58809047Y-49984819D02*
X58904285Y-49937200D01*
X58904285Y-49937200D02*
X58951904Y-49889580D01*
X58951904Y-49889580D02*
X58999523Y-49794342D01*
X58999523Y-49794342D02*
X58999523Y-48984819D01*
X59428095Y-49937200D02*
X59570952Y-49984819D01*
X59570952Y-49984819D02*
X59809047Y-49984819D01*
X59809047Y-49984819D02*
X59904285Y-49937200D01*
X59904285Y-49937200D02*
X59951904Y-49889580D01*
X59951904Y-49889580D02*
X59999523Y-49794342D01*
X59999523Y-49794342D02*
X59999523Y-49699104D01*
X59999523Y-49699104D02*
X59951904Y-49603866D01*
X59951904Y-49603866D02*
X59904285Y-49556247D01*
X59904285Y-49556247D02*
X59809047Y-49508628D01*
X59809047Y-49508628D02*
X59618571Y-49461009D01*
X59618571Y-49461009D02*
X59523333Y-49413390D01*
X59523333Y-49413390D02*
X59475714Y-49365771D01*
X59475714Y-49365771D02*
X59428095Y-49270533D01*
X59428095Y-49270533D02*
X59428095Y-49175295D01*
X59428095Y-49175295D02*
X59475714Y-49080057D01*
X59475714Y-49080057D02*
X59523333Y-49032438D01*
X59523333Y-49032438D02*
X59618571Y-48984819D01*
X59618571Y-48984819D02*
X59856666Y-48984819D01*
X59856666Y-48984819D02*
X59999523Y-49032438D01*
X60761428Y-49461009D02*
X60904285Y-49508628D01*
X60904285Y-49508628D02*
X60951904Y-49556247D01*
X60951904Y-49556247D02*
X60999523Y-49651485D01*
X60999523Y-49651485D02*
X60999523Y-49794342D01*
X60999523Y-49794342D02*
X60951904Y-49889580D01*
X60951904Y-49889580D02*
X60904285Y-49937200D01*
X60904285Y-49937200D02*
X60809047Y-49984819D01*
X60809047Y-49984819D02*
X60428095Y-49984819D01*
X60428095Y-49984819D02*
X60428095Y-48984819D01*
X60428095Y-48984819D02*
X60761428Y-48984819D01*
X60761428Y-48984819D02*
X60856666Y-49032438D01*
X60856666Y-49032438D02*
X60904285Y-49080057D01*
X60904285Y-49080057D02*
X60951904Y-49175295D01*
X60951904Y-49175295D02*
X60951904Y-49270533D01*
X60951904Y-49270533D02*
X60904285Y-49365771D01*
X60904285Y-49365771D02*
X60856666Y-49413390D01*
X60856666Y-49413390D02*
X60761428Y-49461009D01*
X60761428Y-49461009D02*
X60428095Y-49461009D01*
X86666666Y-74644819D02*
X86666666Y-75359104D01*
X86666666Y-75359104D02*
X86619047Y-75501961D01*
X86619047Y-75501961D02*
X86523809Y-75597200D01*
X86523809Y-75597200D02*
X86380952Y-75644819D01*
X86380952Y-75644819D02*
X86285714Y-75644819D01*
X87619047Y-74644819D02*
X87142857Y-74644819D01*
X87142857Y-74644819D02*
X87095238Y-75121009D01*
X87095238Y-75121009D02*
X87142857Y-75073390D01*
X87142857Y-75073390D02*
X87238095Y-75025771D01*
X87238095Y-75025771D02*
X87476190Y-75025771D01*
X87476190Y-75025771D02*
X87571428Y-75073390D01*
X87571428Y-75073390D02*
X87619047Y-75121009D01*
X87619047Y-75121009D02*
X87666666Y-75216247D01*
X87666666Y-75216247D02*
X87666666Y-75454342D01*
X87666666Y-75454342D02*
X87619047Y-75549580D01*
X87619047Y-75549580D02*
X87571428Y-75597200D01*
X87571428Y-75597200D02*
X87476190Y-75644819D01*
X87476190Y-75644819D02*
X87238095Y-75644819D01*
X87238095Y-75644819D02*
X87142857Y-75597200D01*
X87142857Y-75597200D02*
X87095238Y-75549580D01*
X80946666Y-90664819D02*
X80946666Y-91379104D01*
X80946666Y-91379104D02*
X80899047Y-91521961D01*
X80899047Y-91521961D02*
X80803809Y-91617200D01*
X80803809Y-91617200D02*
X80660952Y-91664819D01*
X80660952Y-91664819D02*
X80565714Y-91664819D01*
X81851428Y-90998152D02*
X81851428Y-91664819D01*
X81613333Y-90617200D02*
X81375238Y-91331485D01*
X81375238Y-91331485D02*
X81994285Y-91331485D01*
X59594761Y-73600057D02*
X59499523Y-73552438D01*
X59499523Y-73552438D02*
X59404285Y-73457200D01*
X59404285Y-73457200D02*
X59261428Y-73314342D01*
X59261428Y-73314342D02*
X59166190Y-73266723D01*
X59166190Y-73266723D02*
X59070952Y-73266723D01*
X59118571Y-73504819D02*
X59023333Y-73457200D01*
X59023333Y-73457200D02*
X58928095Y-73361961D01*
X58928095Y-73361961D02*
X58880476Y-73171485D01*
X58880476Y-73171485D02*
X58880476Y-72838152D01*
X58880476Y-72838152D02*
X58928095Y-72647676D01*
X58928095Y-72647676D02*
X59023333Y-72552438D01*
X59023333Y-72552438D02*
X59118571Y-72504819D01*
X59118571Y-72504819D02*
X59309047Y-72504819D01*
X59309047Y-72504819D02*
X59404285Y-72552438D01*
X59404285Y-72552438D02*
X59499523Y-72647676D01*
X59499523Y-72647676D02*
X59547142Y-72838152D01*
X59547142Y-72838152D02*
X59547142Y-73171485D01*
X59547142Y-73171485D02*
X59499523Y-73361961D01*
X59499523Y-73361961D02*
X59404285Y-73457200D01*
X59404285Y-73457200D02*
X59309047Y-73504819D01*
X59309047Y-73504819D02*
X59118571Y-73504819D01*
X60499523Y-73504819D02*
X59928095Y-73504819D01*
X60213809Y-73504819D02*
X60213809Y-72504819D01*
X60213809Y-72504819D02*
X60118571Y-72647676D01*
X60118571Y-72647676D02*
X60023333Y-72742914D01*
X60023333Y-72742914D02*
X59928095Y-72790533D01*
X77924819Y-97956666D02*
X77448628Y-98289999D01*
X77924819Y-98528094D02*
X76924819Y-98528094D01*
X76924819Y-98528094D02*
X76924819Y-98147142D01*
X76924819Y-98147142D02*
X76972438Y-98051904D01*
X76972438Y-98051904D02*
X77020057Y-98004285D01*
X77020057Y-98004285D02*
X77115295Y-97956666D01*
X77115295Y-97956666D02*
X77258152Y-97956666D01*
X77258152Y-97956666D02*
X77353390Y-98004285D01*
X77353390Y-98004285D02*
X77401009Y-98051904D01*
X77401009Y-98051904D02*
X77448628Y-98147142D01*
X77448628Y-98147142D02*
X77448628Y-98528094D01*
X77924819Y-97004285D02*
X77924819Y-97575713D01*
X77924819Y-97289999D02*
X76924819Y-97289999D01*
X76924819Y-97289999D02*
X77067676Y-97385237D01*
X77067676Y-97385237D02*
X77162914Y-97480475D01*
X77162914Y-97480475D02*
X77210533Y-97575713D01*
X74114819Y-80176666D02*
X73638628Y-80509999D01*
X74114819Y-80748094D02*
X73114819Y-80748094D01*
X73114819Y-80748094D02*
X73114819Y-80367142D01*
X73114819Y-80367142D02*
X73162438Y-80271904D01*
X73162438Y-80271904D02*
X73210057Y-80224285D01*
X73210057Y-80224285D02*
X73305295Y-80176666D01*
X73305295Y-80176666D02*
X73448152Y-80176666D01*
X73448152Y-80176666D02*
X73543390Y-80224285D01*
X73543390Y-80224285D02*
X73591009Y-80271904D01*
X73591009Y-80271904D02*
X73638628Y-80367142D01*
X73638628Y-80367142D02*
X73638628Y-80748094D01*
X73114819Y-79843332D02*
X73114819Y-79224285D01*
X73114819Y-79224285D02*
X73495771Y-79557618D01*
X73495771Y-79557618D02*
X73495771Y-79414761D01*
X73495771Y-79414761D02*
X73543390Y-79319523D01*
X73543390Y-79319523D02*
X73591009Y-79271904D01*
X73591009Y-79271904D02*
X73686247Y-79224285D01*
X73686247Y-79224285D02*
X73924342Y-79224285D01*
X73924342Y-79224285D02*
X74019580Y-79271904D01*
X74019580Y-79271904D02*
X74067200Y-79319523D01*
X74067200Y-79319523D02*
X74114819Y-79414761D01*
X74114819Y-79414761D02*
X74114819Y-79700475D01*
X74114819Y-79700475D02*
X74067200Y-79795713D01*
X74067200Y-79795713D02*
X74019580Y-79843332D01*
X50466666Y-50024819D02*
X50466666Y-50739104D01*
X50466666Y-50739104D02*
X50419047Y-50881961D01*
X50419047Y-50881961D02*
X50323809Y-50977200D01*
X50323809Y-50977200D02*
X50180952Y-51024819D01*
X50180952Y-51024819D02*
X50085714Y-51024819D01*
X51466666Y-51024819D02*
X50895238Y-51024819D01*
X51180952Y-51024819D02*
X51180952Y-50024819D01*
X51180952Y-50024819D02*
X51085714Y-50167676D01*
X51085714Y-50167676D02*
X50990476Y-50262914D01*
X50990476Y-50262914D02*
X50895238Y-50310533D01*
X73326666Y-90664819D02*
X73326666Y-91379104D01*
X73326666Y-91379104D02*
X73279047Y-91521961D01*
X73279047Y-91521961D02*
X73183809Y-91617200D01*
X73183809Y-91617200D02*
X73040952Y-91664819D01*
X73040952Y-91664819D02*
X72945714Y-91664819D01*
X73707619Y-90664819D02*
X74326666Y-90664819D01*
X74326666Y-90664819D02*
X73993333Y-91045771D01*
X73993333Y-91045771D02*
X74136190Y-91045771D01*
X74136190Y-91045771D02*
X74231428Y-91093390D01*
X74231428Y-91093390D02*
X74279047Y-91141009D01*
X74279047Y-91141009D02*
X74326666Y-91236247D01*
X74326666Y-91236247D02*
X74326666Y-91474342D01*
X74326666Y-91474342D02*
X74279047Y-91569580D01*
X74279047Y-91569580D02*
X74231428Y-91617200D01*
X74231428Y-91617200D02*
X74136190Y-91664819D01*
X74136190Y-91664819D02*
X73850476Y-91664819D01*
X73850476Y-91664819D02*
X73755238Y-91617200D01*
X73755238Y-91617200D02*
X73707619Y-91569580D01*
D11*
X58137856Y-56199318D02*
X58137856Y-54929318D01*
X58137856Y-54929318D02*
X58621666Y-54929318D01*
X58621666Y-54929318D02*
X58742618Y-54989794D01*
X58742618Y-54989794D02*
X58803095Y-55050270D01*
X58803095Y-55050270D02*
X58863571Y-55171222D01*
X58863571Y-55171222D02*
X58863571Y-55352651D01*
X58863571Y-55352651D02*
X58803095Y-55473603D01*
X58803095Y-55473603D02*
X58742618Y-55534080D01*
X58742618Y-55534080D02*
X58621666Y-55594556D01*
X58621666Y-55594556D02*
X58137856Y-55594556D01*
X59347380Y-56138842D02*
X59528809Y-56199318D01*
X59528809Y-56199318D02*
X59831190Y-56199318D01*
X59831190Y-56199318D02*
X59952142Y-56138842D01*
X59952142Y-56138842D02*
X60012618Y-56078365D01*
X60012618Y-56078365D02*
X60073095Y-55957413D01*
X60073095Y-55957413D02*
X60073095Y-55836461D01*
X60073095Y-55836461D02*
X60012618Y-55715508D01*
X60012618Y-55715508D02*
X59952142Y-55655032D01*
X59952142Y-55655032D02*
X59831190Y-55594556D01*
X59831190Y-55594556D02*
X59589285Y-55534080D01*
X59589285Y-55534080D02*
X59468333Y-55473603D01*
X59468333Y-55473603D02*
X59407856Y-55413127D01*
X59407856Y-55413127D02*
X59347380Y-55292175D01*
X59347380Y-55292175D02*
X59347380Y-55171222D01*
X59347380Y-55171222D02*
X59407856Y-55050270D01*
X59407856Y-55050270D02*
X59468333Y-54989794D01*
X59468333Y-54989794D02*
X59589285Y-54929318D01*
X59589285Y-54929318D02*
X59891666Y-54929318D01*
X59891666Y-54929318D02*
X60073095Y-54989794D01*
X61282619Y-56199318D02*
X60556904Y-56199318D01*
X60919761Y-56199318D02*
X60919761Y-54929318D01*
X60919761Y-54929318D02*
X60798809Y-55110746D01*
X60798809Y-55110746D02*
X60677857Y-55231699D01*
X60677857Y-55231699D02*
X60556904Y-55292175D01*
D10*
X59523333Y-61359580D02*
X59475714Y-61407200D01*
X59475714Y-61407200D02*
X59332857Y-61454819D01*
X59332857Y-61454819D02*
X59237619Y-61454819D01*
X59237619Y-61454819D02*
X59094762Y-61407200D01*
X59094762Y-61407200D02*
X58999524Y-61311961D01*
X58999524Y-61311961D02*
X58951905Y-61216723D01*
X58951905Y-61216723D02*
X58904286Y-61026247D01*
X58904286Y-61026247D02*
X58904286Y-60883390D01*
X58904286Y-60883390D02*
X58951905Y-60692914D01*
X58951905Y-60692914D02*
X58999524Y-60597676D01*
X58999524Y-60597676D02*
X59094762Y-60502438D01*
X59094762Y-60502438D02*
X59237619Y-60454819D01*
X59237619Y-60454819D02*
X59332857Y-60454819D01*
X59332857Y-60454819D02*
X59475714Y-60502438D01*
X59475714Y-60502438D02*
X59523333Y-60550057D01*
X60475714Y-61454819D02*
X59904286Y-61454819D01*
X60190000Y-61454819D02*
X60190000Y-60454819D01*
X60190000Y-60454819D02*
X60094762Y-60597676D01*
X60094762Y-60597676D02*
X59999524Y-60692914D01*
X59999524Y-60692914D02*
X59904286Y-60740533D01*
X68246666Y-50024819D02*
X68246666Y-50739104D01*
X68246666Y-50739104D02*
X68199047Y-50881961D01*
X68199047Y-50881961D02*
X68103809Y-50977200D01*
X68103809Y-50977200D02*
X67960952Y-51024819D01*
X67960952Y-51024819D02*
X67865714Y-51024819D01*
X68675238Y-50120057D02*
X68722857Y-50072438D01*
X68722857Y-50072438D02*
X68818095Y-50024819D01*
X68818095Y-50024819D02*
X69056190Y-50024819D01*
X69056190Y-50024819D02*
X69151428Y-50072438D01*
X69151428Y-50072438D02*
X69199047Y-50120057D01*
X69199047Y-50120057D02*
X69246666Y-50215295D01*
X69246666Y-50215295D02*
X69246666Y-50310533D01*
X69246666Y-50310533D02*
X69199047Y-50453390D01*
X69199047Y-50453390D02*
X68627619Y-51024819D01*
X68627619Y-51024819D02*
X69246666Y-51024819D01*
X80959580Y-50986666D02*
X81007200Y-51034285D01*
X81007200Y-51034285D02*
X81054819Y-51177142D01*
X81054819Y-51177142D02*
X81054819Y-51272380D01*
X81054819Y-51272380D02*
X81007200Y-51415237D01*
X81007200Y-51415237D02*
X80911961Y-51510475D01*
X80911961Y-51510475D02*
X80816723Y-51558094D01*
X80816723Y-51558094D02*
X80626247Y-51605713D01*
X80626247Y-51605713D02*
X80483390Y-51605713D01*
X80483390Y-51605713D02*
X80292914Y-51558094D01*
X80292914Y-51558094D02*
X80197676Y-51510475D01*
X80197676Y-51510475D02*
X80102438Y-51415237D01*
X80102438Y-51415237D02*
X80054819Y-51272380D01*
X80054819Y-51272380D02*
X80054819Y-51177142D01*
X80054819Y-51177142D02*
X80102438Y-51034285D01*
X80102438Y-51034285D02*
X80150057Y-50986666D01*
X80150057Y-50605713D02*
X80102438Y-50558094D01*
X80102438Y-50558094D02*
X80054819Y-50462856D01*
X80054819Y-50462856D02*
X80054819Y-50224761D01*
X80054819Y-50224761D02*
X80102438Y-50129523D01*
X80102438Y-50129523D02*
X80150057Y-50081904D01*
X80150057Y-50081904D02*
X80245295Y-50034285D01*
X80245295Y-50034285D02*
X80340533Y-50034285D01*
X80340533Y-50034285D02*
X80483390Y-50081904D01*
X80483390Y-50081904D02*
X81054819Y-50653332D01*
X81054819Y-50653332D02*
X81054819Y-50034285D01*
X85544819Y-97956666D02*
X85068628Y-98289999D01*
X85544819Y-98528094D02*
X84544819Y-98528094D01*
X84544819Y-98528094D02*
X84544819Y-98147142D01*
X84544819Y-98147142D02*
X84592438Y-98051904D01*
X84592438Y-98051904D02*
X84640057Y-98004285D01*
X84640057Y-98004285D02*
X84735295Y-97956666D01*
X84735295Y-97956666D02*
X84878152Y-97956666D01*
X84878152Y-97956666D02*
X84973390Y-98004285D01*
X84973390Y-98004285D02*
X85021009Y-98051904D01*
X85021009Y-98051904D02*
X85068628Y-98147142D01*
X85068628Y-98147142D02*
X85068628Y-98528094D01*
X84640057Y-97575713D02*
X84592438Y-97528094D01*
X84592438Y-97528094D02*
X84544819Y-97432856D01*
X84544819Y-97432856D02*
X84544819Y-97194761D01*
X84544819Y-97194761D02*
X84592438Y-97099523D01*
X84592438Y-97099523D02*
X84640057Y-97051904D01*
X84640057Y-97051904D02*
X84735295Y-97004285D01*
X84735295Y-97004285D02*
X84830533Y-97004285D01*
X84830533Y-97004285D02*
X84973390Y-97051904D01*
X84973390Y-97051904D02*
X85544819Y-97623332D01*
X85544819Y-97623332D02*
X85544819Y-97004285D01*
X90454819Y-65103333D02*
X91169104Y-65103333D01*
X91169104Y-65103333D02*
X91311961Y-65150952D01*
X91311961Y-65150952D02*
X91407200Y-65246190D01*
X91407200Y-65246190D02*
X91454819Y-65389047D01*
X91454819Y-65389047D02*
X91454819Y-65484285D01*
X90454819Y-64198571D02*
X90454819Y-64389047D01*
X90454819Y-64389047D02*
X90502438Y-64484285D01*
X90502438Y-64484285D02*
X90550057Y-64531904D01*
X90550057Y-64531904D02*
X90692914Y-64627142D01*
X90692914Y-64627142D02*
X90883390Y-64674761D01*
X90883390Y-64674761D02*
X91264342Y-64674761D01*
X91264342Y-64674761D02*
X91359580Y-64627142D01*
X91359580Y-64627142D02*
X91407200Y-64579523D01*
X91407200Y-64579523D02*
X91454819Y-64484285D01*
X91454819Y-64484285D02*
X91454819Y-64293809D01*
X91454819Y-64293809D02*
X91407200Y-64198571D01*
X91407200Y-64198571D02*
X91359580Y-64150952D01*
X91359580Y-64150952D02*
X91264342Y-64103333D01*
X91264342Y-64103333D02*
X91026247Y-64103333D01*
X91026247Y-64103333D02*
X90931009Y-64150952D01*
X90931009Y-64150952D02*
X90883390Y-64198571D01*
X90883390Y-64198571D02*
X90835771Y-64293809D01*
X90835771Y-64293809D02*
X90835771Y-64484285D01*
X90835771Y-64484285D02*
X90883390Y-64579523D01*
X90883390Y-64579523D02*
X90931009Y-64627142D01*
X90931009Y-64627142D02*
X91026247Y-64674761D01*
X76614700Y-59841428D02*
X76614700Y-58698571D01*
X77186128Y-59269999D02*
X76043271Y-59269999D01*
X76614700Y-70841428D02*
X76614700Y-69698571D01*
D12*
%TO.C,J5*%
X81345000Y-76190000D02*
X82615000Y-76190000D01*
X81345000Y-77460000D02*
X81345000Y-76190000D01*
X83692358Y-79570000D02*
X84005000Y-79570000D01*
X83692358Y-80430000D02*
X84005000Y-80430000D01*
X83692358Y-82110000D02*
X84005000Y-82110000D01*
X83692358Y-82970000D02*
X84005000Y-82970000D01*
X83775000Y-77030000D02*
X84005000Y-77030000D01*
X83775000Y-77890000D02*
X84005000Y-77890000D01*
X84005000Y-76080000D02*
X84005000Y-83920000D01*
X84005000Y-78730000D02*
X86765000Y-78730000D01*
X84005000Y-81270000D02*
X86765000Y-81270000D01*
X84005000Y-83920000D02*
X86765000Y-83920000D01*
X86765000Y-76080000D02*
X84005000Y-76080000D01*
X86765000Y-79570000D02*
X92765000Y-79570000D01*
X86765000Y-82110000D02*
X92765000Y-82110000D01*
X86765000Y-83920000D02*
X86765000Y-76080000D01*
X92765000Y-79570000D02*
X92765000Y-80430000D01*
X92765000Y-80430000D02*
X86765000Y-80430000D01*
X92765000Y-82110000D02*
X92765000Y-82970000D01*
X92765000Y-82970000D02*
X86765000Y-82970000D01*
X86765000Y-77030000D02*
X92765000Y-77030000D01*
X92765000Y-77890000D01*
X86765000Y-77890000D01*
X86765000Y-77030000D01*
G36*
X86765000Y-77030000D02*
G01*
X92765000Y-77030000D01*
X92765000Y-77890000D01*
X86765000Y-77890000D01*
X86765000Y-77030000D01*
G37*
%TO.C,J4*%
X79950000Y-95250000D02*
X79950000Y-102930000D01*
X79950000Y-95250000D02*
X82610000Y-95250000D01*
X79950000Y-102930000D02*
X82610000Y-102930000D01*
X81280000Y-92650000D02*
X82610000Y-92650000D01*
X82610000Y-92650000D02*
X82610000Y-93980000D01*
X82610000Y-95250000D02*
X82610000Y-102930000D01*
%TO.C,Q1*%
X61490000Y-67640000D02*
X57890000Y-67640000D01*
X57365816Y-68367205D02*
G75*
G02*
X57890000Y-67640000I2324184J-1122795D01*
G01*
X59690000Y-72090000D02*
G75*
G02*
X57333600Y-70588807I0J2600000D01*
G01*
X61490000Y-67640000D02*
G75*
G02*
X62014184Y-68367205I-1800000J-1850000D01*
G01*
X62046400Y-70588807D02*
G75*
G02*
X59690000Y-72090000I-2356400J1098807D01*
G01*
%TO.C,R1*%
X76100000Y-94520000D02*
X76430000Y-94520000D01*
X76100000Y-101060000D02*
X76100000Y-94520000D01*
X76430000Y-101060000D02*
X76100000Y-101060000D01*
X78510000Y-101060000D02*
X78840000Y-101060000D01*
X78840000Y-94520000D02*
X78510000Y-94520000D01*
X78840000Y-101060000D02*
X78840000Y-94520000D01*
%TO.C,R3*%
X72290000Y-76740000D02*
X72620000Y-76740000D01*
X72290000Y-83280000D02*
X72290000Y-76740000D01*
X72620000Y-83280000D02*
X72290000Y-83280000D01*
X74700000Y-83280000D02*
X75030000Y-83280000D01*
X75030000Y-76740000D02*
X74700000Y-76740000D01*
X75030000Y-83280000D02*
X75030000Y-76740000D01*
%TO.C,J1*%
X49470000Y-54610000D02*
X49470000Y-102930000D01*
X49470000Y-54610000D02*
X52130000Y-54610000D01*
X49470000Y-102930000D02*
X52130000Y-102930000D01*
X50800000Y-52010000D02*
X52130000Y-52010000D01*
X52130000Y-52010000D02*
X52130000Y-53340000D01*
X52130000Y-54610000D02*
X52130000Y-102930000D01*
%TO.C,J3*%
X72330000Y-95250000D02*
X72330000Y-102930000D01*
X72330000Y-95250000D02*
X74990000Y-95250000D01*
X72330000Y-102930000D02*
X74990000Y-102930000D01*
X73660000Y-92650000D02*
X74990000Y-92650000D01*
X74990000Y-92650000D02*
X74990000Y-93980000D01*
X74990000Y-95250000D02*
X74990000Y-102930000D01*
D13*
%TO.C,PS1*%
X53930000Y-51850000D02*
X53930000Y-59400000D01*
X53930000Y-59400000D02*
X65430000Y-59400000D01*
D14*
X62230000Y-51175000D02*
X62230000Y-51175000D01*
X62230000Y-51275000D02*
X62230000Y-51275000D01*
D13*
X65430000Y-51850000D02*
X53930000Y-51850000D01*
X65430000Y-59400000D02*
X65430000Y-51850000D01*
D14*
X62230000Y-51175000D02*
G75*
G02*
X62230000Y-51275000I0J-50000D01*
G01*
X62230000Y-51275000D02*
G75*
G02*
X62230000Y-51175000I0J50000D01*
G01*
D12*
%TO.C,C1*%
X57070000Y-62130000D02*
X62310000Y-62130000D01*
X57070000Y-62467000D02*
X57070000Y-62130000D01*
X57070000Y-64870000D02*
X57070000Y-64533000D01*
X62310000Y-62130000D02*
X62310000Y-62467000D01*
X62310000Y-64533000D02*
X62310000Y-64870000D01*
X62310000Y-64870000D02*
X57070000Y-64870000D01*
%TO.C,J2*%
X67250000Y-54610000D02*
X67250000Y-102930000D01*
X67250000Y-54610000D02*
X69910000Y-54610000D01*
X67250000Y-102930000D02*
X69910000Y-102930000D01*
X68580000Y-52010000D02*
X69910000Y-52010000D01*
X69910000Y-52010000D02*
X69910000Y-53340000D01*
X69910000Y-54610000D02*
X69910000Y-102930000D01*
%TO.C,C2*%
X75160000Y-51060000D02*
X72979000Y-51060000D01*
X75160000Y-51100000D02*
X72982000Y-51100000D01*
X75160000Y-51140000D02*
X72986000Y-51140000D01*
X75160000Y-51180000D02*
X72990000Y-51180000D01*
X75160000Y-51220000D02*
X72995000Y-51220000D01*
X75160000Y-51260000D02*
X73000000Y-51260000D01*
X75160000Y-51300000D02*
X73005000Y-51300000D01*
X75160000Y-51340000D02*
X73012000Y-51340000D01*
X75160000Y-51380000D02*
X73018000Y-51380000D01*
X75160000Y-51420000D02*
X73026000Y-51420000D01*
X75160000Y-51460000D02*
X73033000Y-51460000D01*
X75160000Y-51500000D02*
X73041000Y-51500000D01*
X75160000Y-51540000D02*
X73050000Y-51540000D01*
X75160000Y-51580000D02*
X73060000Y-51580000D01*
X75160000Y-51620000D02*
X73069000Y-51620000D01*
X75160000Y-51660000D02*
X73080000Y-51660000D01*
X75160000Y-51700000D02*
X73091000Y-51700000D01*
X75160000Y-51740000D02*
X73102000Y-51740000D01*
X75160000Y-51780000D02*
X73114000Y-51780000D01*
X75160000Y-51820000D02*
X73127000Y-51820000D01*
X75160000Y-51860000D02*
X73140000Y-51860000D01*
X75160000Y-51900000D02*
X73153000Y-51900000D01*
X75160000Y-51940000D02*
X73168000Y-51940000D01*
X75160000Y-51980000D02*
X73183000Y-51980000D01*
X75160000Y-52020000D02*
X73198000Y-52020000D01*
X75160000Y-52060000D02*
X73214000Y-52060000D01*
X75160000Y-52100000D02*
X73231000Y-52100000D01*
X75160000Y-52140000D02*
X73248000Y-52140000D01*
X75160000Y-52180000D02*
X73266000Y-52180000D01*
X75160000Y-52220000D02*
X73285000Y-52220000D01*
X75160000Y-52260000D02*
X73304000Y-52260000D01*
X75160000Y-52300000D02*
X73324000Y-52300000D01*
X75160000Y-52340000D02*
X73345000Y-52340000D01*
X75160000Y-52380000D02*
X73366000Y-52380000D01*
X75160000Y-52420000D02*
X73388000Y-52420000D01*
X75160000Y-52460000D02*
X73411000Y-52460000D01*
X75160000Y-52500000D02*
X73435000Y-52500000D01*
X75160000Y-52540000D02*
X73459000Y-52540000D01*
X75160000Y-52580000D02*
X73484000Y-52580000D01*
X75160000Y-52620000D02*
X73510000Y-52620000D01*
X75160000Y-52660000D02*
X73537000Y-52660000D01*
X75160000Y-52700000D02*
X73564000Y-52700000D01*
X75160000Y-52740000D02*
X73593000Y-52740000D01*
X75160000Y-52780000D02*
X73623000Y-52780000D01*
X75160000Y-52820000D02*
X73653000Y-52820000D01*
X75160000Y-52860000D02*
X73684000Y-52860000D01*
X75160000Y-52900000D02*
X73717000Y-52900000D01*
X75160000Y-52940000D02*
X73750000Y-52940000D01*
X75160000Y-52980000D02*
X73785000Y-52980000D01*
X75160000Y-53020000D02*
X73821000Y-53020000D01*
X75160000Y-53060000D02*
X73858000Y-53060000D01*
X75160000Y-53100000D02*
X73896000Y-53100000D01*
X76602000Y-54060000D02*
X75798000Y-54060000D01*
X76833000Y-54020000D02*
X75567000Y-54020000D01*
X77001000Y-53980000D02*
X75399000Y-53980000D01*
X77139000Y-53940000D02*
X75261000Y-53940000D01*
X77258000Y-53900000D02*
X75142000Y-53900000D01*
X77365000Y-53860000D02*
X75035000Y-53860000D01*
X77461000Y-53820000D02*
X74939000Y-53820000D01*
X77550000Y-53780000D02*
X74850000Y-53780000D01*
X77632000Y-53740000D02*
X74768000Y-53740000D01*
X77709000Y-53700000D02*
X74691000Y-53700000D01*
X77781000Y-53660000D02*
X74619000Y-53660000D01*
X77849000Y-53620000D02*
X74551000Y-53620000D01*
X77914000Y-53580000D02*
X74486000Y-53580000D01*
X77975000Y-53540000D02*
X74425000Y-53540000D01*
X78034000Y-53500000D02*
X74366000Y-53500000D01*
X78039000Y-47319759D02*
X78039000Y-47949759D01*
X78090000Y-53460000D02*
X74310000Y-53460000D01*
X78143000Y-53420000D02*
X74257000Y-53420000D01*
X78195000Y-53380000D02*
X74205000Y-53380000D01*
X78244000Y-53340000D02*
X74156000Y-53340000D01*
X78291000Y-53300000D02*
X74109000Y-53300000D01*
X78337000Y-53260000D02*
X74063000Y-53260000D01*
X78354000Y-47634759D02*
X77724000Y-47634759D01*
X78381000Y-53220000D02*
X74019000Y-53220000D01*
X78423000Y-53180000D02*
X73977000Y-53180000D01*
X78464000Y-53140000D02*
X73936000Y-53140000D01*
X78504000Y-53100000D02*
X77240000Y-53100000D01*
X78542000Y-53060000D02*
X77240000Y-53060000D01*
X78579000Y-53020000D02*
X77240000Y-53020000D01*
X78615000Y-52980000D02*
X77240000Y-52980000D01*
X78650000Y-52940000D02*
X77240000Y-52940000D01*
X78683000Y-52900000D02*
X77240000Y-52900000D01*
X78716000Y-52860000D02*
X77240000Y-52860000D01*
X78747000Y-52820000D02*
X77240000Y-52820000D01*
X78777000Y-52780000D02*
X77240000Y-52780000D01*
X78807000Y-52740000D02*
X77240000Y-52740000D01*
X78836000Y-52700000D02*
X77240000Y-52700000D01*
X78863000Y-52660000D02*
X77240000Y-52660000D01*
X78890000Y-52620000D02*
X77240000Y-52620000D01*
X78916000Y-52580000D02*
X77240000Y-52580000D01*
X78941000Y-52540000D02*
X77240000Y-52540000D01*
X78965000Y-52500000D02*
X77240000Y-52500000D01*
X78989000Y-52460000D02*
X77240000Y-52460000D01*
X79012000Y-52420000D02*
X77240000Y-52420000D01*
X79034000Y-52380000D02*
X77240000Y-52380000D01*
X79055000Y-52340000D02*
X77240000Y-52340000D01*
X79076000Y-52300000D02*
X77240000Y-52300000D01*
X79096000Y-52260000D02*
X77240000Y-52260000D01*
X79115000Y-52220000D02*
X77240000Y-52220000D01*
X79134000Y-52180000D02*
X77240000Y-52180000D01*
X79152000Y-52140000D02*
X77240000Y-52140000D01*
X79169000Y-52100000D02*
X77240000Y-52100000D01*
X79186000Y-52060000D02*
X77240000Y-52060000D01*
X79202000Y-52020000D02*
X77240000Y-52020000D01*
X79217000Y-51980000D02*
X77240000Y-51980000D01*
X79232000Y-51940000D02*
X77240000Y-51940000D01*
X79247000Y-51900000D02*
X77240000Y-51900000D01*
X79260000Y-51860000D02*
X77240000Y-51860000D01*
X79273000Y-51820000D02*
X77240000Y-51820000D01*
X79286000Y-51780000D02*
X77240000Y-51780000D01*
X79298000Y-51740000D02*
X77240000Y-51740000D01*
X79309000Y-51700000D02*
X77240000Y-51700000D01*
X79320000Y-51660000D02*
X77240000Y-51660000D01*
X79331000Y-51620000D02*
X77240000Y-51620000D01*
X79340000Y-51580000D02*
X77240000Y-51580000D01*
X79350000Y-51540000D02*
X77240000Y-51540000D01*
X79359000Y-51500000D02*
X77240000Y-51500000D01*
X79367000Y-51460000D02*
X77240000Y-51460000D01*
X79374000Y-51420000D02*
X77240000Y-51420000D01*
X79382000Y-51380000D02*
X77240000Y-51380000D01*
X79388000Y-51340000D02*
X77240000Y-51340000D01*
X79395000Y-51300000D02*
X77240000Y-51300000D01*
X79400000Y-51260000D02*
X77240000Y-51260000D01*
X79405000Y-51220000D02*
X77240000Y-51220000D01*
X79410000Y-51180000D02*
X77240000Y-51180000D01*
X79414000Y-51140000D02*
X77240000Y-51140000D01*
X79418000Y-51100000D02*
X77240000Y-51100000D01*
X79421000Y-51060000D02*
X77240000Y-51060000D01*
X79424000Y-51020000D02*
X72976000Y-51020000D01*
X79426000Y-50980000D02*
X72974000Y-50980000D01*
X79428000Y-50940000D02*
X72972000Y-50940000D01*
X79429000Y-50900000D02*
X72971000Y-50900000D01*
X79430000Y-50820000D02*
X72970000Y-50820000D01*
X79430000Y-50860000D02*
X72970000Y-50860000D01*
X79470000Y-50820000D02*
G75*
G02*
X72930000Y-50820000I-3270000J0D01*
G01*
X72930000Y-50820000D02*
G75*
G02*
X79470000Y-50820000I3270000J0D01*
G01*
%TO.C,R2*%
X83720000Y-94520000D02*
X84050000Y-94520000D01*
X83720000Y-101060000D02*
X83720000Y-94520000D01*
X84050000Y-101060000D02*
X83720000Y-101060000D01*
X86130000Y-101060000D02*
X86460000Y-101060000D01*
X86460000Y-94520000D02*
X86130000Y-94520000D01*
X86460000Y-101060000D02*
X86460000Y-94520000D01*
%TO.C,J6*%
X80490000Y-59710000D02*
X80490000Y-69830000D01*
X85390000Y-59120000D02*
X85390000Y-59710000D01*
X85390000Y-59710000D02*
X80490000Y-59710000D01*
X85390000Y-69830000D02*
X80490000Y-69830000D01*
X85390000Y-69830000D02*
X85390000Y-70420000D01*
X87610000Y-59120000D02*
X87610000Y-59710000D01*
X87610000Y-69830000D02*
X87610000Y-70420000D01*
X89710000Y-59710000D02*
X87610000Y-59710000D01*
X89710000Y-59710000D02*
X89710000Y-69830000D01*
X89710000Y-69830000D02*
X87610000Y-69830000D01*
X85390000Y-59120000D02*
G75*
G02*
X87610000Y-59120000I1110000J0D01*
G01*
X87610000Y-70420000D02*
G75*
G02*
X85390000Y-70420000I-1110000J0D01*
G01*
%TD*%
%LPC*%
D15*
%TO.C,J5*%
X82615000Y-77460000D03*
D16*
X82615000Y-80000000D03*
X82615000Y-82540000D03*
%TD*%
D15*
%TO.C,J4*%
X81280000Y-93980000D03*
D16*
X81280000Y-96520000D03*
X81280000Y-99060000D03*
X81280000Y-101600000D03*
%TD*%
D17*
%TO.C,REF\u002A\u002A*%
X86000000Y-108500000D03*
%TD*%
D18*
%TO.C,Q1*%
X62230000Y-69490000D03*
D19*
X59690000Y-69490000D03*
X57150000Y-69490000D03*
%TD*%
D20*
%TO.C,R1*%
X77470000Y-101600000D03*
X77470000Y-93980000D03*
%TD*%
%TO.C,R3*%
X73660000Y-83820000D03*
X73660000Y-76200000D03*
%TD*%
D17*
%TO.C,REF\u002A\u002A*%
X86000000Y-46500000D03*
%TD*%
D15*
%TO.C,J1*%
X50800000Y-53340000D03*
D16*
X50800000Y-55880000D03*
X50800000Y-58420000D03*
X50800000Y-60960000D03*
X50800000Y-63500000D03*
X50800000Y-66040000D03*
X50800000Y-68580000D03*
X50800000Y-71120000D03*
X50800000Y-73660000D03*
X50800000Y-76200000D03*
X50800000Y-78740000D03*
X50800000Y-81280000D03*
X50800000Y-83820000D03*
X50800000Y-86360000D03*
X50800000Y-88900000D03*
X50800000Y-91440000D03*
X50800000Y-93980000D03*
X50800000Y-96520000D03*
X50800000Y-99060000D03*
X50800000Y-101600000D03*
%TD*%
D15*
%TO.C,J3*%
X73660000Y-93980000D03*
D16*
X73660000Y-96520000D03*
X73660000Y-99060000D03*
X73660000Y-101600000D03*
%TD*%
D17*
%TO.C,REF\u002A\u002A*%
X51500000Y-108500000D03*
%TD*%
D21*
%TO.C,PS1*%
X62230000Y-53975000D03*
D22*
X59690000Y-53975000D03*
X57150000Y-53975000D03*
%TD*%
D20*
%TO.C,C1*%
X57190000Y-63500000D03*
X62190000Y-63500000D03*
%TD*%
D15*
%TO.C,J2*%
X68580000Y-53340000D03*
D16*
X68580000Y-55880000D03*
X68580000Y-58420000D03*
X68580000Y-60960000D03*
X68580000Y-63500000D03*
X68580000Y-66040000D03*
X68580000Y-68580000D03*
X68580000Y-71120000D03*
X68580000Y-73660000D03*
X68580000Y-76200000D03*
X68580000Y-78740000D03*
X68580000Y-81280000D03*
X68580000Y-83820000D03*
X68580000Y-86360000D03*
X68580000Y-88900000D03*
X68580000Y-91440000D03*
X68580000Y-93980000D03*
X68580000Y-96520000D03*
X68580000Y-99060000D03*
X68580000Y-101600000D03*
%TD*%
D23*
%TO.C,C2*%
X76200000Y-49570000D03*
D20*
X76200000Y-52070000D03*
%TD*%
D17*
%TO.C,REF\u002A\u002A*%
X51500000Y-46500000D03*
%TD*%
D20*
%TO.C,R2*%
X85090000Y-101600000D03*
X85090000Y-93980000D03*
%TD*%
D24*
%TO.C,J6*%
X86500000Y-59270000D03*
X86500000Y-70270000D03*
D25*
X76500000Y-67270000D03*
D26*
X76500000Y-62270000D03*
%TD*%
%LPD*%
M02*
