%TF.GenerationSoftware,KiCad,Pcbnew,9.0.6*%
%TF.CreationDate,2025-12-26T01:32:08+09:00*%
%TF.ProjectId,PicomniRover,5069636f-6d6e-4695-926f-7665722e6b69,rev?*%
%TF.SameCoordinates,Original*%
%TF.FileFunction,Legend,Bot*%
%TF.FilePolarity,Positive*%
%FSLAX46Y46*%
G04 Gerber Fmt 4.6, Leading zero omitted, Abs format (unit mm)*
G04 Created by KiCad (PCBNEW 9.0.6) date 2025-12-26 01:32:08*
%MOMM*%
%LPD*%
G01*
G04 APERTURE LIST*
G04 Aperture macros list*
%AMRoundRect*
0 Rectangle with rounded corners*
0 $1 Rounding radius*
0 $2 $3 $4 $5 $6 $7 $8 $9 X,Y pos of 4 corners*
0 Add a 4 corners polygon primitive as box body*
4,1,4,$2,$3,$4,$5,$6,$7,$8,$9,$2,$3,0*
0 Add four circle primitives for the rounded corners*
1,1,$1+$1,$2,$3*
1,1,$1+$1,$4,$5*
1,1,$1+$1,$6,$7*
1,1,$1+$1,$8,$9*
0 Add four rect primitives between the rounded corners*
20,1,$1+$1,$2,$3,$4,$5,0*
20,1,$1+$1,$4,$5,$6,$7,0*
20,1,$1+$1,$6,$7,$8,$9,0*
20,1,$1+$1,$8,$9,$2,$3,0*%
G04 Aperture macros list end*
%ADD10R,1.700000X1.700000*%
%ADD11C,1.700000*%
%ADD12C,3.200000*%
%ADD13R,1.500000X1.500000*%
%ADD14C,1.500000*%
%ADD15C,1.600000*%
%ADD16R,1.462000X1.462000*%
%ADD17C,1.462000*%
%ADD18RoundRect,0.250000X-0.550000X0.550000X-0.550000X-0.550000X0.550000X-0.550000X0.550000X0.550000X0*%
%ADD19C,1.400000*%
%ADD20RoundRect,0.770000X-0.980000X0.980000X-0.980000X-0.980000X0.980000X-0.980000X0.980000X0.980000X0*%
%ADD21C,3.500000*%
G04 APERTURE END LIST*
%LPC*%
D10*
%TO.C,J5*%
X82615000Y-77460000D03*
D11*
X82615000Y-80000000D03*
X82615000Y-82540000D03*
%TD*%
D10*
%TO.C,J4*%
X81280000Y-93980000D03*
D11*
X81280000Y-96520000D03*
X81280000Y-99060000D03*
X81280000Y-101600000D03*
%TD*%
D12*
%TO.C,REF\u002A\u002A*%
X86000000Y-108500000D03*
%TD*%
D13*
%TO.C,Q1*%
X62230000Y-69490000D03*
D14*
X59690000Y-69490000D03*
X57150000Y-69490000D03*
%TD*%
D15*
%TO.C,R1*%
X77470000Y-101600000D03*
X77470000Y-93980000D03*
%TD*%
%TO.C,R3*%
X73660000Y-83820000D03*
X73660000Y-76200000D03*
%TD*%
D12*
%TO.C,REF\u002A\u002A*%
X86000000Y-46500000D03*
%TD*%
D10*
%TO.C,J1*%
X50800000Y-53340000D03*
D11*
X50800000Y-55880000D03*
X50800000Y-58420000D03*
X50800000Y-60960000D03*
X50800000Y-63500000D03*
X50800000Y-66040000D03*
X50800000Y-68580000D03*
X50800000Y-71120000D03*
X50800000Y-73660000D03*
X50800000Y-76200000D03*
X50800000Y-78740000D03*
X50800000Y-81280000D03*
X50800000Y-83820000D03*
X50800000Y-86360000D03*
X50800000Y-88900000D03*
X50800000Y-91440000D03*
X50800000Y-93980000D03*
X50800000Y-96520000D03*
X50800000Y-99060000D03*
X50800000Y-101600000D03*
%TD*%
D10*
%TO.C,J3*%
X73660000Y-93980000D03*
D11*
X73660000Y-96520000D03*
X73660000Y-99060000D03*
X73660000Y-101600000D03*
%TD*%
D12*
%TO.C,REF\u002A\u002A*%
X51500000Y-108500000D03*
%TD*%
D16*
%TO.C,PS1*%
X62230000Y-53975000D03*
D17*
X59690000Y-53975000D03*
X57150000Y-53975000D03*
%TD*%
D15*
%TO.C,C1*%
X57190000Y-63500000D03*
X62190000Y-63500000D03*
%TD*%
D10*
%TO.C,J2*%
X68580000Y-53340000D03*
D11*
X68580000Y-55880000D03*
X68580000Y-58420000D03*
X68580000Y-60960000D03*
X68580000Y-63500000D03*
X68580000Y-66040000D03*
X68580000Y-68580000D03*
X68580000Y-71120000D03*
X68580000Y-73660000D03*
X68580000Y-76200000D03*
X68580000Y-78740000D03*
X68580000Y-81280000D03*
X68580000Y-83820000D03*
X68580000Y-86360000D03*
X68580000Y-88900000D03*
X68580000Y-91440000D03*
X68580000Y-93980000D03*
X68580000Y-96520000D03*
X68580000Y-99060000D03*
X68580000Y-101600000D03*
%TD*%
D18*
%TO.C,C2*%
X76200000Y-49570000D03*
D15*
X76200000Y-52070000D03*
%TD*%
D12*
%TO.C,REF\u002A\u002A*%
X51500000Y-46500000D03*
%TD*%
D15*
%TO.C,R2*%
X85090000Y-101600000D03*
X85090000Y-93980000D03*
%TD*%
D19*
%TO.C,J6*%
X86500000Y-59270000D03*
X86500000Y-70270000D03*
D20*
X76500000Y-67270000D03*
D21*
X76500000Y-62270000D03*
%TD*%
%LPD*%
M02*
