M48
; DRILL file {KiCad 9.0.6} date 2025-12-26T01:32:08+0900
; FORMAT={-:-/ absolute / inch / decimal}
; #@! TF.CreationDate,2025-12-26T01:32:08+09:00
; #@! TF.GenerationSoftware,Kicad,Pcbnew,9.0.6
; #@! TF.FileFunction,Plated,1,2,PTH
FMAT,2
INCH
; #@! TA.AperFunction,Plated,PTH,ViaDrill
T1C0.0118
; #@! TA.AperFunction,Plated,PTH,ComponentDrill
T2C0.0315
; #@! TA.AperFunction,Plated,PTH,ComponentDrill
T3C0.0370
; #@! TA.AperFunction,Plated,PTH,ComponentDrill
T4C0.0394
; #@! TA.AperFunction,Plated,PTH,ComponentDrill
T5C0.0748
%
G90
G05
T1
X2.2Y-1.8
X2.2Y-3.0
X2.2Y-3.2
X2.2Y-3.4
X2.2Y-3.6
X2.2Y-3.8
X2.2Y-4.0
X2.2Y-4.2
X2.4Y-1.8
X2.4Y-3.0
X2.4Y-3.2
X2.4Y-3.4
X2.4Y-3.6
X2.4Y-3.8
X2.4Y-4.0
X2.4Y-4.2
X2.6Y-1.8
X2.6Y-3.0
X2.6Y-3.2
X2.6Y-3.4
X2.6Y-3.6
X2.6Y-3.8
X2.6Y-4.0
X2.6Y-4.2
X2.8Y-1.8
X2.8Y-2.2
X2.8Y-4.2
X3.0Y-1.8
X3.0Y-2.2
X3.0Y-3.2
X3.0Y-3.4
X3.0Y-3.6
X3.0Y-4.2
X3.2Y-1.8
X3.2Y-3.4
X3.2Y-4.2
X3.4Y-2.0
X3.4Y-2.2
X3.4Y-3.4
X3.4Y-3.6
T2
X2.25Y-2.7358
X2.2516Y-2.5
X2.35Y-2.7358
X2.4484Y-2.5
X2.45Y-2.7358
X2.9Y-3.0
X2.9Y-3.3
X3.0Y-1.9516
X3.0Y-2.05
X3.05Y-3.7
X3.05Y-4.0
X3.35Y-3.7
X3.35Y-4.0
T3
X2.25Y-2.125
X2.35Y-2.125
X2.45Y-2.125
T4
X2.0Y-2.1
X2.0Y-2.2
X2.0Y-2.3
X2.0Y-2.4
X2.0Y-2.5
X2.0Y-2.6
X2.0Y-2.7
X2.0Y-2.8
X2.0Y-2.9
X2.0Y-3.0
X2.0Y-3.1
X2.0Y-3.2
X2.0Y-3.3
X2.0Y-3.4
X2.0Y-3.5
X2.0Y-3.6
X2.0Y-3.7
X2.0Y-3.8
X2.0Y-3.9
X2.0Y-4.0
X2.7Y-2.1
X2.7Y-2.2
X2.7Y-2.3
X2.7Y-2.4
X2.7Y-2.5
X2.7Y-2.6
X2.7Y-2.7
X2.7Y-2.8
X2.7Y-2.9
X2.7Y-3.0
X2.7Y-3.1
X2.7Y-3.2
X2.7Y-3.3
X2.7Y-3.4
X2.7Y-3.5
X2.7Y-3.6
X2.7Y-3.7
X2.7Y-3.8
X2.7Y-3.9
X2.7Y-4.0
X2.9Y-3.7
X2.9Y-3.8
X2.9Y-3.9
X2.9Y-4.0
X3.2Y-3.7
X3.2Y-3.8
X3.2Y-3.9
X3.2Y-4.0
X3.2526Y-3.0496
X3.2526Y-3.1496
X3.2526Y-3.2496
X3.4055Y-2.3335
X3.4055Y-2.7665
T5
X3.0118Y-2.4516
X3.0118Y-2.6484
M30
